<svg preserveAspectRatio="none" width="100%" height="100%" overflow="visible" style="display: block;" viewBox="0 0 30.667 31.3154" fill="none" xmlns="http://www.w3.org/2000/svg">
<g id="Group">
<path id="Vector" d="M9.35219 8.98947C8.8817 8.51891 8.07899 8.69095 7.84457 9.31599L0.0602908 30.074C-0.215474 30.8093 0.50467 31.5315 1.24139 31.2551C2.28396 30.8641 21.1628 23.7846 21.9993 23.4709C22.6215 23.2376 22.7989 22.4361 22.3259 21.9632L9.35219 8.98947ZM9.06218 11.2942L12.8321 15.0641C13.0929 18.1992 14.2543 21.213 16.1481 23.7055L12.2237 25.1771C9.28834 22.1237 7.79032 17.8547 8.18932 13.6219L9.06218 11.2942ZM6.5888 27.2902C5.68383 26.2624 4.93115 25.1169 4.34458 23.8745L6.55999 17.9666C7.11024 20.9884 8.46741 23.6916 10.371 25.8718L6.5888 27.2902ZM3.48909 26.1559C3.87292 26.7902 4.2992 27.397 4.76572 27.9739L2.48688 28.8285L3.48909 26.1559ZM17.9513 23.0293C16.5755 21.3554 15.5879 19.3864 15.0581 17.2901L20.0211 22.2531L17.9513 23.0293Z" fill="var(--fill-0, #C49A44)"/>
<g id="Group_2">
<path id="Vector_2" d="M21.3164 17.1346C21.6746 17.4929 22.2555 17.4929 22.6137 17.1346C26.065 13.6833 29.4256 14.7504 29.4592 14.7615C29.9399 14.9217 30.4594 14.6619 30.6196 14.1813C30.7799 13.7007 30.5201 13.1811 30.0394 13.0208C29.8585 12.9606 25.5607 11.593 21.3164 15.8373C20.9581 16.1955 20.958 16.7764 21.3164 17.1346Z" fill="var(--fill-0, #C49A44)"/>
</g>
<path id="Vector_3" d="M14.1807 9.99915C14.5389 10.3574 15.1198 10.3575 15.4781 9.99915C19.7223 5.75492 18.3547 1.45706 18.2945 1.27615C18.1343 0.795502 17.6146 0.535639 17.1341 0.695936C16.6534 0.856171 16.3937 1.37571 16.5539 1.85636C16.565 1.88994 17.632 5.25055 14.1807 8.70185C13.8224 9.06006 13.8224 9.64095 14.1807 9.99915Z" fill="var(--fill-0, #C49A44)"/>
<path id="Vector_4" d="M17.4242 11.9452C17.0659 12.3035 17.0659 12.8843 17.4242 13.2426C17.7791 13.5976 18.3559 13.6022 18.7161 13.248C19.19 13.0119 20.661 13.8976 21.4785 13.0804C22.2872 12.2716 21.428 10.8305 21.6426 10.3255C22.1483 10.1103 23.5888 10.97 24.3975 10.1613C25.2064 9.35256 24.3471 7.91148 24.5617 7.40637C25.0682 7.19115 26.5079 8.05092 27.3166 7.24222C28.1255 6.43346 27.2662 4.99238 27.4809 4.48727C27.9843 4.27315 29.4277 5.13096 30.2359 4.32305C31.053 3.50579 30.169 2.03217 30.4034 1.5607C30.7563 1.20207 30.7544 0.625278 30.3979 0.268784C30.0397 -0.0894838 29.4588 -0.0894838 29.1006 0.268784C28.3775 0.991863 28.519 2.01266 28.6552 2.74247C27.9254 2.60627 26.9046 2.46481 26.1815 3.18783C25.4585 3.91091 25.5999 4.93171 25.7361 5.66151C25.0063 5.52537 23.9854 5.38379 23.2624 6.10693C22.5394 6.83001 22.6809 7.85081 22.8171 8.58062C22.0871 8.44442 21.0664 8.3029 20.3434 9.02598C19.6203 9.74905 19.7618 10.7699 19.898 11.4997C19.1681 11.3636 18.1471 11.2221 17.4242 11.9452Z" fill="var(--fill-0, #C49A44)"/>
<path id="Vector_5" d="M22.6137 4.16109C22.972 3.80283 22.972 3.222 22.6137 2.86373C22.2554 2.50547 21.6746 2.50547 21.3163 2.86373C20.9581 3.222 20.9581 3.80283 21.3163 4.16109C21.6746 4.51936 22.2554 4.51936 22.6137 4.16109Z" fill="var(--fill-0, #C49A44)"/>
<path id="Vector_6" d="M28.4517 10.9167C28.9583 10.9167 29.3691 10.506 29.3691 9.99931C29.3691 9.49266 28.9583 9.08193 28.4517 9.08193C27.945 9.08193 27.5343 9.49266 27.5343 9.99931C27.5343 10.506 27.945 10.9167 28.4517 10.9167Z" fill="var(--fill-0, #C49A44)"/>
<path id="Vector_7" d="M26.5055 18.4322C26.1473 18.7905 26.1473 19.3713 26.5055 19.7296C26.8638 20.0879 27.4446 20.0879 27.8029 19.7296C28.1612 19.3713 28.1612 18.7905 27.8029 18.4322C27.4447 18.074 26.8638 18.074 26.5055 18.4322Z" fill="var(--fill-0, #C49A44)"/>
<path id="Vector_8" d="M13.5319 5.45833C13.8901 5.10006 13.8901 4.51924 13.5319 4.16097C13.1736 3.8027 12.5928 3.8027 12.2345 4.16097C11.8762 4.51918 11.8762 5.10006 12.2345 5.45833C12.5928 5.8166 13.1737 5.8166 13.5319 5.45833Z" fill="var(--fill-0, #C49A44)"/>
</g>
</svg>
