<svg preserveAspectRatio="none" width="100%" height="100%" overflow="visible" style="display: block;" viewBox="0 0 61 85" fill="none" xmlns="http://www.w3.org/2000/svg">
<g id="Group 11">
<rect id="Rectangle 26" x="9" y="12" width="42" height="40" fill="var(--fill-0, white)"/>
<path id="Vector" d="M30.5 0C13.6822 0 0 13.8095 0 30.7836C0 51.8491 27.2945 82.7743 28.4566 84.0805C29.5481 85.3076 31.4539 85.3054 32.5434 84.0805C33.7055 82.7743 61 51.8491 61 30.7836C60.9997 13.8095 47.3176 0 30.5 0ZM30.5 46.2718C22.0386 46.2718 15.1548 39.3238 15.1548 30.7836C15.1548 22.2435 22.0387 15.2957 30.5 15.2957C38.9613 15.2957 45.845 22.2436 45.845 30.7838C45.845 39.324 38.9613 46.2718 30.5 46.2718Z" fill="var(--fill-0, #A90000)"/>
</g>
</svg>
