<svg preserveAspectRatio="none" width="100%" height="100%" overflow="visible" style="display: block;" viewBox="0 0 93 18.0041" fill="none" xmlns="http://www.w3.org/2000/svg">
<g id="Group">
<g id="Group_2">
<path id="Vector" d="M23.4567 0.419832H30.1251C31.7071 0.419832 32.9655 0.822067 33.9051 1.62654C34.8447 2.43101 35.3145 3.50698 35.3145 4.85196C35.3145 5.73939 35.0916 6.51117 34.6458 7.16732C34.2 7.82346 33.5839 8.32375 32.8025 8.67067C33.7877 8.9824 34.5667 9.50531 35.1396 10.2344C35.71 10.9659 35.9977 11.8232 35.9977 12.8087C35.9977 14.2869 35.4847 15.4659 34.4588 16.3433C33.4329 17.2232 32.0834 17.6606 30.4079 17.6606H23.4567V0.419832ZM30.0316 2.06899H25.2641V7.93157H30.0316C31.0959 7.93157 31.9444 7.66509 32.5796 7.13212C33.2148 6.59916 33.5312 5.88771 33.5312 5.00279C33.5312 4.11788 33.2148 3.40643 32.5796 2.87095C31.9468 2.33799 31.0959 2.07151 30.0316 2.07151V2.06899ZM30.2665 16.0089C31.441 16.0089 32.3831 15.7123 33.0973 15.1215C33.8092 14.5307 34.1664 13.7413 34.1664 12.7584C34.1664 11.7754 33.8092 10.986 33.0973 10.3927C32.3854 9.80196 31.441 9.50531 30.2665 9.50531H25.2641V16.0064H30.2665V16.0089Z" fill="var(--fill-0, white)"/>
<path id="Vector_2" d="M42.2657 17.8815C40.9809 17.8815 39.9358 17.5371 39.1305 16.8457C38.3251 16.1569 37.92 15.2619 37.92 14.1608C37.92 13.0597 38.3419 12.0968 39.188 11.4156C40.0341 10.7343 41.1751 10.3924 42.6157 10.3924C43.2413 10.3924 43.8477 10.4653 44.435 10.6136C45.0222 10.7619 45.5663 10.9681 46.0673 11.2295V9.60299C46.0673 8.61752 45.8012 7.8759 45.2691 7.37311C44.737 6.87283 43.9628 6.62143 42.944 6.62143C42.364 6.62143 41.7815 6.70691 41.1943 6.88037C40.607 7.05383 39.9622 7.32785 39.2575 7.70495L38.6007 6.30216C39.4469 5.87478 40.2283 5.56305 40.9498 5.36696C41.6689 5.17087 42.3903 5.07031 43.1094 5.07031C44.5956 5.07031 45.7437 5.43987 46.5491 6.17897C47.3545 6.91808 47.7596 7.97646 47.7596 9.35663V17.6577H46.0697V16.451C45.5376 16.9262 44.9551 17.2857 44.3199 17.522C43.6847 17.7608 43.0016 17.879 42.2657 17.879V17.8815ZM39.5883 14.1131C39.5883 14.8019 39.8663 15.365 40.4224 15.7999C40.9785 16.2348 41.6952 16.4536 42.5701 16.4536C43.2748 16.4536 43.9172 16.3379 44.4949 16.1091C45.0749 15.8804 45.5975 15.5184 46.0673 15.0256V12.7103C45.5807 12.3658 45.0606 12.1144 44.5045 11.9586C43.9484 11.8027 43.3347 11.7248 42.6612 11.7248C41.7216 11.7248 40.9737 11.9435 40.4176 12.3784C39.8615 12.8133 39.5835 13.3915 39.5835 14.1156L39.5883 14.1131Z" fill="var(--fill-0, white)"/>
<path id="Vector_3" d="M52.4121 0V17.6581H50.6743V0.419832L52.4121 0Z" fill="var(--fill-0, white)"/>
<path id="Vector_4" d="M54.6173 17.6581V16.2302L61.71 6.94609H54.6892V5.31955H63.8241V6.72235L56.7099 16.0316H63.896V17.6581H54.6197H54.6173Z" fill="var(--fill-0, white)"/>
<path id="Vector_5" d="M69.9532 17.8815C68.6684 17.8815 67.6234 17.5371 66.818 16.8457C66.0126 16.1569 65.6075 15.2619 65.6075 14.1608C65.6075 13.0597 66.0294 12.0968 66.8755 11.4156C67.7216 10.7343 68.8626 10.3924 70.3032 10.3924C70.9288 10.3924 71.5352 10.4653 72.1225 10.6136C72.7097 10.7619 73.2538 10.9681 73.7548 11.2295V9.60299C73.7548 8.61752 73.4887 7.8759 72.9566 7.37311C72.4245 6.87283 71.6503 6.62143 70.6316 6.62143C70.0515 6.62143 69.469 6.70691 68.8818 6.88037C68.2945 7.05383 67.6497 7.32785 66.945 7.70495L66.2882 6.30216C67.1344 5.87478 67.9158 5.56305 68.6373 5.36696C69.3564 5.17087 70.0778 5.07031 70.7969 5.07031C72.2831 5.07031 73.4312 5.43987 74.2366 6.17897C75.042 6.91808 75.4471 7.97646 75.4471 9.35663V17.6577H73.7572V16.451C73.2251 16.9262 72.6426 17.2857 72.0074 17.522C71.3722 17.7608 70.6891 17.879 69.9532 17.879V17.8815ZM67.2758 14.1131C67.2758 14.8019 67.5538 15.365 68.1099 15.7999C68.666 16.2348 69.3827 16.4536 70.2576 16.4536C70.9623 16.4536 71.6047 16.3379 72.1824 16.1091C72.7625 15.8804 73.285 15.5184 73.7548 15.0256V12.7103C73.2682 12.3658 72.7481 12.1144 72.192 11.9586C71.6359 11.8027 71.0223 11.7248 70.3487 11.7248C69.4091 11.7248 68.6612 11.9435 68.1051 12.3784C67.549 12.8133 67.271 13.3915 67.271 14.1156L67.2758 14.1131Z" fill="var(--fill-0, white)"/>
<path id="Vector_6" d="M78.3593 17.6586V5.32003H80.0971V6.7731C80.5502 6.215 81.0919 5.79265 81.7175 5.50606C82.3431 5.21947 83.0406 5.07617 83.8076 5.07617C85.138 5.07617 86.2262 5.51863 87.0723 6.40606C87.9184 7.29349 88.3403 8.44237 88.3403 9.85522V17.6636H86.6265V10.2248C86.6265 9.14126 86.3292 8.27896 85.7348 7.6379C85.1404 6.99684 84.3422 6.67757 83.3402 6.67757C82.6355 6.67757 82.0051 6.84098 81.449 7.17031C80.8929 7.49964 80.4423 7.96723 80.0995 8.5731V17.6611H78.3617L78.3593 17.6586Z" fill="var(--fill-0, white)"/>
<g id="Group_3">
<path id="Vector_7" d="M92.988 5.31955H91.2502V17.6581H92.988V5.31955Z" fill="var(--fill-0, white)"/>
<path id="Vector_8" d="M93 0.884915H91.2502V2.72011H93V0.884915Z" fill="var(--fill-0, white)"/>
</g>
</g>
<path id="Vector_9" d="M16.9418 0.834915C17.1911 0.573463 17.0137 0.125977 16.6613 0.125977H0.3955C0.177376 0.125977 0 0.31201 0 0.540781V8.62821C0 8.99776 0.429057 9.1838 0.675945 8.91983L8.35344 0.78715C8.47329 0.658938 8.68182 0.74944 8.68182 0.930446V9.08827V9.63883V17.588C8.68182 17.9601 9.11088 18.1436 9.36016 17.8796L17.1216 9.72179C17.3061 9.52821 17.1743 9.19888 16.9154 9.19888H9.37934C9.22833 9.19888 9.15403 9.00782 9.25949 8.89721L16.9418 0.834915Z" fill="var(--fill-0, #FF611B)"/>
</g>
</svg>
