<svg preserveAspectRatio="none" width="100%" height="100%" overflow="visible" style="display: block;" viewBox="0 0 150.24 107.02" fill="none" xmlns="http://www.w3.org/2000/svg">
<g id="Layer_1" clip-path="url(#clip0_0_22)">
<path id="Vector" d="M66.18 32.58C75.66 40.02 84.44 48.09 96.24 52.17C97.65 52.66 100.47 53.49 101.83 52.81C102.42 50.99 94.97 40.25 93.58 38.13C95.14 36.29 97.1 34.43 98.83 32.72C101.83 35.81 103.61 38.84 105.92 42.44C108.09 45.91 109.87 48.79 110.05 52.97C110.24 57.71 106.21 61.66 101.51 61.26C87.68 60.08 70.12 47.26 60.67 37.96L66.18 32.6V32.58Z" fill="url(#paint0_linear_0_22)"/>
<path id="Vector_2" d="M99.82 0.07C106 -0.52 111.41 3.46 109.9 9.87C107.14 21.59 93.39 35.86 83.92 42.82C82.09 41.74 79.09 39.52 77.25 38.24C80.28 35.72 83.25 33.11 86.13 30.42C89.83 26.98 93.24 23.22 96.31 19.21C97.8 17.23 102.22 10.76 101.89 8.42L101.3 8.06C97.32 7.61 87.8 12.98 84.16 14.93C82.61 14.02 79.17 11.23 77.6 10.01C84.82 5.07 91.24 1.64 99.82 0.07Z" fill="url(#paint1_linear_0_22)"/>
<path id="Vector_3" d="M47.46 0.04C47.74 0.02 48.01 0.01 48.29 0.01C60.68 -0.23 80.82 14.91 89.47 23.24L83.9 28.64C78.06 23.63 73.34 19.76 66.8 15.55C63.85 13.72 51.37 6.48 48.23 8.4C48.13 10.57 55.06 20.85 56.77 22.88C54.92 24.72 52.95 26.53 51.05 28.31C48.98 25.84 47.36 22.88 45.45 20.32C40.61 13.83 35.65 2.45 47.46 0.04Z" fill="url(#paint2_linear_0_22)"/>
<path id="Vector_4" d="M66.27 18.49C68.5 19.78 70.79 21.48 72.91 22.99C64 30.46 54.43 39.07 49.24 49.68C48.67 50.85 47.58 52.28 48.78 53.15C52.76 53.59 62.42 48.27 66.07 46.23C68.13 47.66 70.65 49.71 72.68 51.27L70.13 52.92C63.62 56.83 55.12 61.64 47.25 61.08C42.73 60.76 39.23 56.56 40.24 52.08C43.04 39.62 56.46 25.76 66.27 18.49Z" fill="url(#paint3_linear_0_22)"/>
<path id="Vector_5" d="M128.44 68.06C134.27 67.63 143.21 67.91 149.28 67.94C149.13 69.6 148.83 71.44 148.59 73.1C145.17 73.01 132.5 72.57 129.7 73.23C129.07 73.38 128.61 73.71 128.29 74.27C127.92 74.92 127.94 76.32 128.18 77.05C129.35 80.48 143.12 77.35 147.68 79.97C148.81 80.61 149.63 81.67 149.97 82.92C150.54 85.08 150.16 89.02 149.03 91C148.07 92.69 146.35 93.09 144.62 93.55C139.05 94 129.38 93.69 123.53 93.67C123.59 92 123.7 90.3 123.78 88.63H136.38C138.91 88.65 145.34 89.88 145.08 85.02C144.98 84.38 144.44 83.81 143.87 83.54C138.7 81.15 124.32 86.33 122.96 78.22C122.08 72.97 123 69.23 128.44 68.06Z" fill="var(--fill-0, #464642)"/>
<path id="Vector_6" d="M31.39 67.93H56.2L56.19 73.02H36.44V78.72H55.62L55.59 82.89H44.98L36.43 82.88V88.63H56.2V93.67C48.05 93.81 39.53 93.69 31.36 93.69V67.92L31.39 67.93Z" fill="var(--fill-0, #464642)"/>
<path id="Vector_7" d="M0.13 67.95L5.51 67.92C10.91 73.08 18.11 81.06 23.27 86.62V67.94L28.17 67.92C28.04 76.39 28.15 85.19 28.15 93.69H23.15L4.99 74.77L5.01 93.7H0.12V67.95H0.13Z" fill="var(--fill-0, #464642)"/>
<path id="Vector_8" d="M92.06 67.94H97.13C97.11 70.48 96.54 86.01 97.94 87.92C98.72 88.99 112.93 89.04 114.37 87.92C115.69 85.67 115.17 71.5 115.15 67.95L120.24 67.93L120.21 73.04C120.18 77.23 121.33 88.63 118.64 91.51C117.01 93.25 114.36 93.67 112.09 93.73C108.44 93.83 96.55 94.52 94.13 92.16C90.79 88.89 92.03 72.88 92.05 67.93" fill="var(--fill-0, #464642)"/>
<path id="Vector_9" d="M83.09 67.94L90.09 67.92C86.05 72.1 81.24 76.59 77.04 80.69C81.46 84.85 85.82 89.32 90.28 93.41L89.96 93.72H83.89L73.67 83.71C70.52 87.06 67.12 90.45 63.9 93.75L57.12 93.69C61.61 89.35 66.06 84.83 70.49 80.42L57.37 67.95L64.42 67.93C67.52 70.83 70.79 74.21 73.83 77.24C76.89 74.12 79.98 71.03 83.09 67.96" fill="var(--fill-0, #464642)"/>
<path id="Vector_10" d="M146.18 107.02C145.72 107.02 145.31 106.94 144.95 106.78C144.59 106.61 144.31 106.39 144.11 106.11C143.9 105.82 143.8 105.49 143.79 105.11H144.75C144.78 105.43 144.92 105.71 145.15 105.93C145.39 106.15 145.73 106.26 146.18 106.26C146.63 106.26 146.95 106.15 147.19 105.94C147.44 105.72 147.57 105.44 147.57 105.11C147.57 104.85 147.5 104.63 147.35 104.47C147.2 104.3 147.02 104.18 146.8 104.09C146.58 104 146.29 103.91 145.92 103.81C145.46 103.69 145.1 103.57 144.82 103.45C144.55 103.33 144.31 103.15 144.11 102.89C143.92 102.63 143.82 102.29 143.82 101.86C143.82 101.48 143.92 101.15 144.11 100.86C144.3 100.57 144.57 100.34 144.91 100.18C145.26 100.02 145.66 99.94 146.11 99.94C146.76 99.94 147.29 100.1 147.7 100.43C148.12 100.75 148.35 101.18 148.41 101.72H147.42C147.39 101.46 147.25 101.22 147 101.02C146.75 100.82 146.43 100.71 146.03 100.71C145.65 100.71 145.34 100.81 145.11 101.01C144.87 101.2 144.75 101.47 144.75 101.82C144.75 102.07 144.82 102.28 144.96 102.44C145.11 102.6 145.28 102.72 145.49 102.81C145.7 102.89 146 102.98 146.37 103.09C146.83 103.22 147.19 103.34 147.47 103.47C147.75 103.59 147.99 103.78 148.19 104.04C148.39 104.29 148.49 104.64 148.49 105.07C148.49 105.41 148.4 105.72 148.22 106.02C148.04 106.32 147.78 106.56 147.43 106.74C147.08 106.93 146.67 107.02 146.19 107.02M138.93 106.24C139.41 106.24 139.85 106.13 140.23 105.9C140.62 105.68 140.93 105.35 141.14 104.94C141.37 104.52 141.48 104.04 141.48 103.49C141.48 102.94 141.37 102.45 141.14 102.04C140.92 101.62 140.62 101.3 140.24 101.08C139.86 100.86 139.42 100.74 138.93 100.74C138.44 100.74 138 100.85 137.62 101.08C137.24 101.3 136.93 101.63 136.71 102.04C136.49 102.45 136.38 102.93 136.38 103.49C136.38 104.05 136.49 104.52 136.71 104.94C136.93 105.36 137.24 105.68 137.62 105.9C138.01 106.13 138.45 106.24 138.93 106.24ZM138.93 107.02C138.29 107.02 137.7 106.87 137.17 106.57C136.64 106.27 136.22 105.85 135.91 105.31C135.61 104.77 135.45 104.16 135.45 103.48C135.45 102.8 135.6 102.2 135.91 101.66C136.22 101.12 136.64 100.7 137.17 100.4C137.7 100.1 138.28 99.94 138.93 99.94C139.58 99.94 140.17 100.09 140.7 100.4C141.23 100.7 141.65 101.11 141.95 101.65C142.25 102.19 142.41 102.79 142.41 103.47C142.41 104.15 142.26 104.76 141.95 105.3C141.65 105.83 141.23 106.25 140.7 106.56C140.17 106.86 139.58 107.01 138.93 107.01M133.85 106.95H132.95V100.04H133.85V106.95ZM127.42 103.4H128.75C129.24 103.4 129.61 103.28 129.85 103.04C130.1 102.79 130.22 102.47 130.22 102.07C130.22 101.67 130.1 101.34 129.85 101.12C129.61 100.9 129.25 100.78 128.75 100.78H127.42V103.4ZM130.16 106.95L128.51 104.12H127.42V106.95H126.52V100.03H128.75C129.27 100.03 129.71 100.12 130.07 100.3C130.43 100.48 130.7 100.72 130.88 101.02C131.06 101.33 131.15 101.67 131.15 102.06C131.15 102.54 131.01 102.96 130.73 103.32C130.46 103.68 130.05 103.93 129.5 104.04L131.24 106.94H130.16V106.95ZM122.99 98.54L120.88 99.67V99L122.99 97.76V98.54ZM123.27 104.68L122.02 101.19L120.77 104.68H123.27ZM123.53 105.41H120.51L119.95 106.95H119L121.5 100.08H122.54L125.03 106.95H124.08L123.52 105.41H123.53ZM117.5 106.95H116.6V100.04H117.5V106.95ZM112.82 106.22H115.24V106.96H111.92V100.04H112.82V106.22ZM109.99 106.95H109.09V100.04H109.99V106.95ZM105.1 106.21C105.55 106.21 105.9 106.1 106.15 105.89C106.4 105.68 106.53 105.38 106.53 105.01C106.53 104.64 106.4 104.33 106.13 104.11C105.87 103.88 105.51 103.77 105.07 103.77H103.5V106.21H105.1ZM103.51 103.02H105.03C105.45 103.02 105.78 102.92 106.01 102.72C106.24 102.52 106.36 102.25 106.36 101.9C106.36 101.55 106.24 101.28 106.01 101.08C105.78 100.88 105.45 100.78 105.01 100.78H103.51V103.02ZM106.07 103.39C106.32 103.43 106.55 103.53 106.75 103.7C106.96 103.86 107.13 104.07 107.25 104.32C107.38 104.56 107.44 104.83 107.44 105.1C107.44 105.45 107.35 105.77 107.17 106.05C106.99 106.33 106.73 106.55 106.39 106.71C106.05 106.87 105.65 106.95 105.19 106.95H102.61V100.03H105.09C105.56 100.03 105.96 100.11 106.29 100.27C106.62 100.42 106.87 100.63 107.03 100.89C107.2 101.15 107.28 101.45 107.28 101.78C107.28 102.19 107.17 102.53 106.94 102.8C106.72 103.06 106.43 103.26 106.07 103.37M97.54 106.24C98.02 106.24 98.46 106.13 98.84 105.9C99.23 105.68 99.53 105.35 99.75 104.94C99.98 104.52 100.09 104.04 100.09 103.49C100.09 102.94 99.98 102.45 99.75 102.04C99.53 101.62 99.23 101.3 98.85 101.08C98.47 100.86 98.03 100.74 97.54 100.74C97.05 100.74 96.61 100.85 96.23 101.08C95.85 101.3 95.54 101.63 95.32 102.04C95.1 102.45 94.99 102.93 94.99 103.49C94.99 104.05 95.1 104.52 95.32 104.94C95.54 105.36 95.85 105.68 96.23 105.9C96.62 106.13 97.06 106.24 97.54 106.24ZM97.54 107.02C96.9 107.02 96.31 106.87 95.78 106.57C95.25 106.27 94.83 105.85 94.52 105.31C94.22 104.77 94.06 104.16 94.06 103.48C94.06 102.8 94.21 102.2 94.52 101.66C94.83 101.12 95.25 100.7 95.78 100.4C96.31 100.1 96.89 99.94 97.54 99.94C98.19 99.94 98.78 100.09 99.31 100.4C99.84 100.7 100.25 101.11 100.56 101.65C100.86 102.19 101.02 102.79 101.02 103.47C101.02 104.15 100.87 104.76 100.56 105.3C100.25 105.83 99.84 106.25 99.31 106.56C98.78 106.86 98.19 107.01 97.54 107.01M92.48 100.09V106.96H91.58V101.84L89.3 106.96H88.67L86.38 101.83V106.96H85.48V100.09H86.45L88.99 105.76L91.53 100.09H92.49H92.48ZM83.53 106.95H82.63V100.04H83.53V106.95ZM75.56 107.02C75.1 107.02 74.69 106.94 74.33 106.78C73.97 106.61 73.69 106.39 73.49 106.11C73.28 105.82 73.18 105.49 73.17 105.11H74.13C74.16 105.43 74.29 105.71 74.53 105.93C74.77 106.15 75.11 106.26 75.56 106.26C76.01 106.26 76.33 106.15 76.57 105.94C76.82 105.72 76.95 105.44 76.95 105.11C76.95 104.85 76.88 104.63 76.73 104.47C76.58 104.3 76.4 104.18 76.18 104.09C75.96 104 75.67 103.91 75.3 103.81C74.84 103.69 74.48 103.57 74.2 103.45C73.93 103.33 73.69 103.15 73.5 102.89C73.31 102.63 73.21 102.29 73.21 101.86C73.21 101.48 73.31 101.15 73.5 100.86C73.69 100.57 73.96 100.34 74.3 100.18C74.65 100.02 75.05 99.94 75.5 99.94C76.15 99.94 76.68 100.1 77.09 100.43C77.51 100.75 77.74 101.18 77.79 101.72H76.8C76.77 101.46 76.63 101.22 76.38 101.02C76.13 100.82 75.81 100.71 75.41 100.71C75.03 100.71 74.73 100.81 74.49 101.01C74.25 101.2 74.13 101.47 74.13 101.82C74.13 102.07 74.2 102.28 74.34 102.44C74.48 102.6 74.66 102.72 74.87 102.81C75.08 102.89 75.38 102.98 75.75 103.09C76.21 103.22 76.57 103.34 76.85 103.47C77.13 103.59 77.36 103.78 77.56 104.04C77.76 104.29 77.86 104.64 77.86 105.07C77.86 105.41 77.77 105.72 77.59 106.02C77.41 106.32 77.15 106.56 76.8 106.74C76.45 106.93 76.04 107.02 75.56 107.02ZM68.31 106.24C68.79 106.24 69.23 106.13 69.61 105.9C70 105.68 70.3 105.35 70.52 104.94C70.75 104.52 70.86 104.04 70.86 103.49C70.86 102.94 70.75 102.45 70.52 102.04C70.3 101.62 70 101.3 69.62 101.08C69.24 100.86 68.8 100.74 68.31 100.74C67.82 100.74 67.38 100.85 67 101.08C66.62 101.3 66.31 101.63 66.09 102.04C65.87 102.45 65.76 102.93 65.76 103.49C65.76 104.05 65.87 104.52 66.09 104.94C66.31 105.36 66.62 105.68 67 105.9C67.39 106.13 67.83 106.24 68.31 106.24ZM68.31 107.02C67.67 107.02 67.08 106.87 66.55 106.57C66.02 106.27 65.6 105.85 65.29 105.31C64.98 104.77 64.83 104.16 64.83 103.48C64.83 102.8 64.98 102.2 65.29 101.66C65.6 101.12 66.02 100.7 66.55 100.4C67.08 100.1 67.66 99.94 68.31 99.94C68.96 99.94 69.55 100.09 70.08 100.4C70.61 100.7 71.02 101.11 71.33 101.65C71.63 102.19 71.79 102.79 71.79 103.47C71.79 104.15 71.64 104.76 71.33 105.3C71.02 105.83 70.61 106.25 70.08 106.56C69.55 106.86 68.96 107.01 68.31 107.01M63.67 100.04V100.77H61.78V106.95H60.88V100.77H58.99V100.04H63.67ZM57.47 106.95H56.57L52.94 101.44V106.95H52.04V100.03H52.94L56.57 105.53V100.03H57.47V106.95ZM47.46 100.77V103.08H49.98V103.82H47.46V106.2H50.28V106.94H46.56V100.02H50.28V100.76H47.46V100.77ZM44.63 100.09V106.96H43.73V101.84L41.45 106.96H40.81L38.52 101.83V106.96H37.62V100.09H38.59L41.13 105.76L43.67 100.09H44.63ZM35.68 106.95H34.78V100.04H35.68V106.95ZM33.27 100.04V100.77H31.38V106.95H30.48V100.77H28.59V100.04H33.27ZM24.99 107.02C24.53 107.02 24.12 106.94 23.76 106.78C23.4 106.61 23.12 106.39 22.92 106.11C22.72 105.82 22.61 105.49 22.6 105.11H23.56C23.59 105.43 23.73 105.71 23.96 105.93C24.2 106.15 24.54 106.26 24.99 106.26C25.44 106.26 25.76 106.15 26 105.94C26.25 105.72 26.38 105.44 26.38 105.11C26.38 104.85 26.31 104.63 26.16 104.47C26.01 104.3 25.83 104.18 25.61 104.09C25.39 104 25.1 103.91 24.73 103.81C24.27 103.69 23.91 103.57 23.63 103.45C23.36 103.33 23.12 103.15 22.93 102.89C22.74 102.63 22.64 102.29 22.64 101.86C22.64 101.48 22.74 101.15 22.93 100.86C23.12 100.57 23.39 100.34 23.73 100.18C24.08 100.02 24.48 99.94 24.93 99.94C25.58 99.94 26.11 100.1 26.52 100.43C26.94 100.75 27.17 101.18 27.22 101.72H26.23C26.2 101.46 26.06 101.22 25.81 101.02C25.56 100.82 25.24 100.71 24.84 100.71C24.46 100.71 24.16 100.81 23.92 101.01C23.68 101.2 23.56 101.47 23.56 101.82C23.56 102.07 23.63 102.28 23.77 102.44C23.92 102.6 24.09 102.72 24.3 102.81C24.51 102.89 24.81 102.98 25.18 103.09C25.64 103.22 26 103.34 26.28 103.47C26.56 103.59 26.8 103.78 26.99 104.04C27.19 104.29 27.29 104.64 27.29 105.07C27.29 105.41 27.2 105.72 27.02 106.02C26.84 106.32 26.58 106.56 26.23 106.74C25.88 106.93 25.47 107.02 24.99 107.02ZM18.21 100.77V103.08H20.73V103.82H18.21V106.2H21.03V106.94H17.31V100.02H21.03V100.76H18.21V100.77ZM15.92 100.04L13.31 106.96H12.27L9.66 100.04H10.62L12.79 106L14.96 100.04H15.91H15.92ZM8.27 106.95H7.37L3.74 101.44V106.95H2.84V100.03H3.74L7.37 105.53V100.03H8.27V106.95ZM0.9 106.95H0V100.04H0.9V106.95Z" fill="var(--fill-0, #464642)"/>
</g>
<defs>
<linearGradient id="paint0_linear_0_22" x1="60.67" y1="46.93" x2="110.05" y2="46.93" gradientUnits="userSpaceOnUse">
<stop stop-color="#1F376A"/>
<stop offset="0.17" stop-color="#1F427B"/>
<stop offset="0.5" stop-color="#1F5698"/>
<stop offset="0.79" stop-color="#1F61AA"/>
<stop offset="1" stop-color="#1F66B1"/>
</linearGradient>
<linearGradient id="paint1_linear_0_22" x1="77.26" y1="21.41" x2="110.16" y2="21.41" gradientUnits="userSpaceOnUse">
<stop stop-color="#1F376A"/>
<stop offset="0.17" stop-color="#1F427B"/>
<stop offset="0.5" stop-color="#1F5698"/>
<stop offset="0.79" stop-color="#1F61AA"/>
<stop offset="1" stop-color="#1F66B1"/>
</linearGradient>
<linearGradient id="paint2_linear_0_22" x1="40.89" y1="11.52" x2="88.61" y2="23.9" gradientUnits="userSpaceOnUse">
<stop stop-color="#1F376A"/>
<stop offset="0.17" stop-color="#1F427B"/>
<stop offset="0.5" stop-color="#1F5698"/>
<stop offset="0.79" stop-color="#1F61AA"/>
<stop offset="1" stop-color="#1F66B1"/>
</linearGradient>
<linearGradient id="paint3_linear_0_22" x1="40.07" y1="39.8" x2="72.9" y2="39.8" gradientUnits="userSpaceOnUse">
<stop stop-color="#1F376A"/>
<stop offset="0.17" stop-color="#1F427B"/>
<stop offset="0.5" stop-color="#1F5698"/>
<stop offset="0.79" stop-color="#1F61AA"/>
<stop offset="1" stop-color="#1F66B1"/>
</linearGradient>
<clipPath id="clip0_0_22">
<rect width="150.24" height="107.02" fill="white"/>
</clipPath>
</defs>
</svg>
