<svg preserveAspectRatio="none" width="100%" height="100%" overflow="visible" style="display: block;" viewBox="0 0 19 24" fill="none" xmlns="http://www.w3.org/2000/svg">
<path id="Pin" d="M17.9349 5.06094C17.2279 3.68088 16.1818 2.49892 14.8928 1.62374C13.6037 0.748547 12.1132 0.208213 10.5581 0.0524088C9.85463 -0.0174696 9.14586 -0.0174696 8.44239 0.0524088C6.88734 0.208315 5.3968 0.748634 4.10774 1.62372C2.81867 2.4988 1.77242 3.68059 1.06512 5.06048C0.175225 6.82115 -0.168504 8.80315 0.077225 10.7569C0.322954 12.7106 1.14715 14.5486 2.44601 16.0394L8.77973 23.6631C8.8672 23.7684 8.97715 23.8533 9.1017 23.9115C9.22624 23.9698 9.36227 24 9.50001 24C9.63775 24 9.77378 23.9698 9.89833 23.9115C10.0229 23.8533 10.1328 23.7684 10.2203 23.6631L16.554 16.0394C17.8529 14.5487 18.677 12.7107 18.9228 10.7571C19.1685 8.80346 18.8248 6.82153 17.9349 5.06094ZM9.50001 12.9226C8.76236 12.9226 8.04128 12.706 7.42795 12.3003C6.81462 11.8946 6.33658 11.3179 6.0543 10.6432C5.77201 9.96852 5.69815 9.2261 5.84206 8.50985C5.98597 7.7936 6.34118 7.13568 6.86278 6.61929C7.38437 6.1029 8.04893 5.75123 8.7724 5.60876C9.49587 5.46629 10.2458 5.53941 10.9273 5.81888C11.6088 6.09835 12.1913 6.57161 12.6011 7.17882C13.0109 7.78603 13.2296 8.49991 13.2296 9.2302C13.2285 10.2091 12.8352 11.1476 12.136 11.8398C11.4368 12.532 10.4888 12.9214 9.50001 12.9226Z" fill="var(--fill-0, white)"/>
</svg>
