<svg preserveAspectRatio="none" width="100%" height="100%" overflow="visible" style="display: block;" viewBox="0 0 618 583" fill="none" xmlns="http://www.w3.org/2000/svg">
<g id="Layer_1" clip-path="url(#clip0_0_205)">
<path id="Vector" d="M70.2974 583C70.2974 583 70.1632 583 70.0961 583C65.7109 582.91 61.885 580.311 58.4619 575.046C46.4697 556.674 41.6594 512.693 36.5359 466.136C30.0028 406.673 23.2684 345.216 0.536963 344.297H0V321.87L0.604084 321.915C24.3647 323.842 32.4863 383.058 40.3617 440.303C46.2683 483.275 52.3539 527.727 64.9278 546.189C68.4404 551.364 72.2887 553.941 76.6515 554.075C76.7634 554.075 76.8976 554.075 77.0095 554.075C89.74 554.075 105.849 533.351 124.464 509.355C147.464 479.735 176.102 442.857 209.707 430.848C214.852 429.011 220.558 428.294 227.628 428.585C256.467 429.795 290.654 451.864 326.854 475.232C382.34 511.035 439.728 548.071 482.462 511.909C507.095 491.162 532.243 481.752 557.167 484.015C593.993 487.331 617.642 515.382 617.888 515.673L618.022 515.83V546.883L617.016 545.651C616.792 545.36 593.255 516.48 556.741 513.791C531.616 511.954 506.289 522.686 481.455 545.718C461.341 564.404 436.059 567.272 404.222 554.478C376.188 543.231 346.61 521.566 317.994 500.617C274.813 469.004 234.049 439.115 204.158 448.839C169.859 459.952 140.662 501.356 117.192 534.628C98.1524 561.626 83.0951 582.978 70.2974 582.978V583ZM1.11867 343.222C24.3647 345.082 31.1215 406.561 37.6546 466.024C42.532 510.408 47.566 556.293 59.4016 574.441C62.6233 579.37 66.136 581.813 70.1185 581.88C70.1856 581.88 70.2303 581.88 70.2974 581.88C82.5134 581.88 98.1748 559.676 116.275 534C139.834 500.595 169.166 459.033 203.822 447.786C234.25 437.905 275.238 467.95 318.665 499.721C376.59 542.133 436.462 585.98 480.716 544.912C505.775 521.655 531.415 510.811 556.853 512.693C589.608 515.113 612.026 538.325 616.904 543.814V516.278C614.98 514.06 592.024 488.317 557.077 485.18C532.444 482.984 507.609 492.282 483.222 512.805C439.862 549.505 382.117 512.245 326.272 476.218C290.206 452.939 256.154 430.96 227.605 429.75C220.67 429.459 215.121 430.153 210.109 431.946C176.818 443.843 148.291 480.564 125.381 510.072C105.827 535.255 90.3217 555.218 77.0542 555.218C76.92 555.218 76.7857 555.218 76.6515 555.218C71.886 555.061 67.7692 552.328 64.0329 546.838C51.3024 528.153 45.1944 483.567 39.2654 440.46C31.5242 384.133 23.5369 325.925 1.14105 323.08V343.177L1.11867 343.222Z" fill="var(--fill-0, #AC8136)"/>
<path id="Vector_2" d="M83.99 527.525C83.7439 527.525 83.5202 527.525 83.2741 527.525C78.1058 527.279 73.6087 524.366 69.5591 518.653C56.0903 499.676 48.9084 456.591 41.9503 414.918C32.889 360.653 23.5145 304.551 0.492216 301.773L0 301.705V279.188L0.648831 279.3C24.6108 283.154 34.8579 334.663 45.7314 389.174C53.7187 429.212 61.9521 470.617 76.0251 489.683C80.2536 495.419 84.9073 498.399 90.1875 498.735C90.5454 498.757 90.881 498.78 91.239 498.78C105.245 498.78 122.562 480.811 142.541 460.086C165.139 436.651 190.734 410.078 221.475 396.994C226.845 394.709 232.662 393.924 238.143 393.319C270.249 389.757 308.374 407.591 345.245 424.821C395.093 448.144 446.664 472.275 486.019 445.904C525.374 419.533 559.135 423.969 580.524 432.327C603.681 441.378 617.732 456.905 617.866 457.062L618 457.218V488.317L617.016 487.174C616.881 487.017 602.741 470.796 579.495 461.856C558.062 453.634 524.255 450.071 484.923 479.892C443.174 511.551 388.247 480.945 335.132 451.371C298.015 430.691 262.911 411.131 232.93 412.162C227.784 412.341 221.743 412.812 215.993 415.052C183.932 427.599 156.234 459.75 133.995 485.561C113.814 508.974 97.8168 527.57 84.0124 527.57L83.99 527.525ZM1.11867 300.697C24.6108 304.26 33.5602 357.92 43.0466 414.716C49.9823 456.255 57.1642 499.205 70.4764 517.981C74.3247 523.403 78.5309 526.159 83.3412 526.383C83.5425 526.383 83.7663 526.383 83.99 526.383C97.3022 526.383 113.948 507.07 133.167 484.754C155.496 458.832 183.283 426.591 215.613 413.932C221.497 411.624 227.672 411.131 232.908 410.952C263.291 409.966 298.417 429.526 335.692 450.295C388.493 479.713 443.084 510.117 484.274 478.906C524.054 448.749 558.285 452.379 579.988 460.736C599.989 468.443 613.324 481.483 616.926 485.292V457.577C615.405 455.941 601.802 441.759 580.099 433.29C558.979 425.045 525.598 420.676 486.668 446.778C446.776 473.507 394.937 449.242 344.798 425.784C308.083 408.6 270.115 390.855 238.3 394.372C232.908 394.977 227.18 395.739 221.945 397.98C191.427 410.997 165.899 437.48 143.369 460.826C123.211 481.729 105.737 499.855 91.2614 499.855C90.881 499.855 90.5231 499.855 90.1427 499.81C84.5046 499.429 79.5824 496.338 75.1525 490.288C60.9453 471.02 52.6671 429.481 44.6798 389.331C34.4775 338.069 23.9172 285.081 1.16342 280.466V300.675L1.11867 300.697Z" fill="var(--fill-0, #AC8136)"/>
<path id="Vector_3" d="M98.9802 472.319C98.3762 472.319 97.7721 472.297 97.168 472.23C90.9482 471.692 85.5562 468.331 80.6787 461.946C65.7109 442.409 56.3588 402.483 47.3199 363.857C35.7528 314.566 23.8054 263.572 0.447469 258.912L0 258.822V236.081L0.693578 236.238C24.9017 242.019 37.6098 288.666 51.0563 338.046C61.1243 374.97 71.528 413.125 87.0775 432.73C92.3129 439.317 98.0406 442.857 104.641 443.596C121.13 445.389 140.617 429.616 165.34 409.608C185.073 393.656 207.424 375.552 233.243 362.647C237.517 360.519 242.17 359.264 246.668 358.076L248.636 357.561C285.62 347.546 327.167 359.578 367.328 371.183C412.209 384.178 454.607 396.434 489.554 379.406C528.126 360.631 560.948 366.658 581.688 375.037C604.151 384.111 617.687 397.823 617.821 397.957L617.978 398.114V429.347L617.016 428.316C616.881 428.182 603.234 413.708 580.636 404.746C559.807 396.479 526.895 391.325 488.346 413.663C450.557 435.575 402.118 417.248 355.291 399.526C317.099 385.074 277.61 370.108 243.602 376.583L243.311 376.628C237.83 377.658 232.684 378.644 227.829 380.885C199.325 394.059 175.14 416.307 153.795 435.911C131.78 456.143 114.194 472.297 98.9802 472.297V472.319ZM1.11867 257.904C24.8793 263.236 36.3121 311.989 48.3938 363.588C57.4103 402.08 66.7401 441.893 81.5513 461.251C86.2274 467.368 91.3733 470.594 97.2575 471.11C97.7944 471.154 98.3538 471.177 98.9131 471.177C113.769 471.177 132.026 454.395 153.035 435.082C174.446 415.411 198.699 393.118 227.359 379.854C232.326 377.546 237.562 376.561 243.11 375.508L243.401 375.463C277.744 368.965 317.368 383.954 355.693 398.473C402.275 416.105 450.467 434.343 487.786 412.7C526.761 390.116 560.03 395.358 581.106 403.715C600.504 411.423 613.369 423.14 616.881 426.568V398.585C615.315 397.039 602.204 384.514 581.24 376.068C560.724 367.8 528.238 361.84 490.068 380.414C454.718 397.621 412.142 385.298 367.037 372.259C327.011 360.675 285.642 348.711 248.95 358.637L246.981 359.174C242.327 360.407 237.92 361.594 233.758 363.655C208.051 376.516 185.745 394.552 166.056 410.482C141.132 430.646 121.376 446.554 104.529 444.716C97.6378 443.955 91.6417 440.258 86.2274 433.447C70.5212 413.663 60.0728 375.373 49.9823 338.36C36.7372 289.786 24.2305 243.878 1.11867 237.515V257.904Z" fill="var(--fill-0, #AC8136)"/>
<path id="Vector_4" d="M138.85 363.857C125.381 363.857 113.523 358.704 102.873 346.605C84.9744 326.261 71.349 293.214 58.171 261.264C40.9211 219.345 24.6108 179.755 0.380349 171.264L0 171.129V147.066L0.760698 147.358C25.7071 156.992 43.3598 194.677 62.0864 234.558C76.204 264.648 90.7916 295.746 109.25 316.067C125.582 334.013 144.689 339.973 169.367 334.82C191.383 330.227 218.343 316.784 256.803 291.242C259.241 289.629 261.814 288.083 264.32 286.605C266.11 285.529 267.922 284.476 269.69 283.333C329.83 245.626 391.29 245.424 445.523 245.29C463.69 245.245 480.851 245.178 496.758 243.699C567.615 237.09 617.284 276.589 617.776 276.993L617.978 277.172V309.525L617.06 308.718C616.568 308.293 566.205 265.499 495.17 279.368C471.566 283.983 444.986 282.751 416.863 281.429C369.297 279.211 315.399 276.702 264.947 303.52C263.448 304.327 261.926 305.089 260.405 305.85C257.429 307.352 254.342 308.92 251.5 310.69L243.244 315.821C199.661 342.908 165.989 363.857 138.827 363.857H138.85ZM1.11867 170.345C25.6176 179.262 41.9503 218.897 59.2226 260.816C72.3558 292.699 85.9365 325.656 103.723 345.843C135.248 381.646 177.981 355.074 242.685 314.835L250.941 309.704C253.849 307.912 256.937 306.343 259.935 304.82C261.434 304.058 262.955 303.296 264.454 302.49C315.175 275.514 369.229 278.046 416.93 280.264C444.986 281.563 471.499 282.796 494.968 278.225C561.261 265.275 609.677 301.325 616.881 307.083V277.687C613.324 274.909 564.908 238.456 496.87 244.797C480.918 246.276 463.735 246.343 445.545 246.388C391.469 246.544 330.165 246.724 270.294 284.274C268.504 285.395 266.692 286.47 264.902 287.546C262.418 289.024 259.845 290.548 257.429 292.161C218.835 317.792 191.763 331.28 169.613 335.895C144.51 341.138 125.068 335.066 108.444 316.784C89.8519 296.351 75.2196 265.163 61.0796 235.006C42.6438 195.775 25.2373 158.672 1.11867 148.724V170.367V170.345Z" fill="var(--fill-0, #AC8136)"/>
<path id="Vector_5" d="M169.703 312.303C148.448 312.303 130.214 303.61 113.97 286.313C94.774 265.857 79.1573 236.597 64.0776 208.299C44.0981 170.793 25.2149 135.348 0.335602 124.863L0 124.729V99.1868L0.783071 99.5453C26.4007 111.263 46.7606 144.915 68.3286 180.562C97.1904 228.262 127.014 277.575 173.775 285.395C204.874 290.593 239.709 276.679 280.228 242.87C319.337 210.226 361.399 188.359 405.295 177.851C440.399 169.449 476.734 168.261 513.292 174.333C575.513 184.662 617.351 212.847 617.754 213.139L618 213.318V247.037L617.105 246.365C616.635 246.007 568.286 210.428 498.57 209.621L493.201 209.554C430.913 208.747 353.411 207.784 275.619 264.424C273.202 266.194 270.741 267.874 268.37 269.51C266.669 270.675 264.991 271.84 263.336 273.027C226.33 299.308 195.745 312.348 169.703 312.348V312.303ZM1.11867 123.967C26.177 134.788 45.0825 170.255 65.0844 207.784C80.1418 236.014 95.6913 265.208 114.798 285.551C150.462 323.528 196.059 319.383 262.709 272.064C264.365 270.876 266.065 269.734 267.766 268.546C270.137 266.911 272.576 265.23 274.992 263.483C353.076 206.641 430.801 207.605 493.246 208.411L498.615 208.478C563.498 209.24 609.99 239.957 616.926 244.797V213.878C613.413 211.548 572.627 185.289 513.091 175.409C455.904 165.931 369.207 170.076 280.988 243.699C240.179 277.755 205.053 291.735 173.618 286.47C126.365 278.561 96.3849 229.024 67.3889 181.122C46.1341 145.991 26.0427 112.809 1.11867 100.912V123.967Z" fill="var(--fill-0, #AC8136)"/>
<path id="Vector_6" d="M192.322 265.835C188.743 265.835 185.208 265.589 181.695 265.118C136.21 258.822 105.737 213.34 76.2712 169.359C51.9736 133.063 29.0184 98.7836 0.447469 93.4736L0 93.384V85.3406H0.51459C33.1351 83.1673 59.0212 118.522 86.4511 155.916C116.006 196.178 146.591 237.829 189.705 242.624C217.336 245.693 246.847 233.169 279.915 204.356C330.881 159.949 376.434 155.603 420.509 151.413C438.923 149.665 456.329 148.007 473.825 143.504C554.683 122.734 617.195 176.551 617.821 177.089L618 177.246V196.671L617.083 195.954C616.479 195.483 555.6 148.276 473.4 158.112C466.554 158.941 459.752 159.635 452.548 160.375C400.955 165.707 342.493 171.779 280.787 224.408C248.189 252.213 219.126 265.835 192.3 265.835H192.322ZM1.11867 92.4429C29.9133 98.1114 52.8909 132.413 77.2108 168.732C106.542 212.511 136.859 257.792 181.852 263.998C211.273 268.053 243.401 254.834 280.071 223.534C342.046 170.659 400.709 164.587 452.436 159.232C459.618 158.493 466.42 157.776 473.266 156.969C550.432 147.716 608.961 188.538 616.859 194.363V177.739C612.988 174.468 552.133 124.504 474.071 144.557C456.486 149.06 439.057 150.741 420.599 152.488C376.702 156.678 331.329 160.98 280.63 205.162C247.316 234.199 217.515 246.813 189.57 243.699C145.965 238.859 115.246 197.029 85.5338 156.544C58.4619 119.643 32.8443 84.7356 1.11867 86.3936V92.4654V92.4429Z" fill="var(--fill-0, #AC8136)"/>
<path id="Vector_7" d="M203.42 223.355C201.339 223.355 199.258 223.266 197.2 223.086C155.563 219.524 124.822 180.92 95.0649 143.571C64.8159 105.595 36.2226 69.7467 0.715951 80.1874L0 80.3891V74.0933L0.313229 73.9364C40.317 53.6375 71.9978 90.673 105.558 129.859C135.002 164.251 165.429 199.808 204.538 202.25C228.456 203.751 253.022 192.728 279.646 168.553C323.99 128.246 361.667 129.658 398.091 131.024C424.134 132.01 448.722 132.929 474.944 119.15C515.261 97.977 551.976 105.796 575.692 116.08C601.354 127.215 617.709 143.571 617.866 143.728L618.022 143.885V161.585L617.083 160.689C616.926 160.532 600.996 145.588 575.602 134.609C552.2 124.504 515.709 115.811 474.81 131.831C451.855 140.815 429.683 141.667 406.213 142.563C367.149 144.064 326.765 145.588 280.541 186.746C252.954 211.301 227.672 223.31 203.442 223.31L203.42 223.355ZM13.2451 77.23C43.6506 77.23 69.134 109.224 95.9374 142.877C125.538 180.024 156.144 218.449 197.289 221.966C223.086 224.162 250.068 212.399 279.78 185.939C326.317 144.512 366.903 142.966 406.168 141.465C429.526 140.569 451.609 139.74 474.385 130.8C515.641 114.624 552.468 123.407 576.072 133.601C598.132 143.145 613.1 155.67 616.904 159.031V144.355C615.136 142.63 599.318 127.529 575.2 117.088C551.73 106.917 515.373 99.1869 475.459 120.158C448.968 134.071 424.223 133.13 398.046 132.145C361.846 130.8 324.415 129.366 280.407 169.382C253.559 193.781 228.679 204.894 204.494 203.37C164.915 200.883 134.308 165.147 104.73 130.576C71.5056 91.8604 40.1604 55.2507 1.11867 74.8102V78.9328C5.25777 77.7901 9.28499 77.2524 13.2451 77.2524V77.23Z" fill="var(--fill-0, #AC8136)"/>
<path id="Vector_8" d="M214.159 184.572C213.219 184.572 212.302 184.572 211.362 184.505C173.842 182.937 143.593 149.71 114.351 117.604C78.0834 77.8349 43.852 40.2393 0.872565 70.5533L0 71.1806V66.1843L0.178988 66.0275C47.7897 23.6821 85.1758 62.5995 124.754 103.825C168.964 149.867 214.696 197.5 279.31 136.245C321.954 95.8037 356.454 103.265 389.835 110.479C418.429 116.663 445.456 122.51 476.04 98.3131C514.814 67.663 551.327 73.5331 575.11 83.8618C600.862 95.0195 617.664 113.683 617.843 113.885L617.978 114.041V130.307L617.016 129.277C616.859 129.098 600.37 111.711 574.864 100.643C551.349 90.4489 515.149 83.6826 476.085 109.381C447.022 128.493 420.733 125.244 392.923 121.816C358.58 117.559 323.051 113.168 280.228 152.936C257.25 174.266 235.615 184.662 214.136 184.662L214.159 184.572ZM32.2402 58.3202C61.8403 58.3202 87.9501 86.9761 115.179 116.864C144.287 148.814 174.379 181.839 211.429 183.407C233.512 184.371 255.774 174.064 279.489 152.04C322.693 111.935 358.468 116.349 393.08 120.651C420.711 124.056 446.798 127.283 475.503 108.395C514.993 82.4055 551.596 89.2614 575.379 99.5677C597.595 109.202 613.011 123.608 616.904 127.462V114.422C615.226 112.607 598.96 95.3556 574.685 84.8253C551.17 74.631 515.104 68.8505 476.779 99.142C445.769 123.653 418.496 117.761 389.634 111.51C356.544 104.34 322.335 96.9463 280.116 136.984C250.829 164.744 222.661 172.653 193.978 161.181C168.651 151.054 145.942 127.395 123.971 104.519C84.8178 63.8094 47.8345 25.2952 1.11867 66.6548V69.0073C11.9922 61.5465 22.3064 58.3202 32.2402 58.3202Z" fill="var(--fill-0, #AC8136)"/>
<path id="Vector_9" d="M224.428 148.769C191.002 148.769 161.917 119.777 133.48 91.4347C105.759 63.8094 79.5601 37.6852 50.2508 37.6852C49.9823 37.6852 49.7362 37.6852 49.4677 37.6852C33.068 37.9316 17.2052 46.4455 0.962059 63.6974L0 64.728V60.4935L0.134241 60.3366C18.7266 37.618 36.9833 26.0346 55.9113 24.8919C87.1447 23.0771 115.895 50.6801 143.66 77.4092C164.177 97.148 185.364 117.559 207.536 126.185C232.304 135.797 255.706 129.254 279.02 106.132C321.462 64.0558 354.485 77.7005 386.412 90.8746C416.057 103.108 444.069 114.669 477.204 79.6721C498.57 57.1103 521.615 46.1095 545.644 47.0953C587.125 48.7308 617.575 85.8335 617.866 86.192L618 86.3488V101.651L617.016 100.486C616.702 100.128 586.274 64.8176 544.682 62.2858C521.19 60.8519 498.526 70.0156 477.383 89.5527C444.874 119.575 416.952 110.837 387.419 101.562C355.224 91.4795 321.91 81.0388 279.937 121.704C259.957 141.062 241.611 148.747 224.428 148.747V148.769ZM50.2508 36.5649C80.0299 36.5649 106.386 62.8236 134.263 90.6282C176.952 133.175 221.095 177.179 279.154 120.92C321.596 79.7841 355.224 90.3369 387.732 100.509C416.952 109.672 444.583 118.321 476.622 88.7461C498.011 69.0073 520.944 59.7317 544.749 61.188C582.605 63.4957 611.288 92.6222 616.881 98.6715V86.7521C614.733 84.1755 585.223 49.7615 545.599 48.2155C521.861 47.2745 499.175 58.1409 478.032 80.4563C444.337 116.013 416.012 104.318 385.987 91.9276C354.396 78.8879 321.731 65.4001 279.803 106.939C261.993 124.594 245.325 131.584 229.462 131.584C198.318 131.584 170.307 104.609 142.899 78.2158C115.313 51.6435 86.7867 24.2422 56.0008 26.0122C37.4308 27.11 19.4649 38.5142 1.14105 60.8743V61.8826C17.2723 45.0788 33.0904 36.789 49.4677 36.5425C49.7362 36.5425 50.0047 36.5425 50.2732 36.5425L50.2508 36.5649Z" fill="var(--fill-0, #AC8136)"/>
<path id="Vector_10" d="M234.071 115.004C227.27 115.004 220.356 113.615 213.264 110.86C192.367 102.726 171.918 83.5478 152.14 64.9965C123.815 38.4242 94.5279 10.9333 62.6233 13.958C41.7265 15.9296 21.568 30.6049 1.00681 58.8351L0 60.2242V56.4826L0.0894939 56.3482C23.0447 21.5757 45.6866 3.27078 69.2459 0.402947C102.717 -3.67476 132.831 24.0626 161.962 50.9038C200.847 86.7069 237.539 120.538 278.706 77.7449C321.507 33.2262 353.836 53.1667 385.092 72.4574C415.229 91.0535 443.711 108.597 478.367 62.756C499.846 34.3689 523.137 19.9625 547.568 19.9625C547.725 19.9625 547.882 19.9625 548.038 19.9625C588.109 20.2762 617.575 59.8434 617.866 60.2466L617.978 60.4035V75.0563L616.971 73.7568C616.68 73.376 586.968 35.3995 546.718 34.5257C546.248 34.5257 545.778 34.5257 545.286 34.5257C521.861 34.5257 499.421 47.0501 478.613 71.7852C444.024 112.898 415.363 98.1559 385.025 82.562C353.859 66.52 321.641 49.9404 279.601 92.577C264.812 107.566 249.755 115.004 234.004 115.004H234.071ZM67.4784 12.6137C97.9287 12.6137 125.851 38.8051 152.9 64.1675C193.821 102.547 232.483 138.821 278.863 91.7705C321.44 48.5737 354.06 65.3326 385.584 81.5538C415.52 96.946 443.778 111.487 477.808 71.0683C498.839 46.0643 521.548 33.4055 545.331 33.4055C545.823 33.4055 546.293 33.4055 546.785 33.4055C583.411 34.1897 611.355 65.2206 616.881 71.83V60.762C614.89 58.1406 586.319 21.374 548.038 21.0827C547.882 21.0827 547.725 21.0827 547.568 21.0827C523.494 21.0827 500.517 35.3323 479.262 63.4282C443.979 110.075 415.073 92.2634 384.488 73.3984C353.613 54.3541 321.663 34.6378 279.489 78.5067C237.584 122.084 200.466 87.9168 161.178 51.7104C132.272 25.0708 102.314 -2.5097 69.3801 1.5232C46.2236 4.34622 23.8949 22.3822 1.18579 56.6843C21.5904 29.1709 41.6594 14.8093 62.5339 12.8601C64.1895 12.7033 65.8451 12.6361 67.4784 12.6361V12.6137Z" fill="var(--fill-0, #AC8136)"/>
<path id="Vector_11" d="M116.342 417.674C107.37 417.674 99.2263 413.865 91.7536 404.791C75.2867 384.783 63.7868 348.196 52.6672 312.818C38.0125 266.194 24.1633 222.168 0.402722 215.603L0 215.491V192.324L0.738325 192.548C25.2373 200.233 40.4065 242.265 56.4706 286.761C68.5971 320.369 81.1262 355.097 98.1972 375.127C123.434 404.768 156.905 383.282 203.241 353.573C216.396 345.126 229.999 336.411 245.057 327.695C248.346 325.791 251.925 324.29 255.348 322.833C256.624 322.296 257.921 321.758 259.197 321.198C303.854 301.504 351.017 307.127 396.637 312.572C431.674 316.762 464.742 320.705 493.201 312.303C565.512 290.951 617.351 337.755 617.843 338.226L618.022 338.382V369.929L617.083 369.01C616.568 368.495 564.192 318.621 491.814 347.008C459.417 359.712 421.091 351.982 380.506 343.782C338.153 335.223 294.368 326.373 254.319 340.556C253.312 340.914 252.283 341.273 251.276 341.609C247.383 342.931 243.379 344.32 239.709 346.291C218.097 357.942 198.721 371.743 181.628 383.932C155.563 402.505 134.308 417.674 116.409 417.674H116.342ZM1.11867 214.64C25.2149 221.742 39.0641 265.813 53.7411 312.46C64.8383 347.748 76.3159 384.223 92.6262 404.051C114.351 430.467 142.273 410.549 180.934 383.013C198.05 370.802 217.47 356.979 239.15 345.306C242.886 343.289 246.958 341.9 250.896 340.556C251.903 340.22 252.932 339.861 253.939 339.503C294.256 325.231 338.22 334.103 380.707 342.684C421.136 350.862 459.305 358.569 491.389 345.978C559.091 319.405 609.453 360.72 616.904 367.352V338.898C613.503 335.895 563.073 292.855 493.492 313.378C464.809 321.848 431.629 317.882 396.48 313.692C351.017 308.27 304.011 302.669 259.622 322.228C258.346 322.789 257.049 323.349 255.751 323.886C252.35 325.32 248.815 326.799 245.571 328.681C230.536 337.374 216.933 346.112 203.8 354.536C156.995 384.559 123.166 406.27 97.3022 375.888C80.1194 355.701 67.5455 320.862 55.3967 287.165C39.601 243.385 24.6779 202.003 1.11867 193.87V214.64Z" fill="var(--fill-0, #AC8136)"/>
</g>
<defs>
<clipPath id="clip0_0_205">
<rect width="618" height="583" fill="white"/>
</clipPath>
</defs>
</svg>
