<svg preserveAspectRatio="none" width="100%" height="100%" overflow="visible" style="display: block;" viewBox="0 0 22 22" fill="none" xmlns="http://www.w3.org/2000/svg">
<path id="Vector" d="M6.44425 0.0781494C5.27351 0.133147 4.47443 0.32014 3.77591 0.594345C3.05305 0.876406 2.44018 1.25432 1.82967 1.86637C1.21994 2.47842 0.844365 3.09204 0.564646 3.81565C0.29357 4.5157 0.110495 5.31553 0.0586371 6.48698C0.00677913 7.65765 -0.00422102 8.03478 0.00127907 11.0212C0.00677916 14.0076 0.0201365 14.3823 0.0767089 15.5561C0.132496 16.726 0.318713 17.5251 0.592932 18.2243C0.875008 18.9472 1.25294 19.56 1.86503 20.1705C2.47711 20.7802 3.08997 21.1549 3.81599 21.4354C4.51528 21.7057 5.31594 21.8903 6.48667 21.9414C7.65741 21.9925 8.03456 22.0043 11.0211 21.9988C14.0077 21.9933 14.3832 21.9799 15.5571 21.9241C16.731 21.8683 17.5254 21.6813 18.2247 21.4079C18.9475 21.1251 19.5612 20.748 20.1709 20.1351C20.7806 19.5223 21.1562 18.9087 21.4351 18.1843C21.7062 17.485 21.8901 16.6844 21.9412 15.5145C21.9922 14.3407 22.0048 13.9659 21.9985 10.9787C21.9922 7.99157 21.9797 7.61758 21.9239 6.44456C21.8681 5.27153 21.6819 4.47484 21.4076 3.77558C21.1248 3.05275 20.7476 2.43992 20.1356 1.82944C19.5235 1.21896 18.909 0.844192 18.1846 0.565274C17.4845 0.294213 16.6846 0.109577 15.5139 0.0592928C14.3432 0.00900896 13.966 -0.00434759 10.9787 0.00115221C7.99134 0.006652 7.61734 0.0200086 6.44425 0.0765779M6.57311 19.9615C5.50059 19.9151 4.91836 19.7368 4.53021 19.5875C4.01635 19.3895 3.6502 19.1499 3.26362 18.7672C2.87704 18.3846 2.63897 18.0169 2.43861 17.5039C2.28775 17.1157 2.10624 16.5343 2.05596 15.4619C2.00174 14.303 1.98996 13.9549 1.98367 11.018C1.97738 8.08114 1.98838 7.73387 2.03946 6.57419C2.08503 5.50252 2.26417 4.91954 2.41346 4.53141C2.61147 4.01679 2.85033 3.65145 3.23376 3.26489C3.6172 2.87833 3.98413 2.64027 4.49721 2.43992C4.88458 2.28828 5.4668 2.10836 6.53853 2.05729C7.69827 2.00229 8.04634 1.99129 10.9826 1.98501C13.9189 1.97872 14.2677 1.98972 15.4283 2.04079C16.5 2.08715 17.083 2.26471 17.4704 2.41478C17.9842 2.61277 18.3504 2.85083 18.737 3.23503C19.1235 3.61923 19.3616 3.98458 19.5628 4.4992C19.7144 4.88576 19.8943 5.46716 19.9446 6.53962C19.9996 7.6993 20.0122 8.04735 20.0177 10.9835C20.0232 13.9196 20.013 14.2684 19.9619 15.4273C19.9148 16.4998 19.7372 17.0819 19.5879 17.4709C19.3899 17.9847 19.151 18.3508 18.7668 18.7374C18.3826 19.1239 18.0164 19.362 17.5034 19.5624C17.116 19.7132 16.5338 19.8939 15.4628 19.945C14.3031 19.9992 13.955 20.011 11.018 20.0173C8.08092 20.0236 7.73284 20.0118 6.57311 19.9615ZM15.5406 5.12146C15.5422 5.85058 16.1338 6.44063 16.863 6.43906C17.5921 6.43749 18.1822 5.84586 18.1807 5.11675C18.1791 4.38763 17.5874 3.79758 16.8583 3.79915C16.1291 3.80073 15.5398 4.39235 15.5406 5.12146ZM5.35208 11.011C5.35837 14.1301 7.89156 16.6538 11.0109 16.6475C14.1302 16.6412 16.6548 14.1081 16.6493 10.989C16.643 7.86979 14.109 5.34538 10.9897 5.35167C7.87034 5.35795 5.3458 7.89179 5.35208 11.011ZM7.33448 11.007C7.33055 8.98232 8.96879 7.33709 10.9944 7.33317C13.0192 7.32924 14.6645 8.96739 14.6685 10.9929C14.6724 13.0176 13.0341 14.6628 11.0085 14.6668C8.98372 14.6707 7.3384 13.0333 7.33448 11.0086" fill="var(--fill-0, white)"/>
</svg>
