<svg width="501" height="438" viewBox="0 0 501 438" fill="none" xmlns="http://www.w3.org/2000/svg">
<path d="M186.327 232.404C253.966 285.488 316.611 343.066 400.803 372.177C410.863 375.673 430.983 381.595 440.687 376.743C444.897 363.758 391.741 287.129 381.824 272.003C392.954 258.874 406.939 245.603 419.282 233.403C440.687 255.45 453.387 277.068 469.869 302.754C485.351 327.512 498.052 348.061 499.336 377.885C500.692 411.704 471.938 439.887 438.404 437.033C339.728 428.614 214.439 337.144 147.014 270.79L186.327 232.546V232.404Z" fill="url(#paint0_linear_4203_26)"/>
<path d="M426.346 0.446474C470.44 -3.76312 509.04 24.6338 498.266 70.3686C478.573 153.99 380.468 255.805 312.901 305.464C299.844 297.758 278.439 281.919 265.311 272.786C286.93 254.806 308.12 236.184 328.669 216.991C355.068 192.447 379.398 165.62 401.302 137.009C411.933 122.882 443.47 76.7187 441.115 60.023L436.906 57.4544C408.509 54.2437 340.584 92.5582 314.613 106.471C303.554 99.9785 279.01 80.0721 267.808 71.3675C319.322 36.121 365.128 11.6483 426.346 0.446474Z" fill="url(#paint1_linear_4203_26)"/>
<path d="M52.762 0.234164C54.7598 0.0914658 56.6862 0.0201167 58.684 0.0201167C147.086 -1.69226 290.783 106.33 352.5 165.764L312.758 204.293C271.09 168.547 237.414 140.935 190.751 110.897C169.703 97.8398 80.6595 46.183 58.2559 59.882C57.5424 75.3648 106.987 148.712 119.188 163.196C105.988 176.324 91.9327 189.238 78.3763 201.938C63.6071 184.315 52.0485 163.196 38.4208 144.93C3.88785 98.6246 -31.5013 17.4293 52.762 0.234164Z" fill="url(#paint2_linear_4203_26)"/>
<path d="M186.97 131.874C202.88 141.078 219.219 153.207 234.345 163.981C170.773 217.278 102.492 278.71 65.462 354.411C61.3951 362.759 53.6181 372.962 62.18 379.17C90.5769 382.309 159.5 344.351 185.543 329.796C200.241 339.999 218.221 354.625 232.704 365.756L214.51 377.529C168.062 405.426 107.415 439.745 51.2635 435.749C19.0137 433.466 -5.95845 403.5 1.24782 371.535C21.2256 282.634 116.976 183.744 186.97 131.874Z" fill="url(#paint3_linear_4203_26)"/>
<defs>
<linearGradient id="paint0_linear_4203_26" x1="147.014" y1="334.79" x2="499.336" y2="334.79" gradientUnits="userSpaceOnUse">
<stop stop-color="#1F376A"/>
<stop offset="0.17" stop-color="#1F427B"/>
<stop offset="0.5" stop-color="#1F5698"/>
<stop offset="0.79" stop-color="#1F61AA"/>
<stop offset="1" stop-color="#1F66B1"/>
</linearGradient>
<linearGradient id="paint1_linear_4203_26" x1="265.382" y1="152.706" x2="500.121" y2="152.706" gradientUnits="userSpaceOnUse">
<stop stop-color="#1F376A"/>
<stop offset="0.17" stop-color="#1F427B"/>
<stop offset="0.5" stop-color="#1F5698"/>
<stop offset="0.79" stop-color="#1F61AA"/>
<stop offset="1" stop-color="#1F66B1"/>
</linearGradient>
<linearGradient id="paint2_linear_4203_26" x1="5.88561" y1="82.143" x2="346.364" y2="170.473" gradientUnits="userSpaceOnUse">
<stop stop-color="#1F376A"/>
<stop offset="0.17" stop-color="#1F427B"/>
<stop offset="0.5" stop-color="#1F5698"/>
<stop offset="0.79" stop-color="#1F61AA"/>
<stop offset="1" stop-color="#1F66B1"/>
</linearGradient>
<linearGradient id="paint3_linear_4203_26" x1="0.0348793" y1="283.919" x2="234.274" y2="283.919" gradientUnits="userSpaceOnUse">
<stop stop-color="#1F376A"/>
<stop offset="0.17" stop-color="#1F427B"/>
<stop offset="0.5" stop-color="#1F5698"/>
<stop offset="0.79" stop-color="#1F61AA"/>
<stop offset="1" stop-color="#1F66B1"/>
</linearGradient>
</defs>
</svg>
