<svg preserveAspectRatio="none" width="100%" height="100%" overflow="visible" style="display: block;" viewBox="0 0 32 32" fill="none" xmlns="http://www.w3.org/2000/svg">
<g id="dumbbell">
<path id="Vector" d="M3.33446 28.6648L5.201 26.7983M26.7996 5.20093L28.6661 3.33445M12.8006 19.1991L19.2001 12.7997M23.4609 17.0235C23.9611 17.5236 24.6394 17.8046 25.3468 17.8046C26.0541 17.8046 26.7325 17.5236 27.2326 17.0235C27.7328 16.5233 28.0138 15.845 28.0138 15.1377C28.0138 14.4303 27.7328 13.752 27.2326 13.2518L24.8755 10.8961C25.3756 11.396 26.0539 11.6769 26.7611 11.6767C27.1113 11.6767 27.458 11.6076 27.7815 11.4736C28.105 11.3395 28.399 11.1431 28.6465 10.8954C28.8941 10.6478 29.0905 10.3538 29.2244 10.0302C29.3584 9.7067 29.4273 9.35995 29.4272 9.00978C29.4271 8.65961 29.3581 8.31289 29.224 7.9894C29.09 7.66591 28.8935 7.37199 28.6459 7.12443L24.8755 3.35413C24.3755 2.85398 23.6973 2.57292 22.9901 2.5728C22.2829 2.57267 21.6046 2.85349 21.1044 3.35346C20.6042 3.85343 20.3232 4.53161 20.323 5.23881C20.3229 5.946 20.6037 6.62428 21.1037 7.12443L18.7479 4.76733C18.5002 4.51968 18.2062 4.32323 17.8827 4.1892C17.5591 4.05518 17.2123 3.98619 16.862 3.98619C16.5118 3.98619 16.165 4.05518 15.8414 4.1892C15.5178 4.32323 15.2238 4.51968 14.9762 4.76733C14.7285 5.01497 14.5321 5.30898 14.398 5.63255C14.264 5.95612 14.195 6.30292 14.195 6.65314C14.195 7.00337 14.264 7.35017 14.398 7.67374C14.5321 7.99731 14.7285 8.29131 14.9762 8.53896L23.4609 17.0235ZM7.12454 28.6459C7.62453 29.146 8.30273 29.4271 9.00994 29.4272C9.36011 29.4273 9.70687 29.3584 10.0304 29.2244C10.354 29.0905 10.648 28.8941 10.8956 28.6465C11.1433 28.399 11.3397 28.1051 11.4738 27.7816C11.6079 27.4581 11.6769 27.1114 11.677 26.7612C11.677 26.411 11.6081 26.0643 11.4742 25.7407C11.3402 25.4172 11.1438 25.1232 10.8963 24.8756L13.2521 27.2327C13.7523 27.7328 14.4306 28.0138 15.138 28.0138C15.8453 28.0138 16.5237 27.7328 17.0238 27.2327C17.524 26.7325 17.805 26.0542 17.805 25.3469C17.805 24.6395 17.524 23.9612 17.0238 23.461L8.53911 14.9765C8.29145 14.7289 7.99744 14.5324 7.67387 14.3984C7.35029 14.2644 7.00348 14.1954 6.65324 14.1954C6.30301 14.1954 5.9562 14.2644 5.63262 14.3984C5.30904 14.5324 5.01503 14.7289 4.76738 14.9765C4.51972 15.2242 4.32327 15.5182 4.18924 15.8417C4.05521 16.1653 3.98623 16.5121 3.98623 16.8623C3.98623 17.2126 4.05521 17.5594 4.18924 17.8829C4.32327 18.2065 4.51972 18.5005 4.76738 18.7482L7.12454 21.1039C6.62438 20.604 5.94608 20.3231 5.23887 20.3233C4.53166 20.3234 3.85347 20.6044 3.35348 21.1046C2.85349 21.6047 2.57267 22.283 2.5728 22.9902C2.57292 23.6974 2.85398 24.3756 3.35415 24.8756L7.12454 28.6459Z" stroke="var(--stroke-0, #C49A44)" stroke-width="2" stroke-linecap="round"/>
</g>
</svg>
