<svg preserveAspectRatio="none" width="100%" height="100%" overflow="visible" style="display: block;" viewBox="0 0 15.5876 15.5876" fill="none" xmlns="http://www.w3.org/2000/svg">
<g id="Group">
<path id="Vector" d="M12.7296 0C14.2572 0 15.5042 1.19791 15.5837 2.70601L15.5876 2.85799V12.7296C15.5876 14.2572 14.3897 15.5042 12.8816 15.5837L12.7296 15.5876H2.85799C2.12629 15.5877 1.42244 15.3071 0.89146 14.8036C0.360477 14.3002 0.0428067 13.6123 0.003897 12.8816L0 12.7296V2.85799C0 1.3304 1.19791 0.0833939 2.70601 0.003897L2.85799 0H12.7296ZM10.683 5.68403C10.5368 5.53792 10.3386 5.45584 10.132 5.45584C9.92529 5.45584 9.72709 5.53792 9.58094 5.68403L7.01443 8.24975L6.00669 7.24279L5.93343 7.1781C5.77678 7.05698 5.5799 7.00002 5.38278 7.0188C5.18565 7.03758 5.00307 7.13068 4.87211 7.27921C4.74114 7.42773 4.67163 7.62053 4.67767 7.81846C4.68371 8.01638 4.76487 8.20458 4.90465 8.34484L6.46341 9.9036L6.53667 9.96829C6.68663 10.0846 6.87388 10.1422 7.06329 10.1303C7.2527 10.1184 7.43125 10.0378 7.56546 9.9036L10.683 6.78607L10.7477 6.71281C10.864 6.56286 10.9216 6.37561 10.9097 6.1862C10.8978 5.99679 10.8172 5.81823 10.683 5.68403Z" fill="var(--fill-0, #06BE2E)"/>
</g>
</svg>
