<svg preserveAspectRatio="none" width="100%" height="100%" overflow="visible" style="display: block;" viewBox="0 0 182 44" fill="none" xmlns="http://www.w3.org/2000/svg">
<g id="Layer_1" clip-path="url(#clip0_0_161)">
<g id="Group">
<path id="Vector" d="M70.1108 41.3014L70.291 41.605C70.3553 41.5797 70.4239 41.5544 70.484 41.5249C70.7756 41.3815 71.0072 41.1833 71.1788 40.9303C71.3503 40.6773 71.4361 40.3906 71.4361 40.0659C71.4361 39.7413 71.3589 39.4503 71.2002 39.2015C71.0415 38.9485 70.8228 38.7546 70.544 38.6112C70.2652 38.4678 69.9436 38.4004 69.579 38.4004H67.7562V43.9072H68.4382V41.7441H69.4932C69.5404 41.7441 69.5833 41.7399 69.6262 41.7357L69.5747 41.6471L70.1108 41.3014ZM68.4382 41.1285V39.0034H69.5662C69.9178 39.0034 70.2052 39.1003 70.4282 39.2985C70.6513 39.4967 70.7585 39.7497 70.7585 40.0659C70.7585 40.2683 70.707 40.4539 70.6084 40.6141C70.5097 40.7743 70.381 40.9008 70.2224 40.9936C70.0637 41.0863 69.8792 41.1327 69.6777 41.1327H68.4382V41.1285Z" fill="var(--fill-0, #999999)"/>
<path id="Vector_2" d="M69.6262 41.7357L70.9172 43.9072H71.6634L70.2953 41.6092C70.0894 41.6851 69.8664 41.7273 69.6305 41.7399L69.6262 41.7357Z" fill="var(--fill-0, #999999)"/>
<path id="Vector_3" d="M70.1109 41.3014L69.5747 41.6471L69.6262 41.7357C69.8664 41.723 70.0851 41.6809 70.291 41.605L70.1109 41.3014Z" fill="var(--fill-0, #999999)"/>
<path id="Vector_4" d="M76.4456 41.3815H78.8474V40.7828H76.4456V39.0076H79.079V38.4004H75.7679V43.9072H79.0961V43.3H76.4456V41.3815Z" fill="var(--fill-0, #999999)"/>
<path id="Vector_5" d="M85.5767 40.8713L84.9591 40.7237C84.6931 40.6605 84.4744 40.5635 84.3114 40.4286C84.1485 40.2936 84.0627 40.1039 84.0627 39.8509C84.0627 39.5557 84.1656 39.3238 84.3801 39.1552C84.5902 38.9865 84.8733 38.8979 85.2336 38.8979C85.5938 38.8979 85.864 38.9738 86.1042 39.1214C86.3444 39.269 86.5159 39.4756 86.6146 39.737L87.2536 39.5178C87.185 39.3069 87.0649 39.113 86.8976 38.9317C86.7304 38.7504 86.5116 38.6028 86.2457 38.4847C85.9798 38.3666 85.6624 38.3076 85.2936 38.3076C84.676 38.3076 84.1999 38.4468 83.874 38.7293C83.5437 39.0118 83.3807 39.3997 83.3807 39.8973C83.3807 40.1629 83.4451 40.3948 83.5695 40.5846C83.6938 40.7743 83.8611 40.9345 84.0755 41.0568C84.2857 41.1791 84.5173 41.2719 84.7661 41.3351L85.3837 41.4911C85.7396 41.5797 86.027 41.7062 86.2457 41.8664C86.4645 42.0266 86.576 42.2333 86.576 42.4905C86.576 42.7688 86.4516 42.9922 86.2071 43.1609C85.9627 43.3296 85.6238 43.4139 85.1907 43.4139C84.839 43.4139 84.543 43.3296 84.2986 43.1567C84.0541 42.988 83.8954 42.7856 83.8139 42.5537L83.1663 42.773C83.2178 42.9374 83.3035 43.0892 83.4151 43.2326C83.5266 43.3759 83.6724 43.5067 83.8482 43.6247C84.0241 43.7428 84.2342 43.8356 84.4744 43.8988C84.7146 43.9621 84.9891 43.9958 85.2979 43.9958C85.7311 43.9958 86.0913 43.9241 86.383 43.7892C86.6746 43.6542 86.8934 43.4603 87.0435 43.2241C87.1936 42.9838 87.2665 42.7224 87.2665 42.4356C87.2665 42.0983 87.1207 41.7863 86.829 41.4954C86.5374 41.2044 86.1214 40.9978 85.5767 40.8713Z" fill="var(--fill-0, #999999)"/>
<path id="Vector_6" d="M92.1001 38.4004H91.4182V43.9072H92.1001V38.4004Z" fill="var(--fill-0, #999999)"/>
<path id="Vector_7" d="M99.6872 38.7504C99.284 38.5184 98.8208 38.4004 98.289 38.4004H96.5863V43.9072H98.289C98.8165 43.9072 99.284 43.7892 99.6872 43.553C100.09 43.3169 100.408 42.9922 100.635 42.579C100.862 42.1658 100.978 41.6893 100.978 41.1538C100.978 40.6183 100.862 40.1376 100.635 39.7202C100.403 39.3069 100.09 38.9823 99.6872 38.7504ZM100.142 41.9845C100.039 42.2459 99.8931 42.4736 99.7086 42.6718C99.5242 42.87 99.3141 43.026 99.0739 43.1314C98.8337 43.241 98.5721 43.2916 98.289 43.2916H97.264V39.0118H98.289C98.5721 39.0118 98.8337 39.0666 99.0739 39.172C99.3141 39.2816 99.5242 39.4334 99.7086 39.6316C99.8931 39.8298 100.039 40.0617 100.142 40.3189C100.245 40.5804 100.296 40.8544 100.296 41.1496C100.296 41.4448 100.245 41.7188 100.142 41.9803V41.9845Z" fill="var(--fill-0, #999999)"/>
<path id="Vector_8" d="M105.773 41.3815H108.171V40.7828H105.773V39.0076H108.402V38.4004H105.091V43.9072H108.419V43.3H105.773V41.3815Z" fill="var(--fill-0, #999999)"/>
<path id="Vector_9" d="M116.856 42.8194L113.519 38.4004H112.828V43.9072H113.51V39.463L116.856 43.9072H117.533V38.4004H116.856V42.8194Z" fill="var(--fill-0, #999999)"/>
<path id="Vector_10" d="M125.729 42.8362C125.545 43.0133 125.339 43.1567 125.108 43.2579C124.876 43.3591 124.636 43.4097 124.378 43.4097C123.984 43.4097 123.632 43.3127 123.319 43.1229C123.006 42.9332 122.762 42.6676 122.586 42.326C122.41 41.9845 122.32 41.5923 122.32 41.1538C122.32 40.7153 122.406 40.3274 122.581 39.99C122.753 39.6527 122.997 39.3913 123.306 39.2015C123.615 39.0118 123.967 38.9148 124.353 38.9148C124.601 38.9148 124.842 38.9612 125.073 39.054C125.305 39.1467 125.511 39.2732 125.699 39.4334C125.884 39.5979 126.034 39.7876 126.141 40.0069L126.724 39.716C126.592 39.4377 126.403 39.1931 126.158 38.9823C125.914 38.7714 125.635 38.6028 125.326 38.4847C125.018 38.3666 124.696 38.3076 124.357 38.3076C123.829 38.3076 123.362 38.4299 122.955 38.6745C122.547 38.919 122.225 39.2521 121.994 39.6822C121.762 40.1123 121.646 40.6014 121.646 41.158C121.646 41.7146 121.762 42.2037 121.998 42.6338C122.234 43.0597 122.556 43.397 122.967 43.6416C123.379 43.8862 123.851 44.0084 124.383 44.0084C124.717 44.0084 125.043 43.9452 125.356 43.8187C125.669 43.6922 125.944 43.5151 126.188 43.2916C126.433 43.0639 126.622 42.8109 126.759 42.52L126.167 42.229C126.06 42.4609 125.914 42.6633 125.729 42.8447V42.8362Z" fill="var(--fill-0, #999999)"/>
<path id="Vector_11" d="M131.472 38.4004H130.79V43.9072H131.472V38.4004Z" fill="var(--fill-0, #999999)"/>
<path id="Vector_12" d="M139.48 41.7441H138.956L139.201 42.3429H139.48V41.7441Z" fill="var(--fill-0, #999999)"/>
<path id="Vector_13" d="M138.257 38.4004L137.927 39.2142L138.956 41.7441H139.48V42.3429H139.201L139.84 43.9072H140.552L138.275 38.4004H138.257Z" fill="var(--fill-0, #999999)"/>
<path id="Vector_14" d="M138.257 38.4004H137.593L137.927 39.2142L138.257 38.4004Z" fill="var(--fill-0, #999999)"/>
<path id="Vector_15" d="M136.37 41.7441H136.894L137.927 39.2142L137.593 38.4004H137.571L135.289 43.9072H136.01L136.649 42.3429H136.37V41.7441Z" fill="var(--fill-0, #999999)"/>
<path id="Vector_16" d="M136.894 41.7441L136.649 42.3429H139.201L138.956 41.7441H136.894Z" fill="var(--fill-0, #999999)"/>
<path id="Vector_17" d="M136.37 41.7441V42.3429H136.649L136.894 41.7441H136.37Z" fill="var(--fill-0, #999999)"/>
<path id="Vector_18" d="M145.06 38.4004H144.378V43.9072H147.697V43.3H145.06V38.4004Z" fill="var(--fill-0, #999999)"/>
<path id="Vector_19" d="M70.1108 41.3014L70.291 41.605C70.3553 41.5797 70.4239 41.5544 70.484 41.5249C70.7756 41.3815 71.0072 41.1833 71.1788 40.9303C71.3503 40.6773 71.4361 40.3906 71.4361 40.0659C71.4361 39.7413 71.3589 39.4503 71.2002 39.2015C71.0415 38.9485 70.8228 38.7546 70.544 38.6112C70.2652 38.4678 69.9436 38.4004 69.579 38.4004H67.7562V43.9072H68.4382V41.7441H69.4932C69.5404 41.7441 69.5833 41.7399 69.6262 41.7357L69.5747 41.6471L70.1108 41.3014ZM68.4382 41.1285V39.0034H69.5662C69.9178 39.0034 70.2052 39.1003 70.4282 39.2985C70.6513 39.4967 70.7585 39.7497 70.7585 40.0659C70.7585 40.2683 70.707 40.4539 70.6084 40.6141C70.5097 40.7743 70.381 40.9008 70.2224 40.9936C70.0637 41.0863 69.8792 41.1327 69.6777 41.1327H68.4382V41.1285Z" fill="var(--fill-0, #999999)"/>
<path id="Vector_20" d="M69.6262 41.7357L70.9172 43.9072H71.6634L70.2953 41.6092C70.0894 41.6851 69.8664 41.7273 69.6305 41.7399L69.6262 41.7357Z" fill="var(--fill-0, #999999)"/>
<path id="Vector_21" d="M70.1109 41.3014L69.5747 41.6471L69.6262 41.7357C69.8664 41.723 70.0851 41.6809 70.291 41.605L70.1109 41.3014Z" fill="var(--fill-0, #999999)"/>
<path id="Vector_22" d="M76.4456 41.3815H78.8474V40.7828H76.4456V39.0076H79.079V38.4004H75.7679V43.9072H79.0961V43.3H76.4456V41.3815Z" fill="var(--fill-0, #999999)"/>
<path id="Vector_23" d="M85.5767 40.8713L84.9591 40.7237C84.6931 40.6605 84.4744 40.5635 84.3114 40.4286C84.1485 40.2936 84.0627 40.1039 84.0627 39.8509C84.0627 39.5557 84.1656 39.3238 84.3801 39.1552C84.5902 38.9865 84.8733 38.8979 85.2336 38.8979C85.5938 38.8979 85.864 38.9738 86.1042 39.1214C86.3444 39.269 86.5159 39.4756 86.6146 39.737L87.2536 39.5178C87.185 39.3069 87.0649 39.113 86.8976 38.9317C86.7304 38.7504 86.5116 38.6028 86.2457 38.4847C85.9798 38.3666 85.6624 38.3076 85.2936 38.3076C84.676 38.3076 84.1999 38.4468 83.874 38.7293C83.5437 39.0118 83.3807 39.3997 83.3807 39.8973C83.3807 40.1629 83.4451 40.3948 83.5695 40.5846C83.6938 40.7743 83.8611 40.9345 84.0755 41.0568C84.2857 41.1791 84.5173 41.2719 84.7661 41.3351L85.3837 41.4911C85.7396 41.5797 86.027 41.7062 86.2457 41.8664C86.4645 42.0266 86.576 42.2333 86.576 42.4905C86.576 42.7688 86.4516 42.9922 86.2071 43.1609C85.9627 43.3296 85.6238 43.4139 85.1907 43.4139C84.839 43.4139 84.543 43.3296 84.2986 43.1567C84.0541 42.988 83.8954 42.7856 83.8139 42.5537L83.1663 42.773C83.2178 42.9374 83.3035 43.0892 83.4151 43.2326C83.5266 43.3759 83.6724 43.5067 83.8482 43.6247C84.0241 43.7428 84.2342 43.8356 84.4744 43.8988C84.7146 43.9621 84.9891 43.9958 85.2979 43.9958C85.7311 43.9958 86.0913 43.9241 86.383 43.7892C86.6746 43.6542 86.8934 43.4603 87.0435 43.2241C87.1936 42.9838 87.2665 42.7224 87.2665 42.4356C87.2665 42.0983 87.1207 41.7863 86.829 41.4954C86.5374 41.2044 86.1214 40.9978 85.5767 40.8713Z" fill="var(--fill-0, #999999)"/>
<path id="Vector_24" d="M92.1001 38.4004H91.4182V43.9072H92.1001V38.4004Z" fill="var(--fill-0, #999999)"/>
<path id="Vector_25" d="M99.6872 38.7504C99.284 38.5184 98.8208 38.4004 98.289 38.4004H96.5863V43.9072H98.289C98.8165 43.9072 99.284 43.7892 99.6872 43.553C100.09 43.3169 100.408 42.9922 100.635 42.579C100.862 42.1658 100.978 41.6893 100.978 41.1538C100.978 40.6183 100.862 40.1376 100.635 39.7202C100.403 39.3069 100.09 38.9823 99.6872 38.7504ZM100.142 41.9845C100.039 42.2459 99.8931 42.4736 99.7086 42.6718C99.5242 42.87 99.3141 43.026 99.0739 43.1314C98.8337 43.241 98.5721 43.2916 98.289 43.2916H97.264V39.0118H98.289C98.5721 39.0118 98.8337 39.0666 99.0739 39.172C99.3141 39.2816 99.5242 39.4334 99.7086 39.6316C99.8931 39.8298 100.039 40.0617 100.142 40.3189C100.245 40.5804 100.296 40.8544 100.296 41.1496C100.296 41.4448 100.245 41.7188 100.142 41.9803V41.9845Z" fill="var(--fill-0, #999999)"/>
<path id="Vector_26" d="M105.773 41.3815H108.171V40.7828H105.773V39.0076H108.402V38.4004H105.091V43.9072H108.419V43.3H105.773V41.3815Z" fill="var(--fill-0, #999999)"/>
<path id="Vector_27" d="M116.856 42.8194L113.519 38.4004H112.828V43.9072H113.51V39.463L116.856 43.9072H117.533V38.4004H116.856V42.8194Z" fill="var(--fill-0, #999999)"/>
<path id="Vector_28" d="M125.729 42.8362C125.545 43.0133 125.339 43.1567 125.108 43.2579C124.876 43.3591 124.636 43.4097 124.378 43.4097C123.984 43.4097 123.632 43.3127 123.319 43.1229C123.006 42.9332 122.762 42.6676 122.586 42.326C122.41 41.9845 122.32 41.5923 122.32 41.1538C122.32 40.7153 122.406 40.3274 122.581 39.99C122.753 39.6527 122.997 39.3913 123.306 39.2015C123.615 39.0118 123.967 38.9148 124.353 38.9148C124.601 38.9148 124.842 38.9612 125.073 39.054C125.305 39.1467 125.511 39.2732 125.699 39.4334C125.884 39.5979 126.034 39.7876 126.141 40.0069L126.724 39.716C126.592 39.4377 126.403 39.1931 126.158 38.9823C125.914 38.7714 125.635 38.6028 125.326 38.4847C125.018 38.3666 124.696 38.3076 124.357 38.3076C123.829 38.3076 123.362 38.4299 122.955 38.6745C122.547 38.919 122.225 39.2521 121.994 39.6822C121.762 40.1123 121.646 40.6014 121.646 41.158C121.646 41.7146 121.762 42.2037 121.998 42.6338C122.234 43.0597 122.556 43.397 122.967 43.6416C123.379 43.8862 123.851 44.0084 124.383 44.0084C124.717 44.0084 125.043 43.9452 125.356 43.8187C125.669 43.6922 125.944 43.5151 126.188 43.2916C126.433 43.0639 126.622 42.8109 126.759 42.52L126.167 42.229C126.06 42.4609 125.914 42.6633 125.729 42.8447V42.8362Z" fill="var(--fill-0, #999999)"/>
<path id="Vector_29" d="M131.472 38.4004H130.79V43.9072H131.472V38.4004Z" fill="var(--fill-0, #999999)"/>
<path id="Vector_30" d="M139.48 41.7441H138.956L139.201 42.3429H139.48V41.7441Z" fill="var(--fill-0, #999999)"/>
<path id="Vector_31" d="M138.257 38.4004L137.927 39.2142L138.956 41.7441H139.48V42.3429H139.201L139.84 43.9072H140.552L138.275 38.4004H138.257Z" fill="var(--fill-0, #999999)"/>
<path id="Vector_32" d="M138.257 38.4004H137.593L137.927 39.2142L138.257 38.4004Z" fill="var(--fill-0, #999999)"/>
<path id="Vector_33" d="M136.37 41.7441H136.894L137.927 39.2142L137.593 38.4004H137.571L135.289 43.9072H136.01L136.649 42.3429H136.37V41.7441Z" fill="var(--fill-0, #999999)"/>
<path id="Vector_34" d="M136.894 41.7441L136.649 42.3429H139.201L138.956 41.7441H136.894Z" fill="var(--fill-0, #999999)"/>
<path id="Vector_35" d="M136.37 41.7441V42.3429H136.649L136.894 41.7441H136.37Z" fill="var(--fill-0, #999999)"/>
<path id="Vector_36" d="M145.06 38.4004H144.378V43.9072H147.697V43.3H145.06V38.4004Z" fill="var(--fill-0, #999999)"/>
</g>
<path id="Vector_37" d="M50.0001 16.5459C49.983 18.1229 48.7864 19.4131 47.7742 18.9409C48.7864 19.4131 49.983 21.8081 50.0001 23.3851C49.983 21.8081 51.1453 19.4131 52.1575 18.9409C51.1453 19.4131 49.983 18.1229 50.0001 16.5459Z" fill="var(--fill-0, #B2A054)"/>
<path id="Vector_38" d="M67.1301 20.948C67.1558 23.1279 66.9456 25.2067 66.5125 27.1632C65.6375 25.9868 63.6046 25.076 63.6046 25.076C63.7718 23.7984 63.8619 22.4322 63.8405 20.9564C63.7547 14.1719 59.543 4.61294 50.4419 4.61294C41.3408 4.61294 37.0776 12.4684 37.0776 19.7715C37.0776 27.0747 40.869 33.4754 48.3575 33.4754C53.7315 33.4754 56.2791 29.1028 59.6159 27.2012C59.9676 26.9988 60.3278 26.8343 60.6924 26.712C61.0355 26.615 61.3958 26.5602 61.7732 26.5602C63.9134 26.5602 67.07 28.3607 65.0585 32.3918C64.2522 33.9308 62.5924 36.1614 59.6631 38.7672C55.8631 41.9718 50.7807 43.785 45.6812 43.785C35.7224 43.785 24.9186 36.836 24.7299 21.5847V8.92228L15.3414 35.7102H14.5394L4.55911 9.70657V32.7755C4.55911 34.1712 4.90223 34.9301 6.70357 34.9301H8.14036V35.7102H0V34.9301H1.44107C3.30246 34.9301 3.63271 34.1501 3.63271 32.5098V7.25673C3.63271 5.61648 3.30675 4.83642 1.44107 4.83642H0V4.05635H5.17243L5.2239 4.19128L15.8604 31.6201L25.519 4.05635H31.1933V4.83642H29.7522C27.9122 4.83642 27.5606 5.62492 27.5606 7.07964V21.5805C27.6978 36.1024 36.5544 42.6043 45.2695 42.6043C49.9187 42.6043 55.4771 40.3906 58.608 37.245C61.7389 34.0995 63.9348 30.7431 62.9913 29.4106C62.0477 28.0782 60.4436 29.4275 60.2935 29.5371C59.5944 30.0347 58.8224 30.6967 58.029 31.3629C54.2891 34.4031 51.8572 35.2295 48.0272 35.2295C38.9733 35.2295 33.7923 27.2518 33.7923 19.7715C33.7923 15.5044 35.272 11.5281 37.9569 8.57652C40.9848 5.24121 45.3038 3.47868 50.4462 3.47868C61.087 3.47868 66.9885 12.4811 67.1343 20.9522L67.1301 20.948ZM182 19.8812C182 24.1399 180.516 28.1119 177.827 31.0635C174.79 34.3946 170.463 36.1529 165.312 36.1529C153.869 36.1529 148.658 27.7198 148.658 19.8812C148.658 15.6224 150.138 11.6504 152.823 8.6988C155.851 5.3677 160.169 3.60939 165.312 3.60939C176.776 3.60939 182 12.0426 182 19.8812ZM178.71 19.8812C178.71 12.4642 174.516 4.47801 165.312 4.47801C161.186 4.47801 157.725 6.13512 155.297 9.27226C153.136 12.0678 151.948 15.8333 151.948 19.8812C151.948 27.2981 156.129 35.2843 165.312 35.2843C169.446 35.2843 172.92 33.6272 175.352 30.4901C177.518 27.6945 178.71 23.9291 178.71 19.8854V19.8812ZM146.423 25.8729L146.372 26.0121C144.348 31.5569 139.394 35.2843 134.05 35.2843C124.876 35.2843 120.699 27.2981 120.699 19.8812C120.699 12.4642 124.876 4.47801 134.05 4.47801C139.853 4.47801 145.158 8.45846 145.634 13.1642L145.699 13.8472H146.629L145.634 4.05635H144.747L144.862 5.11471C144.862 5.88634 144.511 5.88634 144.395 5.88634C144.198 5.88634 143.859 5.73033 143.584 5.5954C141.534 4.56234 138.956 3.60939 134.05 3.60939C122.616 3.60939 117.409 12.0426 117.409 19.8812C117.409 27.7198 122.616 36.1529 134.05 36.1529C139.994 36.1529 144.858 33.7917 147.753 29.4992L147.809 29.4191L146.784 25.8729H146.423ZM117.319 32.4424L107.969 4.05635H84.7746V4.83642H86.2157C88.0771 4.83642 88.4074 5.61648 88.4074 7.25673V30.0347L72.9716 4.16176L72.9072 4.05635H67.7605V4.83642H69.2016C71.063 4.83642 71.3932 5.61648 71.3932 7.25673V32.5056C71.3932 34.1459 71.0673 34.9259 69.2016 34.9259H67.7605V35.706H75.9052V34.9259H74.4641C72.6628 34.9259 72.3196 34.1712 72.3196 32.7713V8.48376L88.4974 35.706H89.3338V7.08385C89.3766 5.59118 89.7283 4.83642 91.5254 4.83642L92.9665 4.82798H103.243V4.83642H104.684C105.361 4.83642 105.82 4.99243 106.043 5.30024C106.305 5.66287 106.284 6.2827 105.979 7.15132L97.4956 33.3321C97.0967 34.4199 96.745 34.9301 95.2482 34.9301H93.8071V35.7102H100.768V34.9301H99.3312C98.8509 34.9301 98.5635 34.85 98.4348 34.6729C98.2247 34.3946 98.2976 33.7664 98.675 32.5731L102.123 22.0569L102.398 21.1461L106.464 8.70302L110.611 21.1461L110.89 22.0569L114.51 32.8682C114.698 33.6357 114.668 34.1838 114.42 34.5001C114.188 34.791 113.751 34.9259 113.039 34.9259H111.598V35.706H121.055V34.9259H119.613C118.357 34.9259 117.889 34.1585 117.323 32.4381L117.319 32.4424ZM58.2949 0H41.641V1.83H58.2949V0Z" fill="var(--fill-0, white)"/>
</g>
<defs>
<clipPath id="clip0_0_161">
<rect width="182" height="44" fill="white"/>
</clipPath>
</defs>
</svg>
