<svg preserveAspectRatio="none" width="100%" height="100%" overflow="visible" style="display: block;" viewBox="0 0 239 57.8632" fill="none" xmlns="http://www.w3.org/2000/svg">
<g id="Layer_1" clip-path="url(#clip0_0_104)">
<g id="Group">
<path id="Vector" d="M92.0686 54.3143L92.3052 54.7135C92.3897 54.6803 92.4798 54.647 92.5586 54.6082C92.9416 54.4197 93.2458 54.159 93.471 53.8263C93.6963 53.4936 93.809 53.1165 93.809 52.6896C93.809 52.2626 93.7076 51.88 93.4992 51.5528C93.2908 51.2201 93.0036 50.965 92.6375 50.7765C92.2714 50.588 91.849 50.4993 91.3703 50.4993H88.9766V57.7412H89.8721V54.8965H91.2576C91.3196 54.8965 91.3759 54.891 91.4322 54.8854L91.3646 54.769L92.0686 54.3143ZM89.8721 54.0869V51.2922H91.3534C91.8152 51.2922 92.1926 51.4197 92.4854 51.6804C92.7783 51.941 92.9191 52.2737 92.9191 52.6896C92.9191 52.9557 92.8515 53.1997 92.722 53.4104C92.5924 53.6212 92.4235 53.7875 92.2151 53.9095C92.0067 54.0315 91.7645 54.0925 91.4998 54.0925H89.8721V54.0869Z" fill="var(--fill-0, #999999)"/>
<path id="Vector_2" d="M91.4322 54.8854L93.1275 57.7412H94.1075L92.3108 54.7191C92.0405 54.8189 91.7476 54.8743 91.4379 54.891L91.4322 54.8854Z" fill="var(--fill-0, #999999)"/>
<path id="Vector_3" d="M92.0686 54.3143L91.3646 54.769L91.4322 54.8854C91.7476 54.8688 92.0348 54.8133 92.3052 54.7135L92.0686 54.3143Z" fill="var(--fill-0, #999999)"/>
<path id="Vector_4" d="M100.387 54.4196H103.541V53.6322H100.387V51.2978H103.845V50.4993H99.4974V57.7412H103.868V56.9427H100.387V54.4196Z" fill="var(--fill-0, #999999)"/>
<path id="Vector_5" d="M112.378 53.7487L111.567 53.5546C111.218 53.4714 110.931 53.3439 110.717 53.1665C110.503 52.989 110.39 52.7395 110.39 52.4068C110.39 52.0186 110.525 51.7136 110.807 51.4918C111.083 51.27 111.454 51.1536 111.928 51.1536C112.401 51.1536 112.756 51.2534 113.071 51.4475C113.386 51.6415 113.612 51.9133 113.741 52.2571L114.58 51.9687C114.49 51.6915 114.333 51.4364 114.113 51.1979C113.893 50.9595 113.606 50.7654 113.257 50.6102C112.908 50.4549 112.491 50.3773 112.006 50.3773C111.195 50.3773 110.57 50.5603 110.142 50.9318C109.709 51.3033 109.494 51.8135 109.494 52.4678C109.494 52.8171 109.579 53.1221 109.742 53.3716C109.906 53.6212 110.125 53.8319 110.407 53.9927C110.683 54.1535 110.987 54.2755 111.314 54.3587L112.125 54.5638C112.592 54.6803 112.97 54.8466 113.257 55.0573C113.544 55.268 113.69 55.5398 113.69 55.878C113.69 56.244 113.527 56.5379 113.206 56.7597C112.885 56.9815 112.44 57.0924 111.871 57.0924C111.409 57.0924 111.021 56.9815 110.7 56.7541C110.379 56.5323 110.17 56.2662 110.063 55.9612L109.213 56.2495C109.28 56.4658 109.393 56.6654 109.54 56.8539C109.686 57.0425 109.877 57.2144 110.108 57.3696C110.339 57.5249 110.615 57.6469 110.931 57.7301C111.246 57.8133 111.607 57.8576 112.012 57.8576C112.581 57.8576 113.054 57.7633 113.437 57.5859C113.82 57.4085 114.107 57.1534 114.304 56.8429C114.501 56.5268 114.597 56.183 114.597 55.8059C114.597 55.3623 114.406 54.952 114.023 54.5694C113.64 54.1868 113.093 53.915 112.378 53.7487Z" fill="var(--fill-0, #999999)"/>
<path id="Vector_6" d="M120.945 50.4993H120.049V57.7412H120.945V50.4993Z" fill="var(--fill-0, #999999)"/>
<path id="Vector_7" d="M130.908 50.9595C130.378 50.6545 129.77 50.4993 129.072 50.4993H126.836V57.7412H129.072C129.765 57.7412 130.378 57.5859 130.908 57.2754C131.437 56.9649 131.854 56.5379 132.153 55.9945C132.451 55.451 132.603 54.8244 132.603 54.1202C132.603 53.416 132.451 52.7838 132.153 52.2349C131.848 51.6915 131.437 51.2645 130.908 50.9595ZM131.505 55.2126C131.37 55.5564 131.178 55.8558 130.936 56.1164C130.694 56.3771 130.418 56.5822 130.103 56.7209C129.787 56.865 129.444 56.9316 129.072 56.9316H127.726V51.3033H129.072C129.444 51.3033 129.787 51.3754 130.103 51.514C130.418 51.6582 130.694 51.8578 130.936 52.1184C131.178 52.379 131.37 52.684 131.505 53.0223C131.64 53.3661 131.708 53.7265 131.708 54.1147C131.708 54.5028 131.64 54.8633 131.505 55.2071V55.2126Z" fill="var(--fill-0, #999999)"/>
<path id="Vector_8" d="M138.9 54.4196H142.048V53.6322H138.9V51.2978H142.352V50.4993H138.004V57.7412H142.375V56.9427H138.9V54.4196Z" fill="var(--fill-0, #999999)"/>
<path id="Vector_9" d="M153.453 56.3105L149.072 50.4993H148.165V57.7412H149.06V51.8966L153.453 57.7412H154.343V50.4993H153.453V56.3105Z" fill="var(--fill-0, #999999)"/>
<path id="Vector_10" d="M165.106 56.3327C164.864 56.5656 164.594 56.7541 164.29 56.8872C163.985 57.0203 163.67 57.0868 163.332 57.0868C162.814 57.0868 162.352 56.9593 161.941 56.7098C161.53 56.4602 161.209 56.1109 160.978 55.6617C160.747 55.2126 160.629 54.6969 160.629 54.1202C160.629 53.5435 160.741 53.0334 160.972 52.5898C161.198 52.1462 161.519 51.8024 161.924 51.5528C162.33 51.3033 162.791 51.1758 163.298 51.1758C163.625 51.1758 163.94 51.2368 164.245 51.3588C164.549 51.4807 164.819 51.6471 165.067 51.8578C165.309 52.0741 165.506 52.3236 165.647 52.6119L166.413 52.2293C166.238 51.8634 165.991 51.5417 165.669 51.2645C165.348 50.9872 164.982 50.7654 164.577 50.6102C164.171 50.4549 163.749 50.3773 163.304 50.3773C162.611 50.3773 161.997 50.5381 161.462 50.8597C160.927 51.1813 160.505 51.6194 160.201 52.185C159.897 52.7506 159.744 53.3938 159.744 54.1258C159.744 54.8577 159.897 55.5009 160.206 56.0665C160.516 56.6266 160.938 57.0702 161.479 57.3918C162.02 57.7134 162.639 57.8742 163.338 57.8742C163.777 57.8742 164.205 57.7911 164.616 57.6247C165.027 57.4584 165.388 57.2255 165.709 56.9316C166.03 56.6321 166.278 56.2994 166.458 55.9168L165.681 55.5342C165.54 55.8392 165.348 56.1054 165.106 56.3438V56.3327Z" fill="var(--fill-0, #999999)"/>
<path id="Vector_11" d="M172.648 50.4993H171.752V57.7412H172.648V50.4993Z" fill="var(--fill-0, #999999)"/>
<path id="Vector_12" d="M183.163 54.8965H182.476L182.797 55.6839H183.163V54.8965Z" fill="var(--fill-0, #999999)"/>
<path id="Vector_13" d="M181.558 50.4993L181.124 51.5695L182.476 54.8965H183.163V55.6839H182.797L183.636 57.7412H184.571L181.58 50.4993H181.558Z" fill="var(--fill-0, #999999)"/>
<path id="Vector_14" d="M181.558 50.4993H180.685L181.124 51.5695L181.558 50.4993Z" fill="var(--fill-0, #999999)"/>
<path id="Vector_15" d="M179.08 54.8965H179.767L181.124 51.5695L180.685 50.4993H180.657L177.66 57.7412H178.607L179.446 55.6839H179.08V54.8965Z" fill="var(--fill-0, #999999)"/>
<path id="Vector_16" d="M179.767 54.8965L179.446 55.6839H182.797L182.476 54.8965H179.767Z" fill="var(--fill-0, #999999)"/>
<path id="Vector_17" d="M179.08 54.8965V55.6839H179.446L179.767 54.8965H179.08Z" fill="var(--fill-0, #999999)"/>
<path id="Vector_18" d="M190.49 50.4993H189.595V57.7412H193.954V56.9427H190.49V50.4993Z" fill="var(--fill-0, #999999)"/>
<path id="Vector_19" d="M92.0686 54.3143L92.3052 54.7135C92.3897 54.6803 92.4798 54.647 92.5586 54.6082C92.9416 54.4197 93.2458 54.159 93.471 53.8263C93.6963 53.4936 93.809 53.1165 93.809 52.6896C93.809 52.2626 93.7076 51.88 93.4992 51.5528C93.2908 51.2201 93.0036 50.965 92.6375 50.7765C92.2714 50.588 91.849 50.4993 91.3703 50.4993H88.9766V57.7412H89.8721V54.8965H91.2576C91.3196 54.8965 91.3759 54.891 91.4322 54.8854L91.3646 54.769L92.0686 54.3143ZM89.8721 54.0869V51.2922H91.3534C91.8152 51.2922 92.1926 51.4197 92.4854 51.6804C92.7783 51.941 92.9191 52.2737 92.9191 52.6896C92.9191 52.9557 92.8515 53.1997 92.722 53.4104C92.5924 53.6212 92.4235 53.7875 92.2151 53.9095C92.0067 54.0315 91.7645 54.0925 91.4998 54.0925H89.8721V54.0869Z" fill="var(--fill-0, #999999)"/>
<path id="Vector_20" d="M91.4322 54.8854L93.1275 57.7412H94.1075L92.3108 54.7191C92.0405 54.8189 91.7476 54.8743 91.4379 54.891L91.4322 54.8854Z" fill="var(--fill-0, #999999)"/>
<path id="Vector_21" d="M92.0686 54.3143L91.3646 54.769L91.4322 54.8854C91.7476 54.8688 92.0348 54.8133 92.3052 54.7135L92.0686 54.3143Z" fill="var(--fill-0, #999999)"/>
<path id="Vector_22" d="M100.387 54.4196H103.541V53.6322H100.387V51.2978H103.845V50.4993H99.4974V57.7412H103.868V56.9427H100.387V54.4196Z" fill="var(--fill-0, #999999)"/>
<path id="Vector_23" d="M112.378 53.7487L111.567 53.5546C111.218 53.4714 110.931 53.3439 110.717 53.1665C110.503 52.989 110.39 52.7395 110.39 52.4068C110.39 52.0186 110.525 51.7136 110.807 51.4918C111.083 51.27 111.454 51.1536 111.928 51.1536C112.401 51.1536 112.756 51.2534 113.071 51.4475C113.386 51.6415 113.612 51.9133 113.741 52.2571L114.58 51.9687C114.49 51.6915 114.333 51.4364 114.113 51.1979C113.893 50.9595 113.606 50.7654 113.257 50.6102C112.908 50.4549 112.491 50.3773 112.006 50.3773C111.195 50.3773 110.57 50.5603 110.142 50.9318C109.709 51.3033 109.494 51.8135 109.494 52.4678C109.494 52.8171 109.579 53.1221 109.742 53.3716C109.906 53.6212 110.125 53.8319 110.407 53.9927C110.683 54.1535 110.987 54.2755 111.314 54.3587L112.125 54.5638C112.592 54.6803 112.97 54.8466 113.257 55.0573C113.544 55.268 113.69 55.5398 113.69 55.878C113.69 56.244 113.527 56.5379 113.206 56.7597C112.885 56.9815 112.44 57.0924 111.871 57.0924C111.409 57.0924 111.021 56.9815 110.7 56.7541C110.379 56.5323 110.17 56.2662 110.063 55.9612L109.213 56.2495C109.28 56.4658 109.393 56.6654 109.54 56.8539C109.686 57.0425 109.877 57.2144 110.108 57.3696C110.339 57.5249 110.615 57.6469 110.931 57.7301C111.246 57.8133 111.607 57.8576 112.012 57.8576C112.581 57.8576 113.054 57.7633 113.437 57.5859C113.82 57.4085 114.107 57.1534 114.304 56.8429C114.501 56.5268 114.597 56.183 114.597 55.8059C114.597 55.3623 114.406 54.952 114.023 54.5694C113.64 54.1868 113.093 53.915 112.378 53.7487Z" fill="var(--fill-0, #999999)"/>
<path id="Vector_24" d="M120.945 50.4993H120.049V57.7412H120.945V50.4993Z" fill="var(--fill-0, #999999)"/>
<path id="Vector_25" d="M130.908 50.9595C130.378 50.6545 129.77 50.4993 129.072 50.4993H126.836V57.7412H129.072C129.765 57.7412 130.378 57.5859 130.908 57.2754C131.437 56.9649 131.854 56.5379 132.153 55.9945C132.451 55.451 132.603 54.8244 132.603 54.1202C132.603 53.416 132.451 52.7838 132.153 52.2349C131.848 51.6915 131.437 51.2645 130.908 50.9595ZM131.505 55.2126C131.37 55.5564 131.178 55.8558 130.936 56.1164C130.694 56.3771 130.418 56.5822 130.103 56.7209C129.787 56.865 129.444 56.9316 129.072 56.9316H127.726V51.3033H129.072C129.444 51.3033 129.787 51.3754 130.103 51.514C130.418 51.6582 130.694 51.8578 130.936 52.1184C131.178 52.379 131.37 52.684 131.505 53.0223C131.64 53.3661 131.708 53.7265 131.708 54.1147C131.708 54.5028 131.64 54.8633 131.505 55.2071V55.2126Z" fill="var(--fill-0, #999999)"/>
<path id="Vector_26" d="M138.9 54.4196H142.048V53.6322H138.9V51.2978H142.352V50.4993H138.004V57.7412H142.375V56.9427H138.9V54.4196Z" fill="var(--fill-0, #999999)"/>
<path id="Vector_27" d="M153.453 56.3105L149.072 50.4993H148.165V57.7412H149.06V51.8966L153.453 57.7412H154.343V50.4993H153.453V56.3105Z" fill="var(--fill-0, #999999)"/>
<path id="Vector_28" d="M165.106 56.3327C164.864 56.5656 164.594 56.7541 164.29 56.8872C163.985 57.0203 163.67 57.0868 163.332 57.0868C162.814 57.0868 162.352 56.9593 161.941 56.7098C161.53 56.4602 161.209 56.1109 160.978 55.6617C160.747 55.2126 160.629 54.6969 160.629 54.1202C160.629 53.5435 160.741 53.0334 160.972 52.5898C161.198 52.1462 161.519 51.8024 161.924 51.5528C162.33 51.3033 162.791 51.1758 163.298 51.1758C163.625 51.1758 163.94 51.2368 164.245 51.3588C164.549 51.4807 164.819 51.6471 165.067 51.8578C165.309 52.0741 165.506 52.3236 165.647 52.6119L166.413 52.2293C166.238 51.8634 165.991 51.5417 165.669 51.2645C165.348 50.9872 164.982 50.7654 164.577 50.6102C164.171 50.4549 163.749 50.3773 163.304 50.3773C162.611 50.3773 161.997 50.5381 161.462 50.8597C160.927 51.1813 160.505 51.6194 160.201 52.185C159.897 52.7506 159.744 53.3938 159.744 54.1258C159.744 54.8577 159.897 55.5009 160.206 56.0665C160.516 56.6266 160.938 57.0702 161.479 57.3918C162.02 57.7134 162.639 57.8742 163.338 57.8742C163.777 57.8742 164.205 57.7911 164.616 57.6247C165.027 57.4584 165.388 57.2255 165.709 56.9316C166.03 56.6321 166.278 56.2994 166.458 55.9168L165.681 55.5342C165.54 55.8392 165.348 56.1054 165.106 56.3438V56.3327Z" fill="var(--fill-0, #999999)"/>
<path id="Vector_29" d="M172.648 50.4993H171.752V57.7412H172.648V50.4993Z" fill="var(--fill-0, #999999)"/>
<path id="Vector_30" d="M183.163 54.8965H182.476L182.797 55.6839H183.163V54.8965Z" fill="var(--fill-0, #999999)"/>
<path id="Vector_31" d="M181.558 50.4993L181.124 51.5695L182.476 54.8965H183.163V55.6839H182.797L183.636 57.7412H184.571L181.58 50.4993H181.558Z" fill="var(--fill-0, #999999)"/>
<path id="Vector_32" d="M181.558 50.4993H180.685L181.124 51.5695L181.558 50.4993Z" fill="var(--fill-0, #999999)"/>
<path id="Vector_33" d="M179.08 54.8965H179.767L181.124 51.5695L180.685 50.4993H180.657L177.66 57.7412H178.607L179.446 55.6839H179.08V54.8965Z" fill="var(--fill-0, #999999)"/>
<path id="Vector_34" d="M179.767 54.8965L179.446 55.6839H182.797L182.476 54.8965H179.767Z" fill="var(--fill-0, #999999)"/>
<path id="Vector_35" d="M179.08 54.8965V55.6839H179.446L179.767 54.8965H179.08Z" fill="var(--fill-0, #999999)"/>
<path id="Vector_36" d="M190.49 50.4993H189.595V57.7412H193.954V56.9427H190.49V50.4993Z" fill="var(--fill-0, #999999)"/>
</g>
<path id="Vector_37" d="M65.6595 21.759C65.637 23.8329 64.0656 25.5297 62.7364 24.9086C64.0656 25.5297 65.637 28.6793 65.6595 30.7531C65.637 28.6793 67.1633 25.5297 68.4925 24.9086C67.1633 25.5297 65.637 23.8329 65.6595 21.759Z" fill="var(--fill-0, #B2A054)"/>
<path id="Vector_38" d="M88.1543 27.5481C88.1881 30.4149 87.9121 33.1486 87.3433 35.7216C86.1943 34.1745 83.5247 32.9767 83.5247 32.9767C83.7443 31.2966 83.8626 29.5 83.8345 27.5592C83.7218 18.6371 78.191 6.06634 66.2396 6.06634C54.2882 6.06634 48.6899 16.3969 48.6899 26.001C48.6899 35.6051 53.6687 44.0226 63.5024 44.0226C70.5595 44.0226 73.905 38.2723 78.2868 35.7715C78.7486 35.5053 79.2217 35.289 79.7005 35.1282C80.151 35.0007 80.6241 34.9286 81.1198 34.9286C83.9302 34.9286 88.0755 37.2964 85.434 42.5975C84.3751 44.6215 82.1955 47.5548 78.3487 50.9817C73.3587 55.196 66.6846 57.5804 59.988 57.5804C46.9101 57.5804 32.7228 48.442 32.4749 28.3854V11.7334L20.1462 46.9615H19.093L5.98697 12.7648V43.1021C5.98697 44.9375 6.43754 45.9356 8.80304 45.9356H10.6898V46.9615H0V45.9356H1.8924C4.33675 45.9356 4.77043 44.9098 4.77043 42.7528V9.54312C4.77043 7.38608 4.34238 6.36023 1.8924 6.36023H0V5.33439H6.79236L6.85995 5.51183L20.8277 41.5827L33.5113 5.33439H40.9626V6.36023H39.0702C36.654 6.36023 36.1922 7.39717 36.1922 9.31023V28.3798C36.3724 47.4772 48.0028 56.0277 59.4473 56.0277C65.5525 56.0277 72.8518 53.1166 76.9632 48.9799C81.0747 44.8433 83.9584 40.4294 82.7193 38.6771C81.4802 36.9248 79.3738 38.6993 79.1767 38.8435C78.2586 39.4978 77.2448 40.3684 76.2029 41.2445C71.2917 45.2425 68.0982 46.3293 63.0687 46.3293C51.1793 46.3293 44.3757 35.838 44.3757 26.001C44.3757 20.3893 46.3187 15.1603 49.8445 11.2787C53.8208 6.89256 59.4923 4.57471 66.2453 4.57471C80.2186 4.57471 87.9684 16.4135 88.1599 27.5536L88.1543 27.5481ZM239 26.1452C239 31.7457 237.051 36.9692 233.52 40.8508C229.532 45.2314 223.85 47.5437 217.085 47.5437C202.059 47.5437 195.216 36.4535 195.216 26.1452C195.216 20.5446 197.159 15.3211 200.685 11.4395C204.661 7.05892 210.332 4.74661 217.085 4.74661C232.14 4.74661 239 15.8368 239 26.1452ZM234.68 26.1452C234.68 16.3913 229.172 5.8889 217.085 5.8889C211.667 5.8889 207.122 8.06813 203.934 12.1937C201.096 15.8701 199.536 20.8219 199.536 26.1452C199.536 35.899 205.027 46.4014 217.085 46.4014C222.515 46.4014 227.077 44.2222 230.27 40.0966C233.114 36.4202 234.68 31.4685 234.68 26.1507V26.1452ZM192.281 34.0248L192.214 34.2077C189.555 41.4996 183.05 46.4014 176.033 46.4014C163.985 46.4014 158.5 35.899 158.5 26.1452C158.5 16.3913 163.985 5.8889 176.033 5.8889C183.653 5.8889 190.62 11.1235 191.245 17.3118L191.33 18.2101H192.552L191.245 5.33439H190.079L190.231 6.72621C190.231 7.74097 189.769 7.74097 189.617 7.74097C189.358 7.74097 188.913 7.5358 188.553 7.35835C185.861 5.9998 182.476 4.74661 176.033 4.74661C161.017 4.74661 154.18 15.8368 154.18 26.1452C154.18 36.4535 161.017 47.5437 176.033 47.5437C183.839 47.5437 190.226 44.4385 194.027 38.7935L194.101 38.6882L192.754 34.0248H192.281ZM154.062 42.664L141.784 5.33439H111.325V6.36023H113.217C115.662 6.36023 116.095 7.38608 116.095 9.54312V39.4978L95.8253 5.47302L95.7408 5.33439H88.9822V6.36023H90.8746C93.319 6.36023 93.7527 7.38608 93.7527 9.54312V42.7472C93.7527 44.9043 93.3246 45.9301 90.8746 45.9301H88.9822V46.9559H99.6777V45.9301H97.7853C95.4198 45.9301 94.9692 44.9375 94.9692 43.0966V11.1568L116.214 46.9559H117.312V9.31577C117.368 7.35281 117.83 6.36023 120.19 6.36023L122.082 6.34914H135.577V6.36023H137.469C138.359 6.36023 138.962 6.5654 139.255 6.9702C139.598 7.44707 139.57 8.2622 139.17 9.4045L128.03 43.834C127.506 45.2647 127.044 45.9356 125.079 45.9356H123.186V46.9615H132.327V45.9356H130.44C129.81 45.9356 129.432 45.8303 129.263 45.5974C128.987 45.2314 129.083 44.4052 129.579 42.8359L134.107 29.0064L134.467 27.8087L139.807 11.4451L145.253 27.8087L145.619 29.0064L150.373 43.2241C150.62 44.2333 150.581 44.9542 150.254 45.37C149.95 45.7527 149.376 45.9301 148.441 45.9301H146.548V46.9559H158.967V45.9301H157.075C155.425 45.9301 154.811 44.9209 154.067 42.6585L154.062 42.664ZM76.5521 0H54.6825V2.40658H76.5521V0Z" fill="var(--fill-0, white)"/>
</g>
<defs>
<clipPath id="clip0_0_104">
<rect width="239" height="57.8632" fill="white"/>
</clipPath>
</defs>
</svg>
