<svg preserveAspectRatio="none" width="100%" height="100%" overflow="visible" style="display: block;" viewBox="0 0 454.5 165.84" fill="none" xmlns="http://www.w3.org/2000/svg">
<g id="Layer_1" clip-path="url(#clip0_0_43)">
<path id="Vector" d="M31.68 5.25022L29.73 21.5602C29.65 22.3302 29.61 23.1002 29.61 23.7502C29.61 27.9702 31.23 29.8802 31.88 30.0802C32.04 30.1202 32.04 30.4002 32.04 30.4002H28.1L31.43 2.00021H34.55L45.34 25.6502L56.19 2.00021H58.5L61.87 30.4002H58.06L55.14 5.85021L43.94 30.4002H43.21L31.68 5.25022Z" fill="var(--fill-0, white)"/>
<path id="Vector_2" d="M94.51 30.41H90.41L88.79 27.24C86.44 23.26 81.08 19.41 76.29 19.41C74.06 19.41 71.95 20.3 70.37 22.41C71.75 19.89 73.94 18.92 76.41 18.92C80.1 18.92 84.4 21.23 87.28 24.28L78.03 6.06L69.18 23.55C68.25 25.42 67.92 26.92 67.92 28.01C67.92 29.23 68.33 29.96 68.69 30.08C68.85 30.12 68.85 30.4 68.85 30.4H65L79.4 2H80.09L94.49 30.4L94.51 30.41Z" fill="var(--fill-0, white)"/>
<path id="Vector_3" d="M100.26 2.03H103.99V30.43H100.26V2.03Z" fill="var(--fill-0, white)"/>
<path id="Vector_4" d="M120.27 30.0198C125.14 30.0198 129.89 28.0698 129.89 24.4598C129.89 17.0798 110.41 18.6198 110.41 8.5098C110.41 3.3598 115.32 0.999805 120.27 0.999805C125.54 0.999805 130.9 3.59981 130.7 8.2598C129.85 3.8798 125.75 1.9698 121.77 1.9698C117.55 1.9698 113.45 4.0798 113.45 7.5298C113.45 14.9498 133.41 12.2398 133.41 22.7398C133.41 28.3398 127.41 30.8998 121.48 30.8998C115.55 30.8998 110 28.4198 110 24.0398C110 23.5498 110.08 23.1098 110.2 22.5798C109.67 27.6898 115.03 30.0098 120.26 30.0098L120.27 30.0198Z" fill="var(--fill-0, white)"/>
<path id="Vector_5" d="M153.37 2.68V30.43H149.64V2.03H159.01C166.6 2.03 170.37 6.49 170.37 10.96C170.37 14.41 166.88 19.12 160.63 19.12C158.68 19.12 156.45 18.63 153.98 17.54C155.32 17.95 156.58 18.11 157.75 18.11C163.02 18.11 166.31 14.38 166.31 10.97C166.31 6.83 163.47 2.69 157.79 2.69H153.37V2.68Z" fill="var(--fill-0, white)"/>
<path id="Vector_6" d="M175.48 2.03H183.23C191.26 2.03 194.71 6.05 194.71 9.98C194.71 13.47 191.99 16.88 187.24 17.28C195.64 18.82 194.58 31.03 199.74 30.43C198.73 30.71 197.79 30.88 196.98 30.88C189.47 30.88 190.73 18.91 184.97 17.25C183.39 17.09 181.6 16.6 179.66 15.75C181.08 16.16 182.34 16.32 183.51 16.32C188.38 16.32 190.85 13.2 190.85 9.91C190.85 6.42 188.01 2.77 182.25 2.69L179.21 2.73V30.44H175.48V2.03Z" fill="var(--fill-0, white)"/>
<path id="Vector_7" d="M230.95 30.43H226.85L225.23 27.26C222.88 23.28 217.52 19.43 212.73 19.43C210.5 19.43 208.39 20.32 206.81 22.43C208.19 19.91 210.38 18.94 212.85 18.94C216.54 18.94 220.84 21.25 223.72 24.3L214.47 6.08L205.63 23.57C204.7 25.44 204.37 26.94 204.37 28.03C204.37 29.25 204.78 29.98 205.14 30.1C205.3 30.14 205.3 30.42 205.3 30.42H201.45L215.85 2.02H216.54L230.94 30.42L230.95 30.43Z" fill="var(--fill-0, white)"/>
<path id="Vector_8" d="M240.57 30.43V2.68H239.8C231.6 2.68 231.52 4.34 230.22 5.6C230.18 5.72 229.94 5.72 229.94 5.72L231.16 2.03H253.64L254.86 5.72C254.86 5.72 254.62 5.72 254.58 5.6C253.97 4.91 253.24 2.68 245 2.68H244.27V30.43H240.58H240.57Z" fill="var(--fill-0, white)"/>
<path id="Vector_9" d="M259.64 2.03H263.37V30.43H259.64V2.03Z" fill="var(--fill-0, white)"/>
<path id="Vector_10" d="M297 24.43C294.85 28.49 291.64 31.04 285.23 31.04C274.07 31.04 268.51 23.62 268.51 16.23C268.51 6.74 275.89 1.66 284.33 1.66C289.81 1.66 291.71 3.77 291.71 5.56C291.71 7.1 290.29 8.4 288.5 7.87C288.66 7.3 288.74 6.82 288.74 6.37C288.74 3.2 284.85 2.35 283.1 2.35C275.68 2.35 272.31 7.71 272.31 13.71C272.31 21.38 277.79 30.1 287.28 30.1C291.62 30.1 294.71 27.62 296.98 24.42L297 24.43Z" fill="var(--fill-0, white)"/>
<path id="Vector_11" d="M300.74 2.03H304.47V30.43H300.74V2.03Z" fill="var(--fill-0, white)"/>
<path id="Vector_12" d="M311.21 2.03H319.73C328.94 2.11 336.41 8.16 336.41 16.23C336.41 24.3 328.95 30.35 319.73 30.43H311.21V2.03ZM319.52 29.78C326.99 29.78 332.42 23.37 332.42 16.23C332.42 9.09 326.98 2.68 319.52 2.68H314.9V29.78H319.52Z" fill="var(--fill-0, white)"/>
<path id="Vector_13" d="M366.43 30.43H362.33L360.71 27.26C358.36 23.28 353 19.43 348.21 19.43C345.98 19.43 343.87 20.32 342.29 22.43C343.67 19.91 345.86 18.94 348.33 18.94C352.02 18.94 356.32 21.25 359.2 24.3L349.95 6.08L341.11 23.57C340.18 25.44 339.85 26.94 339.85 28.03C339.85 29.25 340.26 29.98 340.62 30.1C340.78 30.14 340.78 30.42 340.78 30.42H336.93L351.33 2.02H352.02L366.42 30.42L366.43 30.43Z" fill="var(--fill-0, white)"/>
<path id="Vector_14" d="M371.14 2.03H379.66C388.87 2.11 396.34 8.16 396.34 16.23C396.34 24.3 388.88 30.35 379.66 30.43H371.14V2.03ZM379.46 29.78C386.93 29.78 392.36 23.37 392.36 16.23C392.36 9.09 386.92 2.68 379.46 2.68H374.83V29.78H379.46Z" fill="var(--fill-0, white)"/>
<path id="Vector_15" d="M400.43 2.03H418.44L418.93 4.63C418.93 4.63 418.61 4.59 418.56 4.51C418.03 3.62 414.3 2.68 408.34 2.68H404.12V29.78H409.44C416.82 29.78 419.83 28.2 420.11 27.55C420.15 27.43 420.44 27.43 420.44 27.43L419.34 30.43H400.43V2.03ZM407.21 14.73C409.16 14.73 411.75 16.6 413.78 16.6C414.55 16.6 415.24 16.32 415.77 15.63C415.2 16.89 414.39 17.33 413.5 17.33C411.51 17.33 409 15.38 407.05 15.38C406.04 15.38 405.18 15.87 404.62 17.37C405.11 15.34 406.04 14.73 407.22 14.73H407.21Z" fill="var(--fill-0, white)"/>
<path id="Vector_16" d="M14.56 39.84V94.08H7.26V38.57H25.58C40.41 38.57 47.79 47.29 47.79 56.02C47.79 62.76 40.97 71.96 28.76 71.96C24.95 71.96 20.59 71.01 15.76 68.87C18.38 69.66 20.83 69.98 23.13 69.98C33.44 69.98 39.86 62.69 39.86 56.02C39.86 47.93 34.31 39.84 23.21 39.84H14.57H14.56Z" fill="var(--fill-0, white)"/>
<path id="Vector_17" d="M100.99 94.08H92.98L89.81 87.89C85.21 80.12 74.74 72.59 65.39 72.59C61.03 72.59 56.9 74.33 53.81 78.46C56.51 73.54 60.79 71.64 65.63 71.64C72.85 71.64 81.25 76.16 86.88 82.11L68.8 46.5L51.51 80.68C49.69 84.33 49.05 87.26 49.05 89.4C49.05 91.78 49.84 93.21 50.56 93.44C50.88 93.52 50.88 94.07 50.88 94.07H43.35L71.5 38.56H72.85L101 94.07L100.99 94.08Z" fill="var(--fill-0, white)"/>
<path id="Vector_18" d="M110.35 38.57H125.5C141.2 38.57 147.94 46.42 147.94 54.11C147.94 60.93 142.63 67.59 133.35 68.38C149.76 71.39 147.7 95.26 157.77 94.07C155.79 94.62 153.96 94.94 152.38 94.94C137.71 94.94 140.17 71.55 128.91 68.3C125.82 67.98 122.33 67.03 118.52 65.37C121.3 66.16 123.75 66.48 126.05 66.48C135.57 66.48 140.4 60.37 140.4 53.95C140.4 47.13 134.85 39.99 123.59 39.83L117.64 39.91V94.07H110.34V38.56L110.35 38.57Z" fill="var(--fill-0, white)"/>
<path id="Vector_19" d="M218.75 94.08H210.74L207.57 87.89C202.97 80.12 192.5 72.59 183.15 72.59C178.79 72.59 174.66 74.33 171.57 78.46C174.27 73.54 178.55 71.64 183.39 71.64C190.61 71.64 199.01 76.16 204.64 82.11L186.56 46.5L169.27 80.68C167.45 84.33 166.81 87.26 166.81 89.4C166.81 91.78 167.6 93.21 168.32 93.44C168.64 93.52 168.64 94.07 168.64 94.07H161.11L189.26 38.56H190.61L218.76 94.07L218.75 94.08Z" fill="var(--fill-0, white)"/>
<path id="Vector_20" d="M267.83 94.16C277.35 94.16 286.62 90.35 286.62 83.3C286.62 68.87 248.56 71.88 248.56 52.14C248.56 42.07 258.16 37.47 267.83 37.47C278.14 37.47 288.61 42.55 288.21 51.66C286.54 43.1 278.54 39.37 270.76 39.37C262.51 39.37 254.5 43.49 254.5 50.23C254.5 64.74 293.52 59.43 293.52 79.97C293.52 90.91 281.78 95.91 270.21 95.91C258.64 95.91 247.77 91.07 247.77 82.51C247.77 81.56 247.93 80.69 248.17 79.66C247.14 89.65 257.61 94.17 267.84 94.17L267.83 94.16Z" fill="var(--fill-0, white)"/>
<path id="Vector_21" d="M303.52 38.57H310.82V72.99C310.82 86.55 319.23 93.13 327.79 93.13C336.35 93.13 345.39 86.23 345.39 72.99V54.04C345.39 44.76 342.06 39.69 340.63 39.21C340.31 39.13 340.31 38.58 340.31 38.58H346.65V73C346.65 88.07 335.31 96.23 324.21 96.23C313.74 96.23 303.51 88.86 303.51 73V38.58L303.52 38.57Z" fill="var(--fill-0, white)"/>
<path id="Vector_22" d="M408.35 94.08H400.34L397.17 87.89C392.57 80.12 382.1 72.59 372.75 72.59C368.39 72.59 364.27 74.33 361.17 78.46C363.87 73.54 368.15 71.64 372.99 71.64C380.21 71.64 388.61 76.16 394.24 82.11L376.16 46.5L358.87 80.68C357.05 84.33 356.41 87.26 356.41 89.4C356.41 91.78 357.2 93.21 357.92 93.44C358.24 93.52 358.24 94.07 358.24 94.07H350.71L378.86 38.56H380.21L408.36 94.07L408.35 94.08Z" fill="var(--fill-0, white)"/>
<path id="Vector_23" d="M143.89 109.14H159.04C174.74 109.14 181.48 116.99 181.48 124.68C181.48 131.5 176.17 138.16 166.89 138.95C183.31 141.96 181.24 165.83 191.31 164.64C189.33 165.19 187.5 165.51 185.92 165.51C171.25 165.51 173.71 142.12 162.45 138.87C159.36 138.55 155.87 137.6 152.06 135.94C154.84 136.73 157.29 137.05 159.59 137.05C169.11 137.05 173.94 130.94 173.94 124.52C173.94 117.7 168.39 110.56 157.13 110.4L151.18 110.48V164.64H143.88V109.13L143.89 109.14Z" fill="var(--fill-0, white)"/>
<path id="Vector_24" d="M256.02 136.9C256.02 151.33 245.16 165.84 223.35 165.84C201.54 165.84 190.76 151.33 190.76 136.9C190.76 122.47 201.62 107.96 223.35 107.96C245.08 107.96 256.02 122.39 256.02 136.9ZM248.57 141.73C248.57 126.74 237.86 109.77 219.31 109.77C204.8 109.77 198.22 120.24 198.22 131.97C198.22 146.96 208.85 164.01 227.4 164.01C241.99 164.01 248.57 153.46 248.57 141.73Z" fill="var(--fill-0, white)"/>
<path id="Vector_25" d="M283.22 164.65V110.41H281.71C265.69 110.41 265.53 113.66 263 116.12C262.92 116.36 262.45 116.36 262.45 116.36L264.83 109.14H308.76L311.14 116.36C311.14 116.36 310.66 116.36 310.59 116.12C309.4 114.77 307.97 110.41 291.88 110.41H290.45V164.65H283.23H283.22Z" fill="var(--fill-0, white)"/>
<path id="Vector_26" d="M320.49 109.14H327.79V164.65H320.49V109.14Z" fill="var(--fill-0, white)"/>
<path id="Vector_27" d="M341.11 109.14H344.44L386.47 154.18V124.52C386.47 115.32 383.14 110.25 381.71 109.77C381.47 109.69 381.47 109.14 381.47 109.14H387.73V164.65H386.46L342.37 117.39V147.37C342.37 158.63 345.78 163.55 347.21 164.02C347.53 164.1 347.53 164.65 347.53 164.65H341.11V109.14Z" fill="var(--fill-0, white)"/>
<path id="Vector_28" d="M454.5 164.65H446.49L443.32 158.46C438.72 150.69 428.25 143.16 418.9 143.16C414.54 143.16 410.41 144.9 407.32 149.03C410.02 144.11 414.3 142.21 419.14 142.21C426.36 142.21 434.76 146.73 440.39 152.68L422.31 117.07L405.02 151.25C403.2 154.9 402.56 157.83 402.56 159.97C402.56 162.35 403.35 163.78 404.07 164.01C404.39 164.09 404.39 164.64 404.39 164.64H396.86L425.01 109.13H426.36L454.51 164.64L454.5 164.65Z" fill="var(--fill-0, white)"/>
<path id="Vector_29" d="M0 12.13C5.01 14.53 10.94 26.66 11.02 34.66C10.94 26.66 16.69 14.53 21.7 12.14C16.69 14.54 10.94 8 11.02 0C10.94 8 5.01 14.53 0 12.13Z" fill="var(--fill-0, #AC8136)"/>
</g>
<defs>
<clipPath id="clip0_0_43">
<rect width="454.5" height="165.84" fill="white"/>
</clipPath>
</defs>
</svg>
