<svg preserveAspectRatio="none" width="100%" height="100%" overflow="visible" style="display: block;" viewBox="0 0 32 32" fill="none" xmlns="http://www.w3.org/2000/svg">
<g id="shopping-cart">
<path id="Vector" d="M2.7328 2.7328H5.39947L8.94613 19.2936C9.07624 19.9001 9.41369 20.4423 9.90042 20.8269C10.3871 21.2114 10.9927 21.4142 11.6128 21.4004H24.6528C25.2597 21.3994 25.8481 21.1914 26.3208 20.8108C26.7936 20.4302 27.1223 19.8997 27.2528 19.307L29.4528 9.3998H6.82613M11.9997 28.001C11.9997 28.7374 11.4028 29.3344 10.6664 29.3344C9.93001 29.3344 9.33306 28.7374 9.33306 28.001C9.33306 27.2646 9.93001 26.6676 10.6664 26.6676C11.4028 26.6676 11.9997 27.2646 11.9997 28.001ZM26.6664 28.001C26.6664 28.7374 26.0694 29.3344 25.3331 29.3344C24.5967 29.3344 23.9997 28.7374 23.9997 28.001C23.9997 27.2646 24.5967 26.6676 25.3331 26.6676C26.0694 26.6676 26.6664 27.2646 26.6664 28.001Z" stroke="var(--stroke-0, #C49A44)" stroke-width="2" stroke-linecap="round"/>
</g>
</svg>
