<svg width="245" height="140" viewBox="0 0 245 140" fill="none" xmlns="http://www.w3.org/2000/svg">
<mask id="path-1-inside-1_14890_3" fill="white">
<path d="M0 0H245V132C245 136.418 241.418 140 237 140H7.99999C3.58172 140 0 136.418 0 132V0Z"/>
</mask>
<path d="M0 0H245V132C245 136.418 241.418 140 237 140H7.99999C3.58172 140 0 136.418 0 132V0Z" fill="white"/>
<path d="M0 0H245H0M245 132C245 138.075 240.075 143 234 143H11C4.92487 143 0 138.075 0 132C0 134.761 3.58172 137 8 137H237C241.418 137 245 134.761 245 132ZM245 132M0 140V0V140M0 140M245 0V140V0" fill="#99BC3C" mask="url(#path-1-inside-1_14890_3)"/>
<path d="M34.3551 48.3721C39.4708 42.2068 46.5285 33.7928 51.46 47.0117C56.5143 60.5705 61.7443 75.4204 50.5535 72.3538C39.4622 69.3094 32.0042 66.4121 29.5317 61.5836C27.4043 57.5274 32.2044 50.9605 34.3625 48.3647L34.3551 48.3721Z" fill="#FFCA28"/>
<path d="M32.3346 78.55C31.858 71.5272 32.5962 69.0315 37.4724 67.4092C45.1909 64.8442 60.6376 64.4501 56.3816 70.9626C51.4968 78.4339 42.7257 86.3376 37.5953 87.6201C34.0235 88.5158 32.6023 82.4592 32.3346 78.55Z" fill="#711612"/>
<path d="M45.9684 89.4054C49.6777 85.2417 57.2132 71.9597 57.0903 68.9314C56.9601 65.9031 50.3078 67.8651 43.6801 71.589C36.9676 75.3512 36.238 80.428 37.4663 87.5744C38.7879 95.2458 39.5249 96.6531 45.9684 89.4128V89.4054Z" fill="#D32927"/>
<path d="M88.2269 63.2986C86.9287 55.3949 85.085 44.5555 74.1559 53.4785C62.9504 62.6264 50.9293 72.7937 62.1361 75.8071C73.2421 78.7897 81.1374 80.0561 85.7151 77.144C89.6014 74.7174 88.7723 66.6283 88.2269 63.2986Z" fill="#3E5DA9"/>
<path d="M74.7172 90.3555C78.6808 84.5374 79.3023 82.012 75.9148 78.1485C70.5534 72.0375 57.4195 63.878 57.804 71.6508C58.2412 80.5664 61.813 91.8234 65.5924 95.5238C68.227 98.1048 72.5051 93.6001 74.7098 90.3555H74.7172Z" fill="#1B542C"/>
<path d="M57.4735 92.8278C56.3755 87.3581 56.5831 72.0832 58.2265 69.5343C59.8699 66.9842 64.6172 72.0449 68.4567 78.6044C72.343 85.2491 70.4158 89.9997 65.7459 95.5398C60.7309 101.489 59.3786 102.332 57.4821 92.8278H57.4735Z" fill="#6B7EBA"/>
<path d="M65.7386 95.5398C65.7386 95.5398 65.7005 95.5868 65.6845 95.609C65.6538 95.5781 65.6231 95.5547 65.5998 95.5238C62.0046 92.0013 58.595 81.6327 57.8887 72.9481C57.858 72.5082 57.8273 72.0746 57.804 71.6496C57.7806 71.1393 57.8113 70.6994 57.8961 70.3201C57.9341 70.1583 57.9575 70.0804 58.0042 69.9643C58.0729 69.7938 58.143 69.648 58.2191 69.5318C59.7397 67.1683 63.9256 71.3394 67.5822 77.181C67.8745 77.6444 68.1656 78.1238 68.4506 78.6106C72.3368 85.2553 70.4097 90.0059 65.7398 95.546V95.5386L65.7386 95.5398Z" fill="#99BC3C"/>
<path d="M57.0203 69.6109C56.9122 70.0285 56.7059 70.4758 56.3828 70.9626C56.1446 71.3184 55.9063 71.6817 55.6533 72.0437C50.6689 79.1826 42.4813 86.3981 37.5965 87.6275C37.5584 87.6349 37.5117 87.651 37.4737 87.651C37.4737 87.6275 37.4663 87.5966 37.4577 87.5657C36.2282 80.4194 36.9664 75.3426 43.6715 71.5804C44.1628 71.3024 44.6541 71.0392 45.138 70.7847C51.2438 67.5933 56.9589 66.1181 57.0817 68.9227V69.1933C57.0817 69.2477 57.0744 69.3095 57.0584 69.3712C57.0584 69.4095 57.0277 69.564 57.0117 69.6035L57.0191 69.6109H57.0203Z" fill="#F27149"/>
<path d="M107.533 94.6268V89.2707H109.443C109.873 89.2707 110.22 89.3461 110.494 89.487C110.767 89.6328 110.976 89.8255 111.11 90.0714C111.243 90.3172 111.312 90.5854 111.312 90.8955C111.312 91.1821 111.242 91.444 111.114 91.6899C110.981 91.9358 110.778 92.1285 110.499 92.2793C110.22 92.4251 109.867 92.5017 109.431 92.5017H108.449V94.628H107.532L107.533 94.6268ZM108.449 91.8234H109.396C109.733 91.8234 109.977 91.7418 110.139 91.5725C110.301 91.4095 110.378 91.1871 110.378 90.9189C110.378 90.6508 110.296 90.4396 110.145 90.2765C109.988 90.1134 109.739 90.0368 109.39 90.0368H108.449V91.8246V91.8234ZM110.314 94.6268L109.193 92.2607H110.192L111.365 94.6268H110.314Z" fill="#1B542C"/>
<path d="M117.264 94.6268V89.2707H120.707V90.0121H118.176V91.5478H120.475V92.278H118.176V93.8842H120.707V94.6255H117.264V94.6268Z" fill="#1B542C"/>
<path d="M128.529 94.7207C128.146 94.7207 127.803 94.6503 127.501 94.5168C127.199 94.3772 126.967 94.1845 126.798 93.9275C126.63 93.6705 126.543 93.3665 126.537 93.0169H127.495C127.501 93.1985 127.541 93.3554 127.622 93.4963C127.703 93.6359 127.82 93.7471 127.971 93.8286C128.122 93.9102 128.302 93.9509 128.523 93.9509C128.708 93.9509 128.865 93.9213 128.999 93.8694C129.133 93.8163 129.244 93.7347 129.319 93.6297C129.4 93.5247 129.435 93.39 129.435 93.2331C129.435 93.0638 129.395 92.923 129.314 92.818C129.233 92.7068 129.122 92.6141 128.988 92.5375C128.849 92.4621 128.698 92.3917 128.524 92.3336C128.35 92.2694 128.17 92.2113 127.984 92.1471C127.547 92.0013 127.228 91.8085 127.002 91.58C126.781 91.3464 126.672 91.0487 126.672 90.6805C126.672 90.3765 126.747 90.1134 126.893 89.886C127.038 89.6636 127.247 89.4944 127.514 89.3721C127.781 89.2497 128.089 89.1855 128.443 89.1855C128.797 89.1855 129.111 89.2497 129.378 89.3782C129.644 89.5067 129.854 89.6822 130.005 89.9095C130.156 90.1369 130.237 90.4062 130.25 90.7274H129.274C129.268 90.5816 129.234 90.447 129.164 90.3358C129.094 90.2184 128.996 90.1319 128.874 90.0615C128.746 89.9911 128.595 89.9565 128.416 89.9565C128.271 89.9503 128.137 89.9738 128.015 90.0207C127.894 90.0738 127.801 90.143 127.73 90.2369C127.66 90.3358 127.626 90.4593 127.626 90.6113C127.626 90.7509 127.66 90.8621 127.724 90.956C127.788 91.0499 127.875 91.1315 127.991 91.1957C128.108 91.2661 128.246 91.3304 128.409 91.3946C128.571 91.4589 128.757 91.5231 128.954 91.5935C129.22 91.6874 129.465 91.7925 129.68 91.921C129.895 92.0495 130.069 92.2076 130.197 92.4003C130.325 92.5993 130.388 92.8501 130.388 93.1602C130.388 93.4345 130.318 93.6915 130.18 93.9312C130.041 94.1709 129.831 94.3636 129.552 94.5094C129.273 94.6552 128.931 94.7256 128.524 94.7256H128.535H128.529V94.7207Z" fill="#1B542C"/>
<path d="M136.338 94.6268V89.2707H137.256V94.6268H136.338Z" fill="#1B542C"/>
<path d="M143.365 94.6268V89.2707H145.153C145.775 89.2707 146.286 89.3819 146.693 89.5982C147.099 89.8206 147.401 90.1233 147.598 90.5273C147.795 90.9239 147.888 91.4033 147.888 91.9519C147.888 92.5004 147.789 92.9625 147.598 93.3653C147.4 93.7619 147.104 94.0782 146.697 94.2944C146.297 94.5168 145.78 94.6218 145.152 94.6218H143.364V94.628L143.365 94.6268ZM144.277 93.8447H145.107C145.571 93.8447 145.931 93.7693 146.204 93.6174C146.47 93.4654 146.668 93.2492 146.778 92.9687C146.895 92.6821 146.953 92.3435 146.953 91.958C146.953 91.5725 146.895 91.2217 146.778 90.9362C146.662 90.6558 146.47 90.4334 146.204 90.2765C145.937 90.1183 145.571 90.043 145.107 90.043H144.277V93.8459V93.8447Z" fill="#1B542C"/>
<path d="M153.904 94.6268V89.2707H157.347V90.0121H154.815V91.5478H157.114V92.278H154.815V93.8842H157.347V94.6255H153.904V94.6268Z" fill="#1B542C"/>
<path d="M163.339 94.6268V89.2707H164.442L166.794 93.3653H166.818V89.2707H167.735V94.6268H166.632L164.28 90.5384H164.257V94.6268H163.339Z" fill="#1B542C"/>
<path d="M176.323 94.7207C175.789 94.7207 175.331 94.6033 174.941 94.3698C174.558 94.1363 174.262 93.815 174.053 93.3999C173.851 92.9848 173.745 92.5066 173.745 91.9568C173.745 91.407 173.85 90.9227 174.058 90.5087C174.267 90.0936 174.563 89.7674 174.946 89.5339C175.33 89.3004 175.788 89.183 176.322 89.183C176.955 89.183 177.478 89.3412 177.878 89.6501C178.279 89.9651 178.534 90.4037 178.645 90.9758H177.64C177.57 90.678 177.425 90.4383 177.199 90.2629C176.978 90.0874 176.682 89.9997 176.311 89.9997C175.974 89.9997 175.678 90.0813 175.434 90.2394C175.19 90.3976 174.998 90.6187 174.87 90.9115C174.736 91.2031 174.672 91.5478 174.672 91.9506C174.672 92.3534 174.742 92.6919 174.87 92.9848C175.004 93.2763 175.19 93.4987 175.434 93.6569C175.678 93.815 175.968 93.8904 176.311 93.8904C176.683 93.8904 176.979 93.8089 177.205 93.6445C177.426 93.4814 177.577 93.2591 177.646 92.9786H178.645C178.54 93.516 178.291 93.9423 177.889 94.2524C177.489 94.5625 176.961 94.7133 176.322 94.7133H176.328L176.322 94.7195L176.323 94.7207Z" fill="#1B542C"/>
<path d="M184.655 94.6268V89.2707H185.572V94.6268H184.655Z" fill="#1B542C"/>
<path d="M191.367 94.6268L193.149 89.2707H194.52L196.291 94.6268H195.322L193.842 89.9602H193.819L192.32 94.6268H191.367ZM192.238 93.1256L192.482 92.4078H195.113L195.358 93.1256H192.238Z" fill="#1B542C"/>
<path d="M202.022 94.6268V89.2707H202.94V93.9089H205.326V94.6268H202.022Z" fill="#1B542C"/>
<path d="M123.375 62.2533C122.766 62.388 122.232 61.8209 122.4 61.2142C123.16 58.4392 123.741 57.09 125.163 54.0358C126.034 52.1602 127.103 50.3848 128.078 48.5624C128.159 48.4166 128.235 48.2757 128.276 48.1015C125.942 48.8317 123.788 49.7781 122.881 52.3307C122.155 51.9045 121.87 50.9642 122.162 50.0759C122.528 48.9367 123.3 48.1077 124.263 47.4825C127.416 45.4142 130.848 44.983 134.465 45.906C135.289 46.116 136.056 46.5188 136.619 47.1971C137.688 48.482 137.648 50.3279 136.451 51.5363C135.853 52.1442 135.099 52.5877 134.407 53.0955C134.262 53.2006 134.094 53.2648 133.862 53.3822C134.047 53.481 134.158 53.5453 134.275 53.6046C134.948 53.9258 135.395 54.4509 135.645 55.1527C135.709 55.3343 135.72 55.5444 136.005 55.5382C136.295 55.532 136.546 55.5382 136.725 55.2231C137.074 54.6103 137.428 53.9851 137.864 53.4353C138.485 52.6532 139.239 52.0157 140.256 51.7649C141.719 51.4029 143.043 52.4654 142.823 53.8677C142.707 54.6214 142.185 55.123 141.627 55.5678C140.663 56.3388 139.549 56.5427 138.353 56.3858C138.184 56.3623 138.022 56.3512 137.748 56.3277C137.719 56.9875 137.627 57.6238 137.684 58.244C137.742 58.9038 138.323 59.1966 139.032 59.0212C140.06 58.7642 140.931 58.2391 141.691 57.5089C142.155 57.0653 142.498 56.5044 142.679 55.8854C143.479 53.1054 144.716 50.5404 146.632 48.356C147.184 47.7247 147.852 47.1761 148.542 46.6918C148.838 46.4817 149.32 46.4755 149.715 46.4928C150.139 46.5101 150.441 46.9895 150.279 47.4627C150.006 48.2634 149.751 49.1159 149.263 49.7818C148.154 51.2941 146.917 52.7199 145.71 54.163C145.199 54.7709 144.607 55.3084 144.124 55.9323C143.637 56.5575 143.63 57.305 143.858 58.0463C143.951 58.3441 144.194 58.4553 144.502 58.3379C145.391 58.0105 146.093 57.4323 146.686 56.7082C146.774 56.6032 146.808 56.4512 146.844 56.3166C147.761 53.0918 149.207 50.1488 151.529 47.7012C151.994 47.2169 152.632 46.8833 153.243 46.562C153.62 46.3631 154.079 46.3928 154.416 46.7548C154.741 47.1057 154.625 47.4912 154.491 47.8705C153.927 49.4828 152.958 50.8432 151.872 52.1232C150.81 53.3735 149.677 54.5646 148.58 55.7915C148.012 56.4278 147.889 57.1753 148.099 57.9821C148.192 58.3379 148.575 58.4961 148.906 58.3379C149.974 57.8301 150.839 57.1234 151.367 56.0015C152.099 54.4596 153.162 53.1808 154.677 52.3394C155.333 51.9774 156.013 51.8143 156.727 51.965C157.221 52.0762 157.726 52.5494 157.779 53.0511C157.837 53.612 157.53 54.126 157.047 54.3298C156.751 54.4522 156.408 54.2767 156.35 53.9616C156.269 53.5527 156.031 53.4007 155.607 53.4823C154.841 53.628 154.307 54.1593 153.789 54.6795C152.959 55.5147 152.459 56.5427 152.21 57.688C152.187 57.7992 152.175 57.9154 152.175 58.0266C152.187 58.4355 152.408 58.5937 152.75 58.3774C153.174 58.1032 153.592 57.7992 153.947 57.4434C154.539 56.8355 155.073 56.1695 155.648 55.5394C156.025 55.1193 156.339 55.0786 156.908 55.3763C156.618 55.9953 156.31 56.6082 156.031 57.2395C155.909 57.5076 155.822 57.8004 155.752 58.0859C155.677 58.3836 155.85 58.5183 156.101 58.3836C156.583 58.1205 157.053 57.835 157.489 57.5014C157.878 57.2037 158.203 56.812 158.581 56.497C158.698 56.3981 158.9 56.3981 159.062 56.3512C159.062 56.5377 159.126 56.7601 159.045 56.8948C158.801 57.2741 158.517 57.6312 158.221 57.9697C157.385 58.9223 156.462 59.781 155.347 60.3938C155.102 60.5285 154.83 60.6397 154.563 60.704C154.139 60.8028 153.942 60.6397 153.942 60.2011C153.942 59.7106 153.988 59.2139 154.023 58.6245C153.837 58.7827 153.715 58.8815 153.593 58.9804C152.937 59.5117 152.304 60.0788 151.613 60.5569C150.985 60.9894 150.452 60.7151 150.41 59.949C150.387 59.5401 150.41 59.1311 150.41 58.606C149.952 58.9569 149.952 58.9742 149.278 59.3881C148.906 59.6105 148.593 59.9083 148.262 60.1937C148.169 60.269 148.064 60.3222 147.954 60.3753C146.932 60.8362 146.508 60.5853 146.444 59.4647C146.421 59.1027 146.444 58.7407 146.444 58.2551C145.87 58.6987 145.382 59.0792 144.894 59.4585C144.581 59.7044 144.285 59.9725 143.947 60.1764C143.675 60.3395 143.355 60.4568 143.047 60.5211C142.577 60.6199 142.351 60.468 142.246 59.996C142.148 59.5759 142.118 59.1373 142.048 58.6814C141.474 59.1546 140.969 59.6389 140.405 60.0306C139.696 60.5211 138.883 60.8312 138.007 60.7077C136.556 60.5087 135.911 59.7674 135.993 58.2366C136.027 57.6584 136.127 57.0863 136.115 56.408C136.004 56.4957 135.813 56.5661 135.795 56.6712C135.54 58.0673 134.716 59.078 133.675 59.9651C131.968 61.4193 130.086 62.5412 127.857 62.9613C127.369 63.0552 126.858 63.0601 126.359 63.0255C125.79 62.9848 125.343 62.5288 125.307 61.963C125.254 61.0462 125.725 60.3506 126.276 59.7019C127.264 58.5455 128.512 57.7399 129.865 57.1147C130.783 56.6885 131.764 56.4018 132.716 56.0522C132.844 56.0052 132.978 55.9644 133.099 55.9237C132.995 55.1996 132.542 54.761 131.88 54.7672C131.514 54.7672 131.154 54.8488 130.788 54.8957C130.015 54.9896 129.249 55.1057 128.471 55.1589C128.286 55.17 127.977 55.0366 127.926 54.8957C127.868 54.7499 128.007 54.4349 128.152 54.3286C128.541 54.0605 128.965 53.8146 129.412 53.6565C130.4 53.3056 131.426 53.0782 132.391 52.6866C133.517 52.2257 134.371 51.4078 134.707 50.1871C134.963 49.258 134.463 48.3115 133.546 48.0323C132.931 47.8457 132.269 47.7988 131.624 47.7407C131.473 47.7234 131.247 47.8865 131.148 48.0274C130.102 49.6274 129.016 51.2101 128.065 52.8633C126.155 56.1807 125.376 58.1958 124.169 61.6652C124.064 61.9568 123.82 62.1792 123.519 62.2496L123.397 62.2793H123.408L123.379 62.2558L123.375 62.2533ZM133.189 56.8849C131.9 57.2296 130.762 57.7263 129.746 58.4615C129.014 58.9927 128.33 59.6006 127.941 60.4531C127.743 60.8856 127.859 61.1129 128.324 61.1599C128.585 61.1833 128.869 61.1772 129.114 61.1018C130.501 60.6928 131.639 59.9046 132.429 58.6715C132.771 58.1402 133.085 57.5904 133.184 56.8787L133.19 56.8849H133.189ZM144.232 54.5955C144.273 54.6189 144.313 54.6362 144.354 54.6597C145.631 53.1116 147.002 51.6339 147.931 49.8238C148.192 49.3099 148.354 48.7427 148.563 48.2003C148.505 48.1534 148.446 48.1126 148.389 48.0657C148.099 48.293 147.773 48.4858 147.524 48.7551C146.409 49.9523 145.648 51.3781 144.963 52.8497C144.697 53.4217 144.475 54.0172 144.231 54.6016V54.5955H144.232ZM148.634 54.572C148.675 54.5547 148.722 54.5423 148.745 54.5139C150.133 52.9658 151.491 51.3893 152.409 49.4964C152.6 49.0998 152.682 48.6377 152.809 48.2053C152.745 48.1756 152.675 48.1472 152.612 48.1176C150.515 49.7584 149.569 52.1541 148.628 54.5658L148.634 54.572ZM138.118 55.6173C138.599 55.5641 139.006 55.5827 139.372 55.4776C140.057 55.2911 140.724 55.039 141.09 54.3447C141.235 54.0642 141.224 53.801 141.02 53.5564C140.818 53.3105 140.556 53.229 140.26 53.329C139.191 53.6849 138.536 54.4447 138.118 55.6185V55.6173Z" fill="#1B542C"/>
<path d="M178.033 58.1526C177.209 58.9408 176.43 59.7007 175.629 60.4358C175.427 60.6224 175.159 60.7509 174.897 60.8559C174.288 61.1018 173.892 60.8559 173.841 60.1962C173.807 59.7934 173.835 59.3782 173.835 58.9347C173.219 59.4017 172.656 59.8576 172.057 60.2728C171.749 60.489 171.395 60.6644 171.042 60.7806C170.437 60.9844 170.095 60.7633 170.054 60.127C170.02 59.6365 170.02 59.1225 170.118 58.6431C170.559 56.4994 171.512 54.6017 173.009 53.0004C173.363 52.6211 173.793 52.5741 174.234 52.825C174.594 53.0288 174.611 53.187 174.309 53.4674C173.468 54.2446 172.723 55.0971 172.299 56.1782C172.078 56.7453 171.963 57.3458 171.835 57.9425C171.801 58.0945 171.888 58.3626 171.997 58.4269C172.136 58.5022 172.404 58.4849 172.543 58.3923C173.164 57.9771 173.803 57.5632 174.354 57.0604C174.639 56.7972 174.761 56.3598 174.953 55.9978C175.608 54.724 176.503 53.6552 177.669 52.8435C178.291 52.4049 178.981 52.0898 179.777 52.2541C180.056 52.3122 180.143 52.1491 180.265 51.9625C180.95 50.9049 181.583 49.8078 182.361 48.8206C182.896 48.1435 183.639 47.6345 184.29 47.0513C184.313 47.034 184.336 47.0167 184.365 47.0044C184.852 46.782 185.363 46.5546 185.845 46.9401C186.321 47.3194 186.194 47.8507 186.036 48.3536C185.647 49.5681 184.904 50.5788 184.114 51.5363C182.813 53.1017 181.443 54.614 180.09 56.1387C179.62 56.6638 179.434 57.856 179.76 58.4639C179.888 58.7036 180.056 58.7913 180.318 58.6801C181.438 58.1958 182.361 57.5175 182.913 56.3611C183.679 54.761 184.771 53.4118 186.368 52.5581C187.007 52.2195 187.68 52.033 188.406 52.243C189.398 52.5346 189.713 53.6157 188.998 54.3459C188.836 54.5152 188.562 54.5967 188.33 54.656C188.127 54.7091 187.976 54.6214 187.929 54.3459C187.825 53.7269 187.448 53.5453 186.878 53.8319C185.043 54.7487 184.119 56.3141 183.778 58.2823C183.754 58.4108 183.841 58.6567 183.923 58.6789C184.074 58.7259 184.312 58.7024 184.427 58.6035C185.066 58.0488 185.694 57.4817 186.292 56.8862C186.635 56.5476 186.907 56.1448 187.239 55.7939C187.593 55.4085 187.924 55.3677 188.482 55.6358C188.237 56.1671 187.982 56.6934 187.745 57.2309C187.606 57.541 187.478 57.8622 187.385 58.1835C187.344 58.3231 187.402 58.4985 187.415 58.6505C187.559 58.6208 187.717 58.6208 187.851 58.5566C188.658 58.1773 189.296 57.5756 189.901 56.9331C189.941 56.8923 189.971 56.8392 190.017 56.8046C190.209 56.6415 190.411 56.4129 190.679 56.6292C190.958 56.8565 190.72 57.0616 190.586 57.2482C189.605 58.6085 188.432 59.7662 186.986 60.6187C186.736 60.7645 186.445 60.8646 186.162 60.9288C185.726 61.0227 185.5 60.8473 185.5 60.3975C185.506 59.8897 185.581 59.3869 185.634 58.821C185.193 59.2238 184.814 59.6266 184.379 59.9713C183.939 60.3222 183.468 60.6434 182.98 60.9177C182.493 61.192 182.069 60.9523 182.022 60.3926C181.982 59.9194 182.011 59.4351 182.011 58.8445C181.413 59.288 180.915 59.6908 180.385 60.0541C179.979 60.3284 179.561 60.615 179.102 60.7719C178.452 60.9992 178.114 60.7657 178.062 60.0825C178.016 59.44 178.056 58.7913 178.056 58.1316H178.062L178.033 58.155V58.1526ZM179.613 53.1178L179.532 53.0128C179.259 53.124 178.951 53.1882 178.712 53.3513C176.999 54.5078 176.198 56.2424 175.721 58.1761C175.687 58.3045 175.751 58.5208 175.843 58.585C175.935 58.6493 176.156 58.6258 176.267 58.5554C177.359 57.8659 178.328 57.0715 178.706 55.7519C178.776 55.5061 178.887 55.2725 178.968 55.0341C179.183 54.3978 179.398 53.7553 179.606 53.1178H179.613ZM180.158 54.7301C180.205 54.7647 180.251 54.8006 180.297 54.8352C180.778 54.2742 181.278 53.7257 181.742 53.1474C182.63 52.049 183.525 50.9457 184.076 49.62C184.221 49.2753 184.279 48.896 184.372 48.5339C184.302 48.5043 184.233 48.4759 184.163 48.4462C182.113 50.0759 181.202 52.4531 180.157 54.7314L180.158 54.7301Z" fill="#1B542C"/>
<path d="M170.409 45.9455C170.288 46.0913 170.183 46.2606 170.037 46.3841C168.725 47.4467 167.819 48.8379 166.948 50.2513C165.758 52.1911 164.776 54.2347 164.167 56.4364C164.005 57.0319 163.935 57.6633 163.894 58.2761C163.854 58.889 164.284 59.1348 164.765 58.7605C165.474 58.2057 166.205 57.6386 166.786 56.9615C169.347 53.9999 171.327 50.6764 172.715 47.0031C173.115 45.9406 173.969 45.2919 174.921 45.2795C175.484 45.2734 175.617 45.4896 175.362 45.9863C173.364 49.8646 171.082 53.5613 168.3 56.9319C167.185 58.2811 166.001 59.5549 164.549 60.5421C164.206 60.7756 163.806 60.9511 163.406 61.0734C162.72 61.2772 162.158 60.9152 161.943 60.2085C161.647 59.2275 161.704 58.2341 161.89 57.2593C162.546 53.8134 163.934 50.7171 166.373 48.1534C167.25 47.2366 168.225 46.4422 169.439 46.0097C169.724 45.9047 170.037 45.8751 170.333 45.817C170.356 45.8578 170.38 45.9047 170.403 45.9455H170.409Z" fill="#1B542C"/>
<path d="M174.241 51.1199C174.241 50.3378 175.095 49.4841 175.868 49.4964C176.321 49.5026 176.605 49.7942 176.6 50.2501C176.593 50.9865 175.793 51.839 175.061 51.8859C174.596 51.9156 174.236 51.5758 174.236 51.115L174.243 51.1212L174.241 51.1199Z" fill="#1B542C"/>
<path d="M112.818 69.4182C112.418 69.9359 112.275 72.6108 112.275 75.114V79.2271C112.275 81.7303 112.419 84.4052 112.818 84.9229V84.9797H111.617C110.445 84.9797 109.758 84.0877 109.501 82.5062C108.671 84.4052 106.87 85.4122 104.868 85.4122C101.178 85.4122 96.8592 81.9601 96.8592 74.2207C96.8592 66.4813 101.436 62.6561 107.727 62.6561C109.042 62.6561 110.416 62.8291 111.845 63.117V65.5052C109.471 64.182 107.412 63.3764 105.697 63.3764C101.864 63.3764 99.7763 66.8569 99.7763 73.9056C99.7763 81.5585 103.152 84.6943 105.897 84.6943C107.785 84.6943 109.357 83.2277 109.357 80.6961V75.1152C109.357 72.612 109.213 69.9371 108.814 69.4194V69.3626H112.818V69.4194V69.4182Z" fill="#99BC3C"/>
<path d="M118.251 75.4315C118.937 71.778 120.853 69.0166 124.343 69.0166V71.3172C120.397 71.3172 118.509 72.9567 118.251 77.7617V79.2283C118.251 81.7315 118.394 84.4064 118.795 84.9241V84.981H114.791V84.9241C115.191 84.4064 115.334 81.7315 115.334 79.2283V75.1152C115.334 72.612 115.191 69.9371 114.791 69.4194V69.3626H118.251V75.4328V75.4315Z" fill="#99BC3C"/>
<path d="M123.885 81.3003C123.885 77.4454 128.576 72.4687 128.576 70.6846C129.462 70.6846 130.177 71.2023 130.177 72.4687C130.177 74.1367 125.859 79.0566 125.859 82.9695C125.859 84.2928 127.06 85.0403 128.49 85.0403C130.778 85.0403 133.723 83.3723 133.723 80.5812V75.5748C133.723 72.2957 133.123 69.4478 130.864 69.4478C129.891 69.4478 128.604 69.9939 126.917 71.2604L126.403 69.8222C128.061 69.3045 129.464 69.0747 130.635 69.0747C135.154 69.0747 136.642 72.4403 136.642 76.4966V79.2296C136.642 81.7327 136.785 84.4077 137.184 84.9254V84.9822H133.781V82.479H133.695C132.522 84.4633 130.377 85.4418 128.405 85.4418C126.031 85.4418 123.914 84.0321 123.886 81.2991L123.885 81.3003Z" fill="#99BC3C"/>
<path d="M138.87 84.9254C139.27 84.4077 139.413 81.7327 139.413 79.2296V75.1165C139.413 72.6133 139.27 69.9383 138.87 69.4206V69.3638H142.33V74.1392H142.444C143.359 70.5425 145.761 69.0475 147.992 69.0475C150.395 69.0475 152.597 70.7736 152.597 73.5646V74.1404H152.653C153.626 70.9181 156.199 69.0772 158.516 69.0772C160.832 69.0772 162.892 70.5438 162.892 73.766V79.232C162.892 81.7352 163.036 84.4102 163.435 84.9278V84.9847H159.431V84.9278C159.831 84.4102 159.974 81.7352 159.974 79.232V73.766C159.974 71.4642 158.744 70.3708 157.285 70.3708C155.141 70.3708 152.594 72.701 152.594 76.9871V79.2308C152.594 81.734 152.737 84.4089 153.137 84.9266V84.9834H149.133V84.9266C149.533 84.4089 149.676 81.734 149.676 79.2308V73.7648C149.676 71.1467 148.446 69.9099 146.987 69.9099C144.899 69.9099 142.326 72.4699 142.326 76.9871V79.2308C142.326 81.734 142.47 84.4089 142.87 84.9266V84.9834H138.866V84.9266L138.87 84.9254Z" fill="#99BC3C"/>
<path d="M165.094 84.9254C165.495 84.4077 165.637 81.7328 165.637 79.2296V75.1165C165.637 72.6133 165.495 69.9383 165.094 69.4206V69.3638H168.556V79.2308C168.556 81.734 168.698 84.4089 169.099 84.9266V84.9834H165.094V84.9254ZM165.352 66.186C165.352 65.5238 165.925 64.8047 167.097 64.8047C168.268 64.8047 168.812 65.5238 168.812 66.186C168.812 66.9051 168.24 67.5958 167.097 67.5958C165.953 67.5958 165.352 66.9051 165.352 66.186Z" fill="#99BC3C"/>
<path d="M170.757 84.9254C171.157 84.4077 171.3 81.7328 171.3 79.2296V75.1165C171.3 72.6133 171.157 69.9383 170.757 69.4206V69.3638H174.217V73.9378H174.275C175.161 70.6871 177.706 69.0475 180.023 69.0475C182.339 69.0475 184.513 70.7451 184.513 74.1676V79.2308C184.513 81.734 184.656 84.4089 185.056 84.9266V84.9834H181.052V84.9266C181.452 84.4089 181.595 81.734 181.567 79.2308V74.1676C181.567 70.9453 180.279 70.3411 178.85 70.3411C176.79 70.3411 174.245 72.297 174.217 76.9006V79.2308C174.217 81.734 174.36 84.4089 174.761 84.9266V84.9834H170.757V84.9254Z" fill="#99BC3C"/>
<path d="M186.714 84.9254C187.115 84.4077 187.257 81.7328 187.257 79.2296V68.8733C187.257 66.3701 187.115 63.6952 186.714 63.1775V63.1207H190.176V73.9378H190.232C191.119 70.6871 193.664 69.0475 195.98 69.0475C198.297 69.0475 200.471 70.7451 200.471 74.1676V79.2308C200.471 81.734 200.613 84.4089 201.014 84.9266V84.9834H197.01V84.9266C197.41 84.4089 197.553 81.734 197.524 79.2308V74.1676C197.524 70.9453 196.237 70.3411 194.807 70.3411C192.748 70.3411 190.203 72.297 190.174 76.9006V79.2308C190.174 81.734 190.317 84.4089 190.717 84.9266V84.9834H186.713V84.9266L186.714 84.9254Z" fill="#99BC3C"/>
<path d="M202.7 81.3003C202.7 77.4454 207.391 72.4687 207.391 70.6846C208.278 70.6846 208.993 71.2023 208.993 72.4687C208.993 74.1367 204.674 79.0566 204.674 82.9695C204.674 84.2928 205.875 85.0403 207.305 85.0403C209.593 85.0403 212.539 83.3723 212.539 80.5812V75.5748C212.539 72.2957 211.938 69.4478 209.679 69.4478C208.707 69.4478 207.419 69.9939 205.733 71.2604L205.218 69.8222C206.876 69.3045 208.279 69.0747 209.451 69.0747C213.97 69.0747 215.457 72.4403 215.457 76.4966V79.2296C215.457 81.7327 215.601 84.4077 216 84.9254V84.9822H212.596V82.479H212.511C211.338 84.4633 209.193 85.4418 207.22 85.4418C204.846 85.4418 202.73 84.0321 202.702 81.2991L202.7 81.3003Z" fill="#99BC3C"/>
</svg>
