<svg width="503" height="255" viewBox="0 0 503 255" fill="none" xmlns="http://www.w3.org/2000/svg">
<mask id="mask0_4189_96" style="mask-type:alpha" maskUnits="userSpaceOnUse" x="0" y="0" width="503" height="255">
<g clip-path="url(#clip0_4189_96)">
<path d="M13.2974 480C13.2974 480 13.1632 480 13.0961 480C8.71088 479.91 4.88502 477.311 1.46188 472.046C-10.5303 453.674 -15.3406 409.693 -20.4641 363.136C-26.9972 303.673 -33.7316 242.216 -56.463 241.297H-57V218.87L-56.3959 218.915C-32.6353 220.842 -24.5137 280.058 -16.6383 337.303C-10.7317 380.275 -4.64608 424.727 7.92781 443.189C11.4404 448.364 15.2887 450.941 19.6515 451.075C19.7634 451.075 19.8976 451.075 20.0095 451.075C32.74 451.075 48.8489 430.351 67.4636 406.355C90.4636 376.735 119.102 339.857 152.707 327.848C157.852 326.011 163.558 325.294 170.628 325.585C199.467 326.795 233.654 348.864 269.854 372.232C325.34 408.035 382.728 445.071 425.462 408.909C450.095 388.162 475.243 378.752 500.167 381.015C536.993 384.331 560.642 412.382 560.888 412.673L561.022 412.83V443.883L560.016 442.651C559.792 442.36 536.255 413.48 499.741 410.791C474.616 408.954 449.289 419.686 424.455 442.718C404.341 461.404 379.059 464.272 347.222 451.478C319.188 440.231 289.61 418.566 260.994 397.617C217.813 366.004 177.049 336.115 147.158 345.839C112.859 356.952 83.662 398.356 60.1922 431.628C41.1524 458.626 26.0951 479.978 13.2974 479.978V480ZM-55.8813 240.222C-32.6353 242.082 -25.8785 303.561 -19.3454 363.024C-14.468 407.408 -9.434 453.293 2.40156 471.441C5.62334 476.37 9.13598 478.813 13.1185 478.88C13.1856 478.88 13.2303 478.88 13.2974 478.88C25.5134 478.88 41.1748 456.676 59.2749 431C82.8342 397.595 112.166 356.033 146.822 344.786C177.25 334.905 218.238 364.95 261.665 396.721C319.59 439.133 379.462 482.98 423.716 441.912C448.775 418.655 474.415 407.811 499.853 409.693C532.608 412.113 555.026 435.325 559.904 440.814V413.278C557.98 411.06 535.024 385.317 500.077 382.18C475.444 379.984 450.609 389.282 426.222 409.805C382.862 446.505 325.117 409.245 269.272 373.218C233.206 349.939 199.154 327.96 170.605 326.75C163.67 326.459 158.121 327.153 153.109 328.946C119.818 340.843 91.2914 377.564 68.3809 407.072C48.8265 432.255 33.3217 452.218 20.0542 452.218C19.92 452.218 19.7857 452.218 19.6515 452.218C14.886 452.061 10.7692 449.328 7.03288 443.838C-5.69763 425.153 -11.8056 380.567 -17.7346 337.46C-25.4758 281.133 -33.4631 222.925 -55.859 220.08V240.177L-55.8813 240.222Z" fill="#AC8136"/>
<path d="M26.99 424.525C26.7439 424.525 26.5202 424.525 26.2741 424.525C21.1058 424.279 16.6087 421.366 12.5591 415.653C-0.909707 396.676 -8.09159 353.591 -15.0497 311.918C-24.111 257.653 -33.4855 201.551 -56.5078 198.773L-57 198.705V176.188L-56.3512 176.301C-32.3892 180.154 -22.1421 231.663 -11.2686 286.175C-3.28129 326.212 4.95214 367.617 19.0251 386.683C23.2536 392.419 27.9073 395.399 33.1875 395.735C33.5454 395.757 33.881 395.78 34.239 395.78C48.2448 395.78 65.5619 377.811 85.5414 357.086C108.139 333.651 133.734 307.078 164.475 293.994C169.845 291.709 175.662 290.924 181.143 290.319C213.249 286.757 251.374 304.591 288.245 321.821C338.093 345.144 389.664 369.275 429.019 342.904C468.374 316.533 502.135 320.969 523.524 329.327C546.681 338.378 560.732 353.905 560.866 354.062L561 354.218V385.317L560.016 384.174C559.881 384.017 545.741 367.796 522.495 358.856C501.062 350.634 467.255 347.071 427.923 376.892C386.174 408.551 331.247 377.945 278.132 348.371C241.015 327.691 205.911 308.131 175.93 309.162C170.784 309.341 164.743 309.812 158.993 312.052C126.932 324.599 99.2339 356.75 76.9947 382.561C56.8138 405.974 40.8168 424.57 27.0124 424.57L26.99 424.525ZM-55.8813 197.697C-32.3892 201.26 -23.4398 254.92 -13.9534 311.716C-7.01767 353.255 0.164219 396.205 13.4764 414.981C17.3247 420.403 21.5309 423.159 26.3412 423.383C26.5425 423.383 26.7663 423.383 26.99 423.383C40.3022 423.383 56.9481 404.07 76.1669 381.754C98.4956 355.832 126.283 323.591 158.613 310.932C164.497 308.624 170.672 308.131 175.908 307.952C206.291 306.966 241.417 326.526 278.692 347.295C331.493 376.713 386.084 407.117 427.274 375.906C467.054 345.749 501.285 349.379 522.988 357.736C542.989 365.443 556.324 378.483 559.926 382.292V354.577C558.405 352.941 544.802 338.759 523.099 330.29C501.979 322.045 468.598 317.676 429.668 343.778C389.776 370.507 337.937 346.242 287.798 322.784C251.083 305.6 213.115 287.855 181.3 291.373C175.908 291.977 170.18 292.739 164.945 294.98C134.427 307.997 108.899 334.48 86.3692 357.826C66.2107 378.73 48.737 396.855 34.2614 396.855C33.881 396.855 33.5231 396.855 33.1427 396.81C27.5046 396.429 22.5824 393.338 18.1525 387.288C3.94534 368.02 -4.33285 326.481 -12.3202 286.331C-22.5225 235.069 -33.0828 182.081 -55.8366 177.466V197.675L-55.8813 197.697Z" fill="#AC8136"/>
<path d="M41.9802 369.319C41.3762 369.319 40.7721 369.297 40.168 369.23C33.9482 368.692 28.5562 365.331 23.6787 358.946C8.71089 339.409 -0.641227 299.483 -9.68011 260.857C-21.2472 211.566 -33.1946 160.572 -56.5525 155.912L-57 155.822V133.081L-56.3064 133.238C-32.0983 139.019 -19.3902 185.666 -5.94374 235.046C4.12432 271.97 14.528 310.125 30.0775 329.73C35.3129 336.317 41.0406 339.857 47.6407 340.596C64.13 342.389 83.6173 326.616 108.34 306.608C128.073 290.656 150.424 272.552 176.243 259.647C180.517 257.519 185.17 256.264 189.668 255.076L191.636 254.561C228.62 244.546 270.167 256.578 310.328 268.183C355.209 281.178 397.607 293.434 432.554 276.406C471.126 257.631 503.948 263.658 524.688 272.037C547.151 281.111 560.687 294.823 560.821 294.957L560.978 295.114V326.347L560.016 325.316C559.881 325.182 546.234 310.708 523.636 301.746C502.807 293.479 469.895 288.325 431.346 310.663C393.557 332.575 345.118 314.248 298.291 296.526C260.099 282.074 220.61 267.108 186.602 273.583L186.311 273.628C180.83 274.658 175.684 275.644 170.829 277.885C142.325 291.059 118.14 313.307 96.7952 332.911C74.7797 353.143 57.1942 369.297 41.9802 369.297V369.319ZM-55.8813 154.904C-32.1207 160.236 -20.6879 208.989 -8.60618 260.588C0.410326 299.08 9.74007 338.893 24.5513 358.251C29.2274 364.368 34.3733 367.594 40.2575 368.11C40.7944 368.154 41.3538 368.177 41.9131 368.177C56.7691 368.177 75.0259 351.395 96.0345 332.082C117.446 312.411 141.699 290.118 170.359 276.854C175.326 274.546 180.562 273.561 186.11 272.508L186.401 272.463C220.744 265.965 260.368 280.954 298.693 295.473C345.275 313.105 393.467 331.343 430.786 309.7C469.761 287.116 503.03 292.358 524.106 300.715C543.504 308.423 556.369 320.14 559.881 323.568V295.585C558.315 294.039 545.204 281.514 524.24 273.068C503.724 264.8 471.238 258.84 433.068 277.414C397.718 294.621 355.142 282.298 310.037 269.259C270.011 257.675 228.642 245.711 191.95 255.637L189.981 256.174C185.327 257.407 180.92 258.594 176.758 260.655C151.051 273.516 128.745 291.552 109.056 307.482C84.1319 327.646 64.3761 343.554 47.5289 341.716C40.6378 340.955 34.6417 337.258 29.2274 330.447C13.5212 310.663 3.07277 272.373 -7.01766 235.36C-20.2628 186.786 -32.7695 140.878 -55.8813 134.515V154.904Z" fill="#AC8136"/>
<path d="M81.8498 260.857C68.3809 260.857 56.523 255.704 45.8732 243.605C27.9744 223.261 14.349 190.214 1.17103 158.264C-16.0789 116.345 -32.3892 76.7552 -56.6197 68.2637L-57 68.1292V44.0663L-56.2393 44.3575C-31.2929 53.9917 -13.6402 91.6769 5.08638 131.558C19.204 161.648 33.7916 192.746 52.2497 213.067C68.5823 231.013 87.6892 236.973 112.367 231.82C134.383 227.227 161.343 213.784 199.803 188.242C202.241 186.629 204.814 185.083 207.32 183.605C209.11 182.529 210.922 181.476 212.69 180.333C272.83 142.626 334.29 142.424 388.523 142.29C406.69 142.245 423.851 142.178 439.758 140.699C510.615 134.089 560.284 173.589 560.776 173.993L560.978 174.172V206.525L560.06 205.718C559.568 205.293 509.205 162.499 438.17 176.368C414.566 180.983 387.986 179.751 359.863 178.429C312.297 176.211 258.399 173.702 207.947 200.52C206.448 201.327 204.926 202.089 203.405 202.85C200.429 204.352 197.342 205.92 194.5 207.69L186.244 212.821C142.661 239.908 108.989 260.857 81.8274 260.857H81.8498ZM-55.8813 67.3451C-31.3824 76.2622 -15.0497 115.897 2.22258 157.816C15.3558 189.699 28.9365 222.656 46.7234 242.843C78.2476 278.646 120.981 252.074 185.685 211.835L193.941 206.704C196.849 204.912 199.937 203.343 202.935 201.82C204.434 201.058 205.955 200.296 207.454 199.49C258.175 172.514 312.229 175.046 359.93 177.264C387.986 178.563 414.499 179.796 437.968 175.225C504.261 162.275 552.677 198.325 559.881 204.083V174.687C556.324 171.909 507.908 135.456 439.87 141.797C423.918 143.276 406.735 143.343 388.545 143.388C334.469 143.544 273.165 143.724 213.294 181.274C211.504 182.395 209.692 183.47 207.902 184.546C205.418 186.024 202.845 187.548 200.429 189.161C161.835 214.792 134.763 228.28 112.613 232.895C87.5102 238.138 68.0677 232.066 51.4442 213.784C32.8519 193.351 18.2196 162.163 4.07957 132.006C-14.3562 92.7747 -31.7627 55.6721 -55.8813 45.7242V67.3675V67.3451Z" fill="#AC8136"/>
<path d="M112.703 209.303C91.448 209.303 73.2136 200.61 56.9705 183.313C37.774 162.857 22.1573 133.597 7.07762 105.299C-12.9019 67.7931 -31.7851 32.3485 -56.6644 21.8629L-57 21.7285V-3.81317L-56.2169 -3.45469C-30.5993 8.26311 -10.2394 41.9154 11.3286 77.5617C40.1904 125.262 70.0142 174.575 116.775 182.395C147.874 187.593 182.709 173.679 223.228 139.87C262.337 107.226 304.399 85.3586 348.295 74.8507C383.399 66.4488 419.734 65.2614 456.292 71.3331C518.513 81.6618 560.351 109.847 560.754 110.139L561 110.318V144.037L560.105 143.365C559.635 143.007 511.286 107.428 441.57 106.621L436.201 106.554C373.913 105.747 296.411 104.784 218.619 161.424C216.202 163.194 213.741 164.874 211.37 166.51C209.669 167.675 207.991 168.84 206.336 170.027C169.33 196.308 138.745 209.348 112.703 209.348V209.303ZM-55.8813 20.9667C-30.823 31.7883 -11.9175 67.2554 8.08443 104.784C23.1418 133.014 38.6913 162.208 57.7983 182.551C93.4616 220.528 139.059 216.383 205.709 169.064C207.365 167.876 209.065 166.734 210.766 165.546C213.137 163.911 215.576 162.23 217.992 160.483C296.076 103.641 373.801 104.605 436.246 105.411L441.615 105.478C506.498 106.24 552.99 136.957 559.926 141.797V110.878C556.413 108.548 515.627 82.2892 456.091 72.4086C398.904 62.9313 312.207 67.0762 223.988 140.699C183.179 174.755 148.053 188.735 116.618 183.47C69.3654 175.561 39.3849 126.024 10.3889 78.1218C-10.8659 42.9908 -30.9573 9.80906 -55.8813 -2.08799V20.9667Z" fill="#AC8136"/>
<path d="M135.322 162.835C131.743 162.835 128.208 162.589 124.695 162.118C79.2097 155.822 48.737 110.34 19.2712 66.3592C-5.02643 30.0632 -27.9816 -4.21644 -56.5525 -9.52642L-57 -9.61604V-17.6594H-56.4854C-23.8649 -19.8327 2.02122 15.5223 29.4511 52.9163C59.0064 93.178 89.591 134.829 132.705 139.624C160.336 142.693 189.847 130.169 222.915 101.356C273.881 56.9492 319.434 52.6026 363.509 48.4129C381.923 46.6653 399.329 45.0073 416.825 40.5039C497.683 19.7345 560.195 73.5512 560.821 74.089L561 74.2458V93.6709L560.083 92.954C559.479 92.4835 498.6 45.2762 416.4 55.1119C409.554 55.9409 402.752 56.6355 395.548 57.3749C343.955 62.7072 285.493 68.779 223.787 121.408C191.189 149.213 162.126 162.835 135.3 162.835H135.322ZM-55.8813 -10.5571C-27.0867 -4.88859 -4.10912 29.4134 20.2108 65.7319C49.5425 109.511 79.8585 154.792 124.852 160.998C154.273 165.053 186.401 151.834 223.071 120.534C285.046 67.6587 343.709 61.587 395.436 56.2322C402.618 55.4928 409.42 54.7759 416.266 53.9693C493.432 44.716 551.961 85.5379 559.859 91.3632V74.7387C555.988 71.4676 495.133 21.5045 417.071 41.5569C399.486 46.0603 382.057 47.7407 363.599 49.4883C319.702 53.678 274.329 57.9798 223.63 102.162C190.316 131.199 160.515 143.813 132.57 140.699C88.9645 135.859 58.2457 94.0294 28.5338 53.5436C1.46188 16.6426 -24.1557 -18.2644 -55.8813 -16.6064V-10.5346V-10.5571Z" fill="#AC8136"/>
<path d="M146.42 120.355C144.339 120.355 142.258 120.266 140.2 120.086C98.5627 116.524 67.8216 77.9202 38.0649 40.5711C7.81595 2.5947 -20.7774 -33.2533 -56.284 -22.8125L-57 -22.6109V-28.9067L-56.6868 -29.0635C-16.683 -49.3625 14.9978 -12.327 48.558 26.8593C78.0015 61.2509 108.429 96.8076 147.538 99.2498C171.456 100.751 196.022 89.7277 222.646 65.5527C266.99 25.2461 304.667 26.6576 341.091 28.0243C367.134 29.0102 391.722 29.9288 417.944 16.1497C458.261 -5.023 494.976 2.79634 518.692 13.0802C544.354 24.2155 560.709 40.5711 560.866 40.728L561.022 40.8848V58.5848L560.083 57.6886C559.926 57.5317 543.996 42.5876 518.602 31.6091C495.2 21.5045 458.709 12.8114 417.81 28.8309C394.855 37.8153 372.683 38.6667 349.213 39.5629C310.149 41.0641 269.765 42.5876 223.541 83.7455C195.954 108.301 170.672 120.31 146.442 120.31L146.42 120.355ZM-43.7549 -25.77C-13.3494 -25.77 12.134 6.22431 38.9374 39.8766C68.5375 77.024 99.1445 115.449 140.289 118.966C166.086 121.162 193.068 109.399 222.78 82.939C269.317 41.5121 309.903 39.9662 349.168 38.4651C372.526 37.5689 394.609 36.7399 417.385 27.8003C458.641 11.6239 495.468 20.4067 519.072 30.6009C541.132 40.1454 556.1 52.6698 559.904 56.0306V41.3553C558.136 39.6301 542.318 24.5292 518.2 14.0884C494.73 3.91659 458.373 -3.81313 418.459 17.1579C391.968 31.0714 367.223 30.1304 341.046 29.1446C304.846 27.8003 267.415 26.3664 223.407 66.3817C196.559 90.7807 171.679 101.894 147.494 100.37C107.915 97.8831 77.308 62.1471 47.7302 27.5762C14.5056 -11.1396 -16.8396 -47.7493 -55.8813 -28.1897V-24.0672C-51.7422 -25.2099 -47.715 -25.7476 -43.7549 -25.7476V-25.77Z" fill="#AC8136"/>
<path d="M157.159 81.5722C156.219 81.5722 155.302 81.5722 154.362 81.505C116.842 79.9366 86.5929 46.7101 57.3508 14.6037C21.0834 -25.1651 -13.148 -62.7607 -56.1274 -32.4467L-57 -31.8194V-36.8157L-56.821 -36.9725C-9.21026 -79.318 28.1758 -40.4005 67.7545 0.824659C111.964 46.8669 157.696 94.4999 222.31 33.2447C264.954 -7.19632 299.454 0.264537 332.835 7.47894C361.429 13.6627 388.456 19.5104 419.04 -4.68696C457.814 -35.337 494.327 -29.4669 518.11 -19.1382C543.862 -7.9805 560.664 10.6829 560.843 10.8845L560.978 11.0413V27.3073L560.016 26.2767C559.859 26.0975 543.37 8.71121 517.864 -2.35685C494.349 -12.5511 458.149 -19.3174 419.085 6.38109C390.022 25.4925 363.733 22.2438 335.923 18.8159C301.58 14.5589 266.051 10.1675 223.228 49.9364C200.25 71.2659 178.615 81.6618 157.136 81.6618L157.159 81.5722ZM-24.7598 -44.6799C4.84027 -44.6799 30.9501 -16.0239 58.1786 13.8644C87.2865 45.8139 117.379 78.8388 154.429 80.4072C176.512 81.3706 198.774 71.0643 222.489 49.0402C265.693 8.93526 301.468 13.349 336.08 17.6508C363.711 21.0564 389.798 24.2827 418.503 5.39528C457.993 -20.5945 494.596 -13.7386 518.379 -3.43229C540.595 6.20185 556.011 20.6083 559.904 24.4619V11.4222C558.226 9.60741 541.96 -7.64442 517.685 -18.1748C494.17 -28.369 458.104 -34.1495 419.779 -3.85798C388.769 20.6531 361.496 14.7606 332.634 8.50957C299.544 1.33997 265.335 -6.05367 223.116 33.984C193.829 61.7438 165.661 69.6528 136.978 58.1814C111.651 48.0544 88.9422 24.3947 66.9714 1.51922C27.8178 -39.1906 -9.16552 -77.7048 -55.8813 -36.3452V-33.9927C-45.0078 -41.4535 -34.6936 -44.6799 -24.7598 -44.6799Z" fill="#AC8136"/>
<path d="M167.428 45.7691C134.002 45.7691 104.917 16.7771 76.4801 -11.5653C48.7594 -39.1906 22.5601 -65.3148 -6.74919 -65.3148C-7.01767 -65.3148 -7.26377 -65.3148 -7.53225 -65.3148C-23.932 -65.0684 -39.7948 -56.5545 -56.0379 -39.3026L-57 -38.272V-42.5065L-56.8658 -42.6634C-38.2734 -65.382 -20.0167 -76.9654 -1.0887 -78.1081C30.1447 -79.9229 58.8946 -52.3199 86.6601 -25.5908C107.177 -5.85199 128.364 14.559 150.536 23.1849C175.304 32.7966 198.706 26.2544 222.02 3.13241C264.462 -38.9441 297.485 -25.2995 329.412 -12.1254C359.057 0.107744 387.069 11.6687 420.204 -23.3279C441.57 -45.8897 464.615 -56.8905 488.644 -55.9047C530.125 -54.2691 560.575 -17.1665 560.866 -16.808L561 -16.6512V-1.34859L560.016 -2.51365C559.702 -2.87213 529.274 -38.1824 487.682 -40.7141C464.19 -42.1481 441.526 -32.9844 420.383 -13.4473C387.874 16.5754 359.952 7.83746 330.419 -1.4382C298.224 -11.5204 264.91 -21.9612 222.937 18.7039C202.957 38.0618 184.611 45.7467 167.428 45.7467V45.7691ZM-6.74919 -66.4351C23.0299 -66.4351 49.3859 -40.1764 77.2632 -12.3718C119.952 30.1752 164.095 74.1786 222.154 17.9197C264.596 -23.2158 298.224 -12.6631 330.732 -2.49124C359.952 6.6724 387.583 15.3207 419.622 -14.2539C441.011 -33.9926 463.944 -43.2683 487.749 -41.812C525.605 -39.5043 554.288 -10.3778 559.881 -4.32844V-16.2479C557.733 -18.8245 528.223 -53.2385 488.599 -54.7845C464.861 -55.7255 442.175 -44.8591 421.032 -22.5437C387.337 13.013 359.012 1.31761 328.987 -11.0723C297.396 -24.112 264.731 -37.5998 222.803 3.93899C204.993 21.5941 188.325 28.5845 172.462 28.5845C141.318 28.5845 113.307 1.60887 85.8994 -24.7842C58.3129 -51.3565 29.7867 -78.7578 -0.9992 -76.9878C-19.5692 -75.89 -37.5351 -64.4858 -55.859 -42.1257V-41.1174C-39.7277 -57.9212 -23.9096 -66.211 -7.53225 -66.4575C-7.26377 -66.4575 -6.99529 -66.4575 -6.72681 -66.4575L-6.74919 -66.4351Z" fill="#AC8136"/>
<path d="M177.071 12.0044C170.27 12.0044 163.356 10.6153 156.264 7.85949C135.367 -0.273521 114.918 -19.4522 95.1396 -38.0035C66.8148 -64.5758 37.5279 -92.0667 5.62335 -89.0421C-15.2735 -87.0704 -35.432 -72.3952 -55.9932 -44.1649L-57 -42.7758V-46.5174L-56.9105 -46.6518C-33.9553 -81.4244 -11.3134 -99.7292 12.2459 -102.597C45.7166 -106.675 75.8313 -78.9374 104.962 -52.0962C143.847 -16.2931 180.539 17.5384 221.706 -25.2551C264.507 -69.7738 296.836 -49.8333 328.092 -30.5426C358.229 -11.9465 386.711 5.59658 421.367 -40.244C442.846 -68.6311 466.137 -83.0375 490.568 -83.0375C490.725 -83.0375 490.882 -83.0375 491.038 -83.0375C531.109 -82.7238 560.575 -43.1567 560.866 -42.7534L560.978 -42.5965V-27.9437L559.971 -29.2432C559.68 -29.624 529.968 -67.6005 489.718 -68.4743C489.248 -68.4743 488.778 -68.4743 488.286 -68.4743C464.861 -68.4743 442.421 -55.9499 421.613 -31.2148C387.024 9.89834 358.363 -4.84414 328.025 -20.438C296.859 -36.48 264.641 -53.0597 222.601 -10.423C207.812 4.56596 192.755 12.0044 177.004 12.0044H177.071ZM10.4784 -90.3864C40.9287 -90.3864 68.8508 -64.1949 95.9003 -38.8325C136.821 -0.452762 175.483 35.8209 221.863 -11.2296C264.44 -54.4264 297.06 -37.6674 328.584 -21.4462C358.52 -6.054 386.778 8.48683 420.808 -31.9318C441.839 -56.9357 464.548 -69.5945 488.331 -69.5945C488.823 -69.5945 489.293 -69.5945 489.785 -69.5945C526.411 -68.8104 554.355 -37.7795 559.881 -31.17V-42.238C557.89 -44.8594 529.319 -81.626 491.038 -81.9173C490.882 -81.9173 490.725 -81.9173 490.568 -81.9173C466.494 -81.9173 443.517 -67.6677 422.262 -39.5719C386.979 7.07531 358.073 -10.7366 327.488 -29.6016C296.613 -48.6459 264.663 -68.3623 222.489 -24.4933C180.584 19.0844 143.466 -15.0832 104.178 -51.2897C75.272 -77.9292 45.3139 -105.51 12.3801 -101.477C-10.7764 -98.6538 -33.1051 -80.6178 -55.8142 -46.3158C-35.4096 -73.8291 -15.3406 -88.1907 5.53385 -90.1399C7.18949 -90.2967 8.84513 -90.3639 10.4784 -90.3639V-90.3864Z" fill="#AC8136"/>
<path d="M59.3421 314.674C50.3703 314.674 42.2263 310.865 34.7536 301.791C18.2867 281.783 6.78677 245.196 -4.33285 209.818C-18.9875 163.194 -32.8367 119.168 -56.5973 112.603L-57 112.491V89.3243L-56.2617 89.5484C-31.7627 97.2333 -16.5935 139.265 -0.529359 183.761C11.5971 217.369 24.1262 252.097 41.1972 272.127C66.4344 301.768 99.9051 280.282 146.241 250.573C159.396 242.126 172.999 233.411 188.057 224.695C191.346 222.791 194.925 221.29 198.348 219.833C199.624 219.296 200.921 218.758 202.197 218.198C246.854 198.504 294.017 204.127 339.637 209.572C374.674 213.762 407.742 217.705 436.201 209.303C508.512 187.951 560.351 234.755 560.843 235.226L561.022 235.382V266.929L560.083 266.01C559.568 265.495 507.192 215.621 434.814 244.008C402.417 256.712 364.091 248.982 323.506 240.782C281.153 232.223 237.368 223.373 197.319 237.556C196.312 237.914 195.283 238.273 194.276 238.609C190.383 239.931 186.379 241.32 182.709 243.291C161.097 254.942 141.721 268.743 124.628 280.932C98.5627 299.505 77.3079 314.674 59.4092 314.674H59.3421ZM-55.8813 111.64C-31.7851 118.742 -17.9359 162.813 -3.25892 209.46C7.83832 244.748 19.3159 281.223 35.6262 301.051C57.3508 327.467 85.2729 307.549 123.934 280.013C141.05 267.802 160.47 253.979 182.15 242.306C185.886 240.289 189.958 238.9 193.896 237.556C194.903 237.22 195.932 236.861 196.939 236.503C237.256 222.231 281.22 231.103 323.707 239.684C364.136 247.862 402.305 255.569 434.389 242.978C502.091 216.405 552.453 257.72 559.904 264.352V235.898C556.503 232.895 506.073 189.855 436.492 210.378C407.809 218.848 374.629 214.882 339.48 210.692C294.017 205.27 247.011 199.669 202.622 219.228C201.346 219.789 200.049 220.349 198.751 220.886C195.35 222.32 191.815 223.799 188.571 225.681C173.536 234.374 159.933 243.112 146.8 251.536C99.9946 281.559 66.166 303.27 40.3022 272.888C23.1194 252.701 10.5455 217.862 -1.60328 184.165C-17.399 140.385 -32.3221 99.0033 -55.8813 90.8703V111.64Z" fill="#AC8136"/>
</g>
</mask>
<g mask="url(#mask0_4189_96)">
<rect x="1" width="502" height="253" fill="#AC8136"/>
</g>
<defs>
<clipPath id="clip0_4189_96">
<rect width="503" height="255" fill="white"/>
</clipPath>
</defs>
</svg>
